<svg xmlns="http://www.w3.org/2000/svg" width="32" height="32"><defs><clipPath id="a"><path fill="none" d="M0 0h32v32H0z"/></clipPath><clipPath id="b"><path fill="none" d="M13 14.5a1.5 1.5 0 11-1.5-1.5 1.5 1.5 0 011.5 1.5" clip-rule="evenodd"/></clipPath><clipPath id="c"><path fill="none" d="M18 14.5a1.5 1.5 0 11-1.5-1.5 1.5 1.5 0 011.5 1.5" clip-rule="evenodd"/></clipPath><clipPath id="d"><path fill="none" d="M23 14.5a1.5 1.5 0 11-1.5-1.5 1.5 1.5 0 011.5 1.5" clip-rule="evenodd"/></clipPath></defs><g><g clip-path="url(#a)"><path fill="none" stroke="#5333ed" stroke-linecap="round" stroke-linejoin="round" stroke-width="3" d="M21.38 20.5l-1.72 2.16-1.83-2.16h-6.54a5.79 5.79 0 01-5.79-5.79v-.42a5.79 5.79 0 015.79-5.79h10.42a5.79 5.79 0 015.79 5.79v.21a6.06 6.06 0 01-6.12 6z"/></g><g clip-path="url(#b)"><g clip-path="url(#a)"><path fill="#2cd4d9" d="M5 8h13v13H5z"/></g></g><g clip-path="url(#c)"><g clip-path="url(#a)"><path fill="#2cd4d9" d="M10 8h13v13H10z"/></g></g><g clip-path="url(#d)"><g clip-path="url(#a)"><path fill="#2cd4d9" d="M15 8h13v13H15z"/></g></g></g></svg>
