<svg xmlns="http://www.w3.org/2000/svg" width="128" height="128" viewBox="0 0 128 128">
  <g fill="none" fill-rule="evenodd" stroke-width="3" transform="translate(25 16)">
    <rect width="79" height="96" stroke="#5333ED" rx="8"/>
    <circle cx="40" cy="45" r="32" stroke="#5333ED"/>
    <circle cx="10" cy="10" r="3" stroke="#2CD4D9" transform="matrix(1 0 0 -1 0 20)"/>
    <circle cx="70" cy="10" r="3" stroke="#2CD4D9" transform="matrix(1 0 0 -1 0 20)"/>
    <circle cx="70" cy="86" r="3" stroke="#2CD4D9" transform="matrix(1 0 0 -1 0 172)"/>
    <path stroke="#2CD4D9" d="M21.8265905,56.1464466 C23.1238778,56.1464466 24.238393,57.0676966 24.4825086,58.3418088 L28.9801149,81.8161572 C29.7962039,86.0755694 27.004839,90.190076 22.7454269,91.0061651 C22.2584077,91.0994763 21.7636447,91.1464466 21.267767,91.1464466 C17.0643755,91.1464466 13.6568535,87.7389246 13.6568535,83.5355332 C13.6568535,82.9770542 13.7183237,82.4202718 13.8401536,81.8752432 L19.103676,58.3279062 C19.3886663,57.0529497 20.5201704,56.1464466 21.8265905,56.1464466 Z" transform="rotate(45 21.268 73.646)"/>
    <path stroke="#2CD4D9" stroke-linejoin="round" d="M43.5,41.5 L50.5,41.5 L50.5,48.5 L43.5,48.5 L43.5,55.5 L36.5,55.5 L36.5,48.4992143 L29.5,48.5002143 L29.5,41.5002143 L36.5,41.4992143 L36.5,34.5 L43.5,34.5 L43.5,41.5 Z"/>
  </g>
</svg>
