<svg xmlns="http://www.w3.org/2000/svg" width="128" height="128" viewBox="0 0 128 128">
  <g fill="none" fill-rule="evenodd" transform="translate(18 19)">
    <g transform="translate(0 6)">
      <polygon stroke="#00D9DC" stroke-width="3" points="0 68 92 68 92 10 0 10"/>
      <path fill="#00D9DC" d="M4 2C4 3.104 3.106 4 2 4 .894 4 0 3.104 0 2 0 .894.894 0 2 0 3.106 0 4 .894 4 2M10 2C10 3.104 9.106 4 8 4 6.894 4 6 3.104 6 2 6 .894 6.894 0 8 0 9.106 0 10 .894 10 2M16 2C16 3.104 15.106 4 14 4 12.894 4 12 3.104 12 2 12 .894 12.894 0 14 0 15.106 0 16 .894 16 2" transform="translate(6)"/>
      <g stroke-width="3" transform="translate(18 28)" style="mix-blend-mode:multiply">
        <path stroke="#5333ED" d="M28 0C43.436 0 56 12.564 56 28 56 43.436 43.436 56 28 56 12.56 56 0 43.436 0 28 0 12.564 12.56 0 28 0M28 0L28 56"/>
        <path stroke="#5333ED" stroke-linecap="round" stroke-linejoin="bevel" d="M20 54L19.089701 52.1768639C15.8272425 45.6740204 14 37.0978064 14 27.9983751 14 18.9021936 15.8272425 10.3259796 19.089701 3.81988626L20 2M35 54L35.910299 52.1768639C39.1727575 45.6740204 41 37.0978064 41 27.9983751 41 18.9021936 39.1727575 10.3259796 35.910299 3.81988626L35 2"/>
        <path stroke="#5F19F6" d="M1 20.5L55 20.5M1 35.5L55 35.5"/>
      </g>
    </g>
    <path stroke="#00D9DC" stroke-width="3" d="M8 0L84 0C88.418278-8.11624501e-16 92 3.581722 92 8L92 16 92 16 0 16 0 8C-5.41083001e-16 3.581722 3.581722 8.11624501e-16 8 0zM52.0006 8L32 8"/>
  </g>
</svg>
