<svg xmlns="http://www.w3.org/2000/svg" width="128" height="128" viewBox="0 0 128 128">
  <g fill="none" fill-rule="evenodd" stroke-width="3" transform="translate(19 19)">
    <path stroke="#16D5DA" d="M89.427 45.0069251C89.427 20.4469339 69.4874126.5069 44.9268492.5069 20.3667885.5069.427 20.4469339.427 45.0069251.427 69.5671175 20.3667885 89.5069 44.9268492 89.5069 69.4874126 89.5069 89.427 69.5671175 89.427 45.0069251zM21.427 45.0539C6.31270614 45.0539.427 44.9599.427 44.9599M66.427 63.5069C66.427 45.0931265 50.7057911 19.9092211 33.427 17.5069M32.427 70.7805C48.2001611 70.7805 63.427 70.7333 63.427 70.7333"/>
    <path stroke="#5333ED" d="M32.427 45.0069C32.427 41.9711594 29.962688 39.5069 26.927 39.5069 23.8918186 39.5069 21.427 41.9711594 21.427 45.0069 21.427 48.0426406 23.8918186 50.5069 26.927 50.5069 29.962688 50.5069 32.427 48.0426406 32.427 45.0069zM72.427 69.0068747C72.427 65.9711934 69.962234 63.5069 66.927 63.5069 63.8912594 63.5069 61.427 65.9711934 61.427 69.0068747 61.427 72.0424039 63.8912594 74.5069 66.927 74.5069 69.962234 74.5069 72.427 72.0424039 72.427 69.0068747zM33.427 18.0069C33.427 14.971666 30.962688 12.5069 27.927 12.5069 24.891312 12.5069 22.427 14.971666 22.427 18.0069 22.427 21.0426406 24.891312 23.5069 27.927 23.5069 30.962688 23.5069 33.427 21.0426406 33.427 18.0069z"/>
    <path stroke="#5333ED" stroke-linecap="round" d="M33.427,43.5069 C49.7704817,35.7775399 63.9986222,25.6587419 68.427,8.5069" style="mix-blend-mode:multiply"/>
    <path stroke="#5333ED" d="M27.927 23.5069L27.927 39.5069M26.927 50.5069L26.927 65.5069M32.427 71.006976C32.427 67.971632 29.962688 65.5069 26.927 65.5069 23.8918186 65.5069 21.427 67.971632 21.427 71.006976 21.427 74.042472 23.8918186 76.5069 26.927 76.5069 29.962688 76.5069 32.427 74.042472 32.427 71.006976zM31.427 48.5069L61.427 67.5069"/>
  </g>
</svg>
