<?xml version="1.0" encoding="UTF-8"?>
<svg width="20px" height="20px" viewBox="0 0 20 20" version="1.1" xmlns="http://www.w3.org/2000/svg" xmlns:xlink="http://www.w3.org/1999/xlink">
    <!-- Generator: Sketch 58 (84663) - https://sketch.com -->
    <title>Custom Preset 4</title>
    <desc>Created with Sketch.</desc>
    <g id="Custom-Preset-4" stroke="none" stroke-width="1" fill="none" fill-rule="evenodd">
        <g id="pricing-google-cloud-platform-v2" transform="translate(1.000000, 2.000000)" fill-rule="nonzero">
            <path d="M11.300781,3.902344 L11.828125,3.902344 L13.335938,2.398438 L13.410156,1.757812 C12.171875,0.667969 10.578125,0.0625 8.933594,0.0625 C5.886719,0.0625 3.199219,2.121094 2.402344,5.058594 C2.570312,4.988281 2.753906,4.980469 2.929688,5.027344 L5.941406,4.53125 C5.941406,4.53125 6.09375,4.277344 6.171875,4.292969 C7.503906,2.832031 9.773438,2.65625 11.3125,3.902344 L11.300781,3.902344 Z" id="Path" fill="#EA4335"></path>
            <path d="M15.480469,5.058594 C15.132812,3.785156 14.425781,2.640625 13.4375,1.761719 L11.324219,3.875 C12.214844,4.605469 12.722656,5.703125 12.703125,6.855469 L12.703125,7.230469 C13.734375,7.230469 14.582031,8.078125 14.582031,9.109375 C14.582031,10.144531 13.734375,10.992188 12.703125,10.992188 L8.941406,10.992188 L8.566406,11.371094 L8.566406,13.628906 L8.941406,14.003906 L12.703125,14.003906 C12.714844,14.003906 12.726562,14.003906 12.738281,14.003906 C15.421875,14.003906 17.632812,11.792969 17.632812,9.109375 C17.632812,7.488281 16.824219,5.96875 15.480469,5.058594 Z" id="Path" fill="#4285F4"></path>
            <path d="M5.175781,13.980469 L8.933594,13.980469 L8.933594,10.96875 L5.175781,10.96875 C4.90625,10.96875 4.640625,10.914062 4.398438,10.800781 L3.867188,10.964844 L2.351562,12.472656 L2.222656,13 C3.070312,13.640625 4.109375,13.984375 5.175781,13.980469 Z" id="Path" fill="#34A853"></path>
            <path d="M5.175781,4.2148279 C2.503906,4.230469 0.3125,6.433594 0.3125,9.105469 C0.3125,10.621094 1.019531,12.058594 2.222656,12.984375 L4.402344,10.800781 C3.730469,10.496094 3.296875,9.824219 3.296875,9.085938 C3.296875,8.054688 4.144531,7.207031 5.175781,7.207031 C5.914062,7.207031 6.585938,7.640625 6.890625,8.3125 L9.074219,6.132812 C8.144531,4.917969 6.699219,4.210938 5.175781,4.2148279 Z" id="Path" fill="#FBBC05"></path>
        </g>
    </g>
</svg>