<svg xmlns="http://www.w3.org/2000/svg" width="128" height="128" viewBox="0 0 128 128">
  <title>pricing-nginx</title>
  <g id="746fac23-90df-4077-a288-8178eadfb042" data-name="figures and interactions">
    <g>
      <path d="M32.06,53.3a2.22,2.22,0,0,0-2.22,2.22V67.09L16.7,53.95a2.22,2.22,0,0,0-3.79,1.57V72.45a2.22,2.22,0,1,0,4.44,0V60.88L30.49,74a2.22,2.22,0,0,0,3.79-1.57V55.52A2.22,2.22,0,0,0,32.06,53.3Z" style="fill: #090"/>
      <path d="M47.83,63.09a2.22,2.22,0,1,0,0,4.44l5.44,0-1.33,2.69h-7l-3.47-6.1L45,57.76h7.44l1.73,3.56h4.47L55.8,54.57l-.61-1.25H42.34l-.61,1.14L37,63l-.61,1.08L37,65.2l4.72,8.3.64,1.14H54.71l.61-1.25,3.52-7.1,1.58-3.22H56.85Z" style="fill: #090"/>
      <path d="M64.82,53.29a2.31,2.31,0,0,0-2.19,2.25v5.78h4.44V55.54A2.31,2.31,0,0,0,64.82,53.29Z" style="fill: #090"/>
      <path d="M89.72,53.51A2.22,2.22,0,0,0,87.3,54L74.16,67.13V55.56a2.22,2.22,0,0,0-4.44,0V72.49a2.22,2.22,0,0,0,3.79,1.57L86.65,60.92V72.49a2.22,2.22,0,0,0,4.44,0V55.56A2.22,2.22,0,0,0,89.72,53.51Z" style="fill: #090"/>
      <path d="M107.53,64l6.91-6.88A2.22,2.22,0,1,0,111.3,54l-6.92,6.89L97.47,54a2.22,2.22,0,1,0-3.13,3.14L101.24,64l-6.89,6.86A2.22,2.22,0,1,0,97.49,74l6.9-6.87,6.9,6.87a2.22,2.22,0,1,0,3.13-3.14Z" style="fill: #090"/>
      <path d="M62.63,72.4a2.22,2.22,0,1,0,4.44,0V63.1H62.63Z" style="fill: #090"/>
    </g>
  </g>
</svg>
