<?xml version="1.0" encoding="UTF-8"?> <svg xmlns="http://www.w3.org/2000/svg" fill="none" viewBox="0 0 676 519"><path d="M375.6 488.05c46.337 0 83.9-37.563 83.9-83.9s-37.563-83.9-83.9-83.9-83.9 37.563-83.9 83.9 37.563 83.9 83.9 83.9Z" fill="url(#a)"></path><path d="M455.7 396.45c-7.5 22.9-49.9 41.9-94.7 42.5-44.8.6-75.1-17.4-67.6-40.2 7.5-22.8 49.9-41.9 94.7-42.5 44.8-.6 75.1 17.3 67.6 40.2Z" fill="url(#b)"></path><path opacity=".5" fill-rule="evenodd" clip-rule="evenodd" d="m207.7 214.55-106.6 133.5 234.1 129.9 86.1-145-213.6-118.4Z" fill="url(#c)"></path><path d="m373.5 392.85-11.9 5.6s.5 7.8 8.8 13.7c7.2 4.2 23.1 9.6 22.9 11.5-.1 1.2-.3 20.7-.2 24.3 0 0 .3 1.9 2.4 2.4 1.5.4 2.5-.1 3.2-1.7l1.4-6.8c.7-5.2 2.7-20.5 2.9-21.9 1-9.4-32-18.9-29.5-27.1Z" fill="#11055B"></path><path d="m368.6 400.85-13.3-.4s-1.5 5.3 2.1 13.5c1.8 4.7 13.4 16.6 13.2 18.5-.1 1.2-3.5 21.8-3.4 25.4 0 0 .3 1.9 2.4 2.4 1.5.4 2.5-.1 3.2-1.7l1.9-5.5c1.5-4.7 5.9-20.8 6.1-22.1 1.9-8.6-13.2-21.8-12.2-30.1Z" fill="#11055B"></path><path d="M354.8 400.35s-.1 2.3 4.9 2.5c4.2.2 13-3.3 13.9-7.7l-.3-1.4s-1.1 2.2-4 3.7c-1.9 1-10 5.2-14.5 1.3v1.6Z" fill="#fff"></path><path d="M356.1 399.15v3.5l1.9 1 .1-4-2-.5ZM371.7 395.95v3l-1.6.9-.1-3.4 1.7-.5Z" fill="#11055B"></path><path opacity=".1" d="m367 469.65 39.8 26 26-18.7-38.9-22.9-26.9 15.6Z" fill="url(#d)"></path><path d="m368.4 472.75 1.9-1.2v-.8l-2 1.3.1.7Z" fill="#C2D3EB"></path><path d="m365 469.25-.1-2.3c-.1-1 .5-2 1.4-2.4l.7-.3c1.1-.6 2.4-.4 3.4.4 1.5 1.2 3.5 3.1 5.5 5.3.9 1 1.5 1.7 2 2.2.8.7 1.7 2 .8 2.6 0 0-1.8 1.1-3.3.4l-9.7-4.9c-.4-.2-.6-.6-.7-1Z" fill="#120667"></path><path d="M367.1 458.45h5.3l-1.8 6.4-.3.2c.2.7-.3.9-1.4 1.6-1.2.8-2.5.9-3 .2-.1-.1-.1-.3-.1-.5l1.3-7.9Z" fill="#5333ED"></path><path d="M367.6 467.45c.4.6 1.5.5 2.4-.1 1-.6 1.5-1.6 1.1-2.2-.4-.6-1.5-.5-2.4.1-1 .6-1.5 1.6-1.1 2.2Z" fill="#5333ED"></path><path d="M370.3 469.15h-.1c-.2-.1-.4-.3-.3-.6.2-.6.6-1.2 1.3-1.7.5-.4 1.2-.6 1.7-.6.3 0 .5.2.5.5s-.2.5-.5.5c-.4 0-.8.2-1.2.4-.6.4-.9.8-.9 1.1-.1.2-.2.4-.5.4Z" fill="#0C022F"></path><path d="M369.4 468.35c-.1 0-.1 0 0 0-.3 0-.5-.3-.5-.5.1-.7.6-1.4 1.4-1.9.5-.4 1.2-.6 1.7-.6.3 0 .5.2.5.5s-.2.5-.5.5c-.4 0-.8.2-1.2.4-.6.4-.9.9-1 1.2 0 .2-.2.4-.4.4ZM371.5 470.15h-.1c-.2-.1-.4-.3-.3-.6.1-.6.6-1.2 1.2-1.6.5-.3 1.1-.5 1.6-.5.3 0 .5.2.5.5s-.2.5-.5.5-.7.2-1.1.4c-.4.3-.8.7-.9 1 0 .1-.2.3-.4.3Z" fill="#0C022F"></path><path d="M365 469.25s1.9 1.1 3.1 2c.3.3.7.5 1.1.7l6.1 3s.8.3 1.7.2c1.1-.1 2-1 2.1-1.2v.7s-1.1 1.1-2 1.1c-1 .1-1.9-.2-3.7-1.1-1.5-.8-5-2.5-5-2.5v.5l-3.2-1.8-.2-1.6Z" fill="#fff"></path><path d="M366.4 457.75c.2-1.1 1.3-2 2.8-2 1.9 0 4 1 4.3 2.5.1.4.1.8 0 1.1l-.1.3-.4 1.3c-.1 1.1-1.3 2-2.8 2-1.9 0-3.8-1.2-4.2-2.7-.1-.3-.1-.5 0-.8l.4-1.7Z" fill="#1B0971"></path><path d="M409.7 394.45s-14.2.8-18.8-1.2c-6.7-2.9-13.5-19-13.5-19l5.4-3.3s7.1 15.6 11.1 17.5c3.2 1.5 15.8 2.8 15.8 2.8v3.2Z" fill="#FFC398"></path><path d="M407.9 386.65s3.2 6.2 2.4 9.4c-.8 3.1-2.2 5.2-2.2 5.2l-4.1-.1s3.4-4.7 3.3-6.4c-.1-1.2-1.1-5.3-2.1-6.7-1-1.4.3-2.4.3-2.4s1.4-.9 2.4 1Z" fill="#fff"></path><path d="M366.4 367.65c2.9-1.5 9.9-3 13.9-1 5.3 2.6 4.2 7.7 2.4 10.4 0 0-1.7 2.7-4.2 6.4-3.1 4.7-3.9 9.5-4.8 10.8-2.6 3.6-19.5 13.1-19.3 1.8 0-1.3-1-11.9-1-11.9s-1.1-6 3.1-10.2c0-.1 3.3-2.9 9.9-6.3Z" fill="#5333ED"></path><path fill-rule="evenodd" clip-rule="evenodd" d="M369.2 357.45c2.6 1.1 3.9 4.2 2.8 6.8-1.1 2.6-4.2 3.9-6.8 2.8-2.6-1.1-3.9-4.2-2.8-6.8 1.1-2.7 4.2-3.9 6.8-2.8Z" fill="#0C022F"></path><path d="m365.6 369.85 2-7.3 8-1.3-2.8 10c-.6 2.1-6.8 1.3-7.2-1.4Z" fill="#FFC398"></path><path d="m375.3 362.45-7.9 1-.6 2.2c.7 1.5 3 3.8 5.1 4 .5.1 1 0 1.4-.1l2-7.1Z" fill="#EBA87C"></path><path fill-rule="evenodd" clip-rule="evenodd" d="M376.4 357.25c2.6 1.1 3.9 4.2 2.8 6.8-1.1 2.6-4.2 3.9-6.8 2.8-2.6-1.1-3.9-4.2-2.8-6.8 1.1-2.7 4.1-4 6.8-2.8Z" fill="#0C022F"></path><path d="M376.1 367.75c-1.2 1.4-4.1.9-6.5-1.2-1.7-1.4-2.3-3.3-2.4-4.7 0-.3.3-.1.4-.4.1-.3-.3-1.1-.3-1.1 1.2-1.4 4.1-.9 6.5 1.2 2.4 2 3.5 4.8 2.3 6.2Z" fill="#FFC398"></path><path d="m368.3 354.15 10.9 1.9s-.2 7.5-3 11.5l-8.6-6.2.7-7.2Z" fill="#FFC398"></path><path d="m366.8 361.95.3-3.6c-.2-.2-.4-.5-.5-.8-.6-1.7 1.3-4 4.3-5.1 3-1.1 5.9-.6 6.5 1.2v.1c.6.1 1.2.4 1.8.9 1.1.9 1.6 2.2 1.1 2.9.2.7 0 1.3-.4 1.8-.6.7-1.2.4-2.4-.5-.7-.6-1.1-1.3-1.3-1.9-.8.8-1.8 1.5-3.2 2-1.7.6-2.8.6-3.9.5-.1.6-1.9 2.4-1.9 2.4l-.4.1Z" fill="#0C022F"></path><path d="M366.3 359.85c-.3.8 0 2 .5 2.6.6.6 1.2.5 1.5-.3.3-.8 0-2-.5-2.6-.6-.7-1.2-.5-1.5.3Z" fill="#FFC398"></path><path d="m394.2 462.85 1.9-1.3v-.7l-2 1.2.1.8Z" fill="#C2D3EB"></path><path d="m390.8 459.25-.1-2.3c-.1-1 .5-2 1.4-2.4l.7-.3c1.1-.6 2.4-.4 3.4.4 1.5 1.2 3.5 3.1 5.5 5.3.9 1 1.5 1.7 2 2.2.8.7 1.7 2 .8 2.6 0 0-1.8 1.1-3.3.4l-9.7-4.9c-.4-.2-.6-.6-.7-1Z" fill="#5333ED"></path><path d="M392.9 448.45h5.3l-1.8 6.4-.3.2c.2.7-.3.9-1.4 1.6-1.2.8-2.5.9-3 .2-.1-.1-.1-.3-.1-.5l1.3-7.9Z" fill="#fff"></path><path d="M393.4 457.45c.4.6 1.5.5 2.4-.1 1-.6 1.5-1.6 1.1-2.2-.4-.6-1.5-.5-2.4.1-1 .7-1.5 1.7-1.1 2.2Z" fill="#5333ED"></path><path d="M396.1 459.15h-.1c-.2-.1-.4-.3-.3-.6.2-.6.6-1.2 1.3-1.7.5-.4 1.2-.6 1.7-.6.3 0 .5.2.5.5s-.2.5-.5.5c-.4 0-.8.2-1.2.4-.6.4-.9.8-.9 1.1-.1.3-.3.4-.5.4Z" fill="#0C022F"></path><path d="M395.2 458.35c-.1 0-.1 0 0 0-.3 0-.5-.3-.5-.5.1-.7.6-1.4 1.4-1.9.5-.4 1.2-.6 1.7-.6.3 0 .5.2.5.5s-.2.5-.5.5c-.4 0-.8.2-1.2.4-.6.4-.9.9-1 1.2 0 .2-.2.4-.4.4ZM397.3 460.15h-.1c-.2-.1-.4-.3-.3-.6.1-.6.6-1.2 1.2-1.6.5-.3 1.1-.5 1.6-.5.3 0 .5.2.5.5s-.2.5-.5.5-.7.2-1.1.4c-.4.3-.8.7-.9 1 0 .2-.2.3-.4.3Z" fill="#0C022F"></path><path d="M390.8 459.25s1.9 1.1 3.1 2c.3.3.7.5 1.1.7l6.1 3s.8.3 1.7.2c1.1-.1 2-1 2.1-1.2v.7s-1.1 1.1-2 1.1c-1 .1-1.9-.2-3.7-1.1-1.5-.8-5-2.5-5-2.5v.5l-3.2-1.8-.2-1.6Z" fill="#fff"></path><path d="M392.2 447.75c.2-1.1 1.3-2 2.8-2 1.9 0 4 1 4.3 2.5.1.4.1.8 0 1.1l-.1.3-.4 1.3c-.1 1.1-1.3 2-2.8 2-1.9 0-3.8-1.2-4.2-2.7-.1-.3-.1-.5 0-.8l.4-1.7Z" fill="#1B0971"></path><path d="M400 407.85s-6 1.1-10.4-3.6c-2.3-2.5-1.7-7-1.1-9.3.2-.8 1-1.2 1.7-1 .6.2 1 .8.9 1.5-.2 1.6-.5 4.7.5 6.2 1.1 1.7 6.6 3.8 9.3 3.1 2.8-.6-.9 3.1-.9 3.1Z" fill="#fff"></path><path d="M365.5 398.85v3.6l-2 1-.1-4 2.1-.6Z" fill="#11055B"></path><path d="M412 392.45s-.2-2.6-.8-3.3c-.3-.3-1.6-1.4-1.6-1.4l-1.9-.8s0 1.2 1.4 1.6l.5 1.4s-2 1.6-.8 3.6l3.2-1.1Z" fill="#FFC398"></path><path d="m407.3 387.45-3 .5s.3.8 1.6.8h1.2l1.7.6-2.5-.2-2.3.6s.6.9 2.3.3l2.2.2h-2.2l-2 .3s.9 1.1 2.5.5l2.2.3h-1.7l-1.4 1.1c.8.3 1.7-.3 1.7-.3l1.2.2c-3 3.4.5 3.3.5 3.3s3.9-1.2 2.8-5c-.2-.6-1.9-1.9-1.9-1.9l-.9-.3-2-1ZM382.4 402.25s4.5 2.2 8.3 1.2c1.2-.3.6-1.1.6-1.1s.6 0 .9-.6c.3-.5-.1-1-.1-1s.8-.1.8-.8c0-.5-.4-.6-.4-.6s1 .3.8-.6c-.1-.6-1.5-.4-1.9-.4h-3.3c-.6 0-.6-.1-.6-.4.1-.3.8-.6.9-1.5.1-.9-.3-1.2-.4-1-.3.1-1 1.7-1.8 1.8-.9.1-3.8 2.2-3.8 2.2s-1 2.3 0 2.8Z" fill="#FFC398"></path><path fill-rule="evenodd" clip-rule="evenodd" d="M382.9 398.75s-11.5 1.5-13.1.5c-1.9-1.2-6.1-12.6-7-15.8l-.9-3.4c-.9-4-3.3-5.2-4.4-5-1.4.3-2.6.8-2.9 4.1-.3 3.2 2.2 9.6 2.2 9.6s4.1 11.2 8.9 15.7c4.9 4.6 17.5-2.4 17.5-2.4l-.3-3.3Z" fill="#FFC398"></path><path d="M399.8 401.75c-18.4 8.7-20.5 25.1-20.5 25.1s-7.9 42.9-23.9 58.3l.5.5c6.3 1.5 12.9 2.3 19.7 2.3 35 0 64.9-21.4 77.5-51.8-6.7-16.8-19-32.4-19-32.4s-15.9-10.7-34.3-2Z" fill="url(#e)"></path><path opacity=".5" d="M407.2 432.85s6.5 18.7 9.1 36.5c0 0 12.3-6.6 19.7-16.3 0 0 0-16.8-4.3-34.7-.1 0-10.6 10.1-24.5 14.5Z" stroke="url(#f)" stroke-miterlimit="10"></path><path opacity=".2" d="M318 414.35c0-44.2 35.8-80 80-80 7.5 0 14.7 1 21.5 2.9-12.6-8.3-27.7-13.1-43.9-13.1-44.2 0-80 35.8-80 80 0 36.7 24.7 67.7 58.5 77.1-21.8-14.4-36.1-39-36.1-66.9Z" fill="#fff"></path><path d="M386.8 425.25c11.6 3.7 25.8-2.2 35.9-8.7 3.3-2.1 9.3-7.7 10.9-13.1-2.9-1.7-17.3-9.5-33.8-1.7-11.9 5.6-17 14.5-19.1 20 1.1 1.3 3 2.5 6.1 3.5Z" fill="url(#g)"></path><path opacity=".5" fill-rule="evenodd" clip-rule="evenodd" d="M237.1 385.05v16.1l-19.6-11.3v-16.1l19.6 11.3Z" fill="#DFE9F8"></path><path opacity=".4" fill-rule="evenodd" clip-rule="evenodd" d="M275.6 458.15v24.2l-29.4-16.9v-24.2l29.4 16.9Z" fill="#DFE9F8"></path><path opacity=".7" d="M412.3 374.35c10.3-6 18.7-1.1 18.7 10.8s-8.4 26.4-18.7 32.4c-10.3 6-18.7 1.1-18.7-10.8.1-11.9 8.4-26.4 18.7-32.4Z" stroke="#fff" stroke-miterlimit="10"></path><path d="M290.1 266.45c37.39 0 67.7-30.31 67.7-67.7s-30.31-67.7-67.7-67.7-67.7 30.31-67.7 67.7 30.31 67.7 67.7 67.7Z" fill="url(#h)"></path><path d="M354.8 192.55c-6 18.4-40.3 33.8-76.4 34.3-36.1.5-60.6-14-54.5-32.5 6-18.4 40.3-33.8 76.4-34.3 36.1-.5 60.5 14 54.5 32.5Z" fill="url(#i)"></path><path d="m289.7 189.35-10.9 4.9s.4 6.3 7.1 11c5.8 3.4 18.6 7.7 18.5 9.2-.1 1-.2 16.7-.1 19.6 0 0 .3 1.5 1.9 2 1.2.3 2-.1 2.5-1.3l1.1-5.5c.6-4.2 2.2-16.6 2.3-17.7 1-7.6-24.3-15.7-22.4-22.2Z" fill="#5333ED"></path><path d="m281.6 251.25-.1-1.9c0-.8.4-1.6 1.1-1.9l.6-.3c.9-.4 2-.3 2.7.3 1.2 1 2.8 2.5 4.4 4.3.7.8 1.2 1.4 1.6 1.8.6.6 1.4 1.6.6 2.1 0 0-1.4.9-2.7.4l-7.8-3.9c-.2-.2-.4-.5-.4-.9Z" fill="#120667"></path><path d="M283.3 242.55h4.3l-1.4 5.1-.3.2c.2.6-.2.7-1.1 1.3-1 .6-2 .7-2.4.1-.1-.1-.1-.2-.1-.4l1-6.3Z" fill="#5333ED"></path><path d="M282.7 241.95c.1-.9 1-1.6 2.3-1.6 1.6 0 3.2.8 3.5 2 .1.3.1.7 0 .9l-.1.2-.3 1c-.1.9-1 1.6-2.3 1.6-1.5 0-3.1-.9-3.4-2.1-.1-.2-.1-.4 0-.6l.3-1.4Z" fill="#C2D3EB"></path><path d="m284.5 196.15-10.7-.3s-1.2 4.3 1.7 10.9c1.4 3.8 10.8 13.4 10.7 15-.1 1-2.8 17.6-2.7 20.5 0 0 .3 1.5 1.9 2 1.2.3 2-.1 2.5-1.3l1.6-4.5c1.2-3.8 4.7-16.8 5-17.9 1.4-7.1-10.9-17.8-10-24.4Z" fill="#5333ED"></path><path d="M281.6 251.25s1.5.9 2.5 1.6l.9.6 4.9 2.5s.6.2 1.4.2c.9-.1 1.6-.8 1.7-.9v.6s-.9.9-1.7.9c-.8.1-1.6-.2-3-.9l-4-2v.4l-2.6-1.5-.1-1.5ZM273.4 195.65s-.1 1.8 3.9 2c3.4.2 10.5-2.9 12.5-6.8l-.2-.9s-2.1 2.1-4.5 3.3c-1.5.8-8 4.2-11.7 1v1.4Z" fill="#fff"></path><path d="M274.4 194.75v2.8l1.6.8v-3.2l-1.6-.4ZM288.8 190.85v2.5l-1.3.6-.1-2.7 1.4-.4Z" fill="#5333ED"></path><path opacity=".1" d="m283.2 251.55 32.1 21 21-15-31.4-18.5-21.7 12.5Z" fill="url(#j)"></path><path d="m284.3 254.15 1.6-1-.1-.6-1.5 1v.6Z" fill="#C2D3EB"></path><path d="M283.7 249.85c.3.5 1.2.4 2-.1s1.2-1.3.9-1.8c-.3-.5-1.2-.4-2 .1s-1.2 1.3-.9 1.8Z" fill="#5333ED"></path><path d="M285.9 251.15s-.1 0 0 0c-.3-.1-.4-.3-.4-.5.1-.5.5-1 1.1-1.3.4-.3.9-.5 1.4-.5.2 0 .4.2.4.4s-.2.4-.4.4c-.3 0-.7.1-1 .3-.5.3-.7.7-.8.9 0 .2-.1.3-.3.3Z" fill="#0C022F"></path><path d="M285.1 250.55c-.2 0-.4-.2-.4-.4.1-.5.5-1.1 1.1-1.5.4-.3.9-.5 1.4-.5.2 0 .4.2.4.4s-.2.4-.4.4c-.3 0-.7.1-1 .3-.5.3-.7.7-.8 1 .1.1-.1.3-.3.3ZM286.9 251.95c-.1 0-.1 0 0 0-.3-.1-.4-.3-.4-.5.1-.5.5-.9 1-1.3.4-.3.9-.4 1.3-.4.2 0 .4.2.4.4s-.2.4-.4.4c-.3 0-.6.1-.9.3-.4.2-.6.6-.7.8 0 .2-.2.3-.3.3Z" fill="#0C022F"></path><path d="M317.7 190.95s-8.3 2.5-12 1c-5.4-2.3-7.5-9-7.5-9l4.3-2.7s2.1 6.4 5.3 7.9c2.6 1.2 9.6.4 9.6.4l.3 2.4Z" fill="#FFC398"></path><path d="M316.2 184.65s2.6 5 1.9 7.6c-.7 2.5-1.8 4.2-1.8 4.2l-3.3-.1s2.7-3.8 2.7-5.1c-.1-1-.9-4.3-1.7-5.4-.8-1.2.2-1.9.2-1.9s1.2-.8 2 .7Z" fill="#fff"></path><path d="m294.2 176.95 5.8-7.2s4.1 11.3 4.2 11.8c.2.9-.4 2.1-2.8 3.4-2 1.1-3.5.3-3.9-.5l-3.3-7.5Z" fill="#120667"></path><path d="M295.7 180.35s1.6-2 2-2.3c.4-.4.8.5.1 1.2l-1.8 1.8-.3-.7Z" fill="#120667"></path><path d="M282.8 169.35c5.5-2.8 7.5-2.4 11.2-2.6 1.3-.1 3.5.6 3.3.5 3.5.9 4.3 5.8 1.7 9.6 0 0-3.3 3.6-5.7 6.3-2.5 2.8-2.3 5.3-3 6.3-2.1 2.9-17.3 11.9-17.1 2.8 0-1.1-1.7-9.4-1.7-9.4s-1-4.5 1.4-7.4c-.1 0 4.5-3.3 9.9-6.1Z" fill="#120667"></path><path d="M277 184.75c1.9-1.3 3.9-3.6 5-1.6 1.4 2.6 2.3 5.2 2.3 5.2-.9 4.3-5.4 5.5-7.4 5.2-.7-.1-1.6-.4-1.9-1-1.1-2.2-1.2-2.7-2-5-1.7-4.8 4-2.8 4-2.8Z" fill="#120667"></path><path d="M287.9 174.65c-1.1 0-2.3-.4-3.3-1.1-.9-.7-1.5-1.7-1.5-2.6 0-.8.4-1.5 1-2 1.5-1.1 3.9-.9 5.6.4.9.7 1.5 1.7 1.5 2.6 0 .8-.4 1.5-1 2s-1.5.7-2.3.7Z" fill="#DFE9F8"></path><path d="m284.1 170.75 2.7-6h7l-3.8 8.2c-.8 1.7-6 .1-5.9-2.2Z" fill="#FFC398"></path><path d="m291.5 169.75 1.9-4-6.9-.1-.7 1.6c.4 1.4 1.5 3.3 4.5 3.2.4 0 .6-.1 1-.2" fill="#EBA87C"></path><path d="M294.2 162.35a1.3 1.3 0 1 0 0-2.6 1.3 1.3 0 0 0 0 2.6Z" fill="#5B3427"></path><path d="M284.2 165.35c-.2-.8.3-1.5 1.1-1.7h.1l.2-1.6c-.1-2.5 1.7-3.6 4.2-3.7 2.5-.1 4.7.9 4.7 3.4l.1 3.8c.1 3.4-1.8 4.1-4.1 4.2-2.2.1-4.1-1.4-4.8-3.3-.6 0-1.3-.4-1.5-1.1Z" fill="#FFC398"></path><path d="M286.6 165.45c.3.2.6 0 .6-.4v-1.6c0-.4-.2-.9-.6-1.1-.3-.2-.6 0-.6.4v1.6c.1.4.3.9.6 1.1Z" fill="#5B3427"></path><path d="M285.4 163.65s.4.1.7.7l.4-.2-.1-1.2-1-.6v1.3Z" fill="#5B3427"></path><path d="m305.1 246.15 1.6-1.1v-.6l-1.6 1.1v.6Z" fill="#C2D3EB"></path><path d="m302.4 243.25-.1-1.9c0-.8.4-1.6 1.1-1.9l.6-.3c.9-.4 2-.3 2.7.3 1.2 1 2.8 2.5 4.4 4.3.7.8 1.2 1.4 1.6 1.8.6.6 1.4 1.6.6 2.1 0 0-1.4.9-2.7.4l-7.8-3.9c-.1-.3-.3-.6-.4-.9Z" fill="#5333ED"></path><path d="M304.1 234.55h4.3l-1.4 5.1-.3.2c.2.6-.2.7-1.1 1.3-1 .6-2 .7-2.4.1-.1-.1-.1-.2-.1-.4l1-6.3Z" fill="#fff"></path><path d="M304.5 241.75c.3.5 1.2.4 2-.1s1.2-1.3.9-1.8c-.3-.5-1.2-.4-2 .1-.8.6-1.2 1.4-.9 1.8Z" fill="#5333ED"></path><path d="M306.7 243.15s-.1 0 0 0c-.3-.1-.4-.3-.4-.5.1-.5.5-1 1.1-1.3.4-.3.9-.5 1.4-.5.2 0 .4.2.4.4s-.2.4-.4.4c-.3 0-.7.1-1 .3-.5.3-.7.7-.8.9 0 .2-.1.3-.3.3Z" fill="#0C022F"></path><path d="M305.9 242.55c-.2 0-.4-.2-.4-.4.1-.5.5-1.1 1.1-1.5.4-.3.9-.5 1.4-.5.2 0 .4.2.4.4s-.2.4-.4.4c-.3 0-.7.1-1 .3-.5.3-.7.7-.8 1 .1.1-.1.3-.3.3ZM307.7 243.95c-.1 0-.1 0 0 0-.3-.1-.4-.3-.4-.5.1-.5.5-.9 1-1.3.4-.3.9-.4 1.3-.4.2 0 .4.2.4.4s-.2.4-.4.4c-.3 0-.6.1-.9.3-.4.2-.6.6-.7.8 0 .2-.2.3-.3.3Z" fill="#0C022F"></path><path d="M302.4 243.25s1.5.9 2.5 1.6l.9.6 4.9 2.5s.6.2 1.4.2c.9-.1 1.6-.8 1.7-.9v.6s-.9.9-1.7.9c-.8.1-1.6-.2-3-.9l-4-2v.4l-2.6-1.5-.1-1.5Z" fill="#fff"></path><path d="M303.5 233.95c.1-.9 1-1.6 2.3-1.6 1.6 0 3.2.8 3.5 2 .1.3.1.7 0 .9l-.1.2-.3 1c-.1.9-1 1.6-2.3 1.6-1.5 0-3.1-.9-3.4-2.1-.1-.2-.1-.4 0-.6l.3-1.4Z" fill="#1B0971"></path><path d="M309.9 201.75s-4.9.9-8.4-2.9c-1.9-2-1.4-5.7-.9-7.5.1-.6.8-1 1.4-.8.5.2.8.7.7 1.2-.2 1.3-.4 3.8.4 5 .9 1.3 5.3 3 7.5 2.5s-.7 2.5-.7 2.5Z" fill="#fff"></path><path d="M281.9 194.55v2.8l-1.5.8-.1-3.2 1.6-.4Z" fill="#5333ED"></path><path d="M319.5 189.35s-.1-2.1-.6-2.6c-.3-.3-1.3-1.1-1.3-1.1l-1.5-.6s0 1 1.1 1.3l.4 1.1s-1.6 1.3-.6 2.9l2.5-1Z" fill="#FFC398"></path><path d="m315.7 185.25-2.4.4s.3.6 1.3.6h1l1.4.5-2-.1-1.9.5s.5.8 1.9.3l1.8.1H315l-1.6.3s.8.9 2 .4l1.8.3h-1.4l-1.1.9c.6.3 1.4-.3 1.4-.3l1 .1c-2.4 2.8.4 2.6.4 2.6s3.1-1 2.3-4c-.1-.5-1.5-1.5-1.5-1.5l-.8-.3-1.8-.8ZM295.7 197.25s3.6 1.8 6.7.9c.9-.2.5-.9.5-.9s.5 0 .7-.5c.2-.4-.1-.8-.1-.8s.6-.1.6-.6c0-.4-.3-.5-.3-.5s.8.2.6-.5c-.1-.5-1.2-.3-1.5-.3h-2.7c-.5 0-.5-.1-.5-.3.1-.2.6-.5.7-1.2.1-.7-.2-.9-.3-.8-.2.1-.8 1.3-1.4 1.4-.7.1-3.1 1.7-3.1 1.7s-.8 2 .1 2.4Z" fill="#FFC398"></path><path d="M280.8 186.15c.7 2 4.3 9.1 5.8 9.9 1.4.8 9.6-1.6 9.6-1.6l1.1 2.8s-9.7 6.7-13.9 3.2c-4.1-3.4-8-12.2-8-12.2l5.4-2.1Z" fill="#FFC398"></path><path d="M274 176.05c1.5-1 4.6.4 5.2 2 .8 2.2 4 10.2 4 10.2-.7 3.3-4.4 4.3-6 4.1-.5-.1-1.2-.3-1.5-.8-.9-1.7-2.7-6.5-3.6-9.7-1.2-4.8 1.9-5.8 1.9-5.8Z" fill="#120667"></path><path d="M309.6 196.85c-14.9 7-16.5 20.2-16.5 20.2s-6.3 34.6-19.3 47.1l.4.4c5.1 1.2 10.4 1.9 15.9 1.9 28.2 0 52.4-17.3 62.6-41.8-5.4-13.5-15.4-26.2-15.4-26.2s-12.8-8.6-27.7-1.6Z" fill="url(#k)"></path><path opacity=".5" d="M315.7 221.95s5.3 15.1 7.3 29.4c0 0 10-5.4 15.9-13.1 0 0 0-13.6-3.5-28 0 0-8.6 8.2-19.7 11.7Z" stroke="url(#l)" stroke-miterlimit="10"></path><path opacity=".2" d="M243.7 206.95c0-35.6 28.9-64.5 64.5-64.5 6 0 11.8.8 17.4 2.4-10.2-6.7-22.3-10.6-35.4-10.6-35.6 0-64.5 28.9-64.5 64.5 0 29.6 20 54.6 47.2 62.2-17.7-11.6-29.2-31.4-29.2-54Z" fill="#fff"></path><path d="M299.2 215.75c9.4 3 20.8-1.7 28.9-7 2.7-1.7 7.5-6.2 8.8-10.6-2.3-1.4-14-7.6-27.3-1.4-9.6 4.5-13.7 11.7-15.4 16.1 1 1.1 2.5 2.1 5 2.9Z" fill="url(#m)"></path><path opacity=".2" fill-rule="evenodd" clip-rule="evenodd" d="M210.7 199.65v10.8l-12.5-7.2v-10.8l12.5 7.2Z" fill="#C2D3EB"></path><path opacity=".4" fill-rule="evenodd" clip-rule="evenodd" d="M239.7 230.25v23.5l-27.4-15.7v-23.5l27.4 15.7Z" fill="#C2D3EB"></path><path d="M345.8 158.25c6.7-3.8 12.1-.7 12.1 7s-5.4 17-12.1 20.9c-6.7 3.8-12.1.7-12.1-7 .1-7.8 5.5-17.1 12.1-20.9Z" stroke="#DFE9F8" stroke-miterlimit="10"></path><path d="M286.1 163.35a1.2 1.2 0 1 0 0-2.4 1.2 1.2 0 0 0 0 2.4Z" fill="#5B3427"></path><path d="M288.4 162.65c1.878 0 3.4-1.119 3.4-2.5s-1.522-2.5-3.4-2.5-3.4 1.119-3.4 2.5 1.522 2.5 3.4 2.5Z" fill="#5B3427"></path><path d="M287.2 163.25a.9.9 0 1 0 0-1.8.9.9 0 0 0 0 1.8ZM291.3 160.55a1.7 1.7 0 1 0 0-3.4 1.7 1.7 0 0 0 0 3.4ZM292.9 162.85a.6.6 0 1 0 0-1.2.6.6 0 0 0 0 1.2Z" fill="#5B3427"></path><path d="M292.4 162.15a1.3 1.3 0 1 0 0-2.6 1.3 1.3 0 0 0 0 2.6Z" fill="#5B3427"></path><path d="M293.7 160.65c.663 0 1.2-.493 1.2-1.1 0-.608-.537-1.1-1.2-1.1-.663 0-1.2.492-1.2 1.1 0 .607.537 1.1 1.2 1.1ZM289.5 158.55a.7.7 0 1 0 .001-1.399.7.7 0 0 0-.001 1.399Z" fill="#5B3427"></path><path d="M566.5 307.85c46.337 0 83.9-37.563 83.9-83.9s-37.563-83.9-83.9-83.9-83.9 37.563-83.9 83.9 37.563 83.9 83.9 83.9Z" fill="url(#n)"></path><path d="M646.6 216.25c-7.5 22.9-49.9 41.9-94.7 42.5-44.8.6-75.1-17.4-67.6-40.2 7.5-22.9 49.9-41.9 94.7-42.5 44.8-.6 75.1 17.3 67.6 40.2Z" fill="url(#o)"></path><path d="m566 212.25-13.6 6.1s.5 7.8 8.8 13.7c7.2 4.2 23.1 9.6 22.9 11.5-.1 1.2-.3 20.7-.2 24.3 0 0 .3 1.9 2.4 2.4 1.5.4 2.5-.1 3.2-1.7l1.4-6.8c.7-5.2 2.7-20.5 2.9-21.9 1.1-9.5-30.3-19.5-27.8-27.6Z" fill="#11055B"></path><path d="m559.5 220.65-13.3-.4s-1.5 5.3 2.1 13.5c1.8 4.7 13.4 16.6 13.2 18.5-.1 1.2-3.5 21.8-3.4 25.4 0 0 .3 1.9 2.4 2.4 1.5.4 2.5-.1 3.2-1.7l1.9-5.5c1.5-4.7 5.9-20.8 6.1-22.1 1.9-8.6-13.3-21.8-12.2-30.1Z" fill="#11055B"></path><path d="M545.7 220.15s-.1 2.3 4.9 2.5c4.2.2 13-3.6 15.5-8.4l-.3-1.1s-2.6 2.6-5.5 4.1c-1.9 1-10 5.2-14.5 1.3l-.1 1.6Z" fill="#fff"></path><path d="M547 218.95v3.5l1.9 1 .1-4-2-.5ZM564.8 214.15v3l-1.6.9-.1-3.4 1.7-.5Z" fill="#11055B"></path><path opacity=".1" d="m557.8 289.45 39.9 26 26-18.7-39-22.9-26.9 15.6Z" fill="url(#p)"></path><path d="m559.2 292.55 2-1.2-.1-.8-1.9 1.3v.7Z" fill="#C2D3EB"></path><path d="m555.9 289.05-.1-2.3c-.1-1 .5-2 1.4-2.4l.7-.3c1.1-.6 2.4-.4 3.4.4 1.5 1.2 3.5 3.1 5.5 5.3.9 1 1.5 1.7 2 2.2.8.7 1.7 2 .8 2.6 0 0-1.8 1.1-3.3.4l-9.7-4.9c-.4-.2-.7-.6-.7-1Z" fill="#120667"></path><path d="M558 278.25h5.3l-1.8 6.4-.3.2c.2.7-.3.9-1.4 1.6-1.2.8-2.5.9-3 .2-.1-.1-.1-.3-.1-.5l1.3-7.9Z" fill="#5333ED"></path><path d="M558.5 287.25c.4.6 1.5.5 2.4-.1 1-.6 1.5-1.6 1.1-2.2-.4-.6-1.5-.5-2.4.1-1 .6-1.5 1.6-1.1 2.2Z" fill="#5333ED"></path><path d="M561.2 288.95h-.1c-.2-.1-.4-.3-.3-.6.2-.6.6-1.2 1.3-1.7.5-.4 1.2-.6 1.7-.6.3 0 .5.2.5.5s-.2.5-.5.5c-.4 0-.8.2-1.2.4-.6.4-.9.8-.9 1.1-.1.2-.3.4-.5.4Z" fill="#0C022F"></path><path d="M560.2 288.15c-.3 0-.5-.3-.5-.5.1-.7.6-1.4 1.4-1.9.5-.4 1.2-.6 1.7-.6.3 0 .5.2.5.5s-.2.5-.5.5c-.4 0-.8.2-1.2.4-.6.4-.9.9-1 1.2.1.2-.1.4-.4.4ZM562.4 289.95h-.1c-.2-.1-.4-.3-.3-.6.1-.6.6-1.2 1.2-1.6.5-.3 1.1-.5 1.6-.5.3 0 .5.2.5.5s-.2.5-.5.5-.7.2-1.1.4c-.4.3-.8.7-.9 1 0 .1-.2.3-.4.3Z" fill="#0C022F"></path><path d="M555.9 289.05s1.9 1.1 3.1 2c.3.3.7.5 1.1.7l6.1 3s.8.3 1.7.2c1.1-.1 2-1 2.1-1.2v.7s-1.1 1.1-2 1.1c-1 .1-1.9-.2-3.7-1.1-1.5-.8-5-2.5-5-2.5v.5l-3.3-1.7-.1-1.7Z" fill="#fff"></path><path d="M557.3 277.55c.2-1.1 1.3-2 2.8-2 1.9 0 4 1 4.3 2.5.1.4.1.8 0 1.1l-.1.3-.3 1.3c-.1 1.1-1.3 2-2.8 2-1.9 0-3.8-1.2-4.2-2.7-.1-.3-.1-.5 0-.8l.3-1.7Z" fill="#1B0971"></path><path d="M600.6 214.25s-10.3 3.1-14.8 1.2c-6.7-2.9-9.3-11.1-9.3-11.1l5.4-3.3s2.6 8 6.6 9.8c3.2 1.5 11.8.5 11.8.5l.3 2.9Z" fill="#B7835F"></path><path d="M598.7 206.45s3.2 6.2 2.4 9.4c-.8 3.1-2.2 5.2-2.2 5.2l-4.1-.1s3.4-4.7 3.3-6.4c-.1-1.2-1.1-5.3-2.1-6.7-1-1.4.3-2.4.3-2.4s1.4-.9 2.4 1Z" fill="#fff"></path><path d="m571.5 196.85 7.2-8.9s5.1 14 5.2 14.6c.3 1.1-.6 2.6-3.4 4.2-2.5 1.3-4.3.3-4.8-.6l-4.2-9.3Z" fill="#5333ED"></path><path d="M573.4 201.05s2-2.5 2.4-2.9c.5-.4 1 .7.2 1.5l-2.2 2.2-.4-.8Z" fill="#120667"></path><path d="M557.3 187.45c6.8-3.5 9.4-2.9 13.9-3.3 1.7-.1 4.4.7 4 .7 4.3 1.1 5.3 7.2 2.1 11.9 0 0-4.1 4.5-7.1 7.8-3.1 3.4-2.8 6.6-3.7 7.9-2.6 3.6-21.4 14.7-21.3 3.5 0-1.3-2.1-11.6-2.1-11.6s-1.2-5.6 1.8-9.1c0-.2 5.8-4.3 12.4-7.8Z" fill="#5333ED"></path><path d="M550.1 206.55c2.3-1.6 4.9-4.5 6.2-2 1.8 3.2 2.9 6.4 2.9 6.4-1.1 5.4-6.6 6.9-9.2 6.5-.9-.1-2-.5-2.4-1.3-1.4-2.8-1.4-3.3-2.5-6.2-2-5.8 5-3.4 5-3.4Z" fill="#120667"></path><path d="M566.5 192.25c-1.6 1.2-4.4 1-6.3-.5-1.9-1.4-2.1-3.6-.5-4.7s4.4-1 6.3.5c1.9 1.4 2.1 3.5.5 4.7Z" stroke="#DFE9F8" stroke-width="2.43" stroke-miterlimit="10" stroke-linecap="round"></path><path d="m559 189.15 3.4-7.4h8.7l-4.7 10.1c-1.1 2.2-7.5.3-7.4-2.7Z" fill="#B7835F"></path><path d="m568.1 188.05 2.3-5-8.6-.1-.9 2c.4 1.7 1.9 4.1 5.5 4 .5 0 .8-.1 1.3-.2" fill="#7C4E2E"></path><path d="M566.5 192.25c-1.6 1.2-4.4 1-6.3-.5-1.4-1.1-1.9-2.6-1.4-3.7" stroke="#DFE9F8" stroke-width="2.43" stroke-miterlimit="10" stroke-linecap="round"></path><path d="M574.6 178.15c.6.1 1.1.4 1.4.6l.3.3c.4.7-.2 1.8-1.4 2.5l-.3.2c-1.4 1-3.3.9-5.4-.3 0 0 4.9-3.4 5.4-3.3Z" fill="#5333ED"></path><path d="M559.1 182.55c-.2-1 .4-1.9 1.4-2.1h.1l.3-2c-.1-3.1 2.1-4.5 5.2-4.5 3.2-.1 5.8 1.1 5.9 4.2l.1 4.8c.1 4.3-2.2 5.1-5 5.1-2.8.1-5.1-1.7-6-4.1-.9 0-1.8-.5-2-1.4Z" fill="#B7835F"></path><path d="M562.1 182.55c.4.2.7 0 .7-.5v-2c0-.5-.3-1.1-.7-1.3-.4-.2-.7 0-.7.5v2c0 .5.3 1.1.7 1.3Z" fill="#5B3427"></path><path d="M566.1 172.55c2.5-.1 4.6 1.4 5.5 3.6l4.4 2.6c-.6-.4-1.6-.3-2.6.3-.2.1-.3.2-.5.3l-.1.1-2.5 2.2c-1.4 1-3.3.9-5.4-.3l-3.3-1.9-1-.5v-.6c-.1-3.1 2.4-5.7 5.5-5.8Z" fill="#1B0971"></path><path d="M560.6 180.45s.6.2.9.9l.5-.3-.1-1.5-1.3-.7v1.6Z" fill="#5B3427"></path><path d="m585 282.65 2-1.3-.1-.7-1.9 1.2v.8Z" fill="#C2D3EB"></path><path d="m581.7 279.05-.1-2.3c-.1-1 .5-2 1.4-2.4l.7-.3c1.1-.6 2.4-.4 3.4.4 1.5 1.2 3.5 3.1 5.5 5.3.9 1 1.5 1.7 2 2.2.8.7 1.7 2 .8 2.6 0 0-1.8 1.1-3.3.4l-9.7-4.9c-.4-.2-.7-.6-.7-1Z" fill="#5333ED"></path><path d="M583.8 268.25h5.3l-1.8 6.4-.3.2c.2.7-.3.9-1.4 1.6-1.2.8-2.5.9-3 .2-.1-.1-.1-.3-.1-.5l1.3-7.9Z" fill="#fff"></path><path d="M584.3 277.25c.4.6 1.5.5 2.4-.1 1-.6 1.5-1.6 1.1-2.2-.4-.6-1.5-.5-2.4.1-1 .7-1.5 1.7-1.1 2.2Z" fill="#5333ED"></path><path d="M587 278.95h-.1c-.2-.1-.4-.3-.3-.6.2-.6.6-1.2 1.3-1.7.5-.4 1.2-.6 1.7-.6.3 0 .5.2.5.5s-.2.5-.5.5c-.4 0-.8.2-1.2.4-.6.4-.9.8-.9 1.1-.1.3-.3.4-.5.4Z" fill="#0C022F"></path><path d="M586 278.15c-.3 0-.5-.3-.5-.5.1-.7.6-1.4 1.4-1.9.5-.4 1.2-.6 1.7-.6.3 0 .5.2.5.5s-.2.5-.5.5c-.4 0-.8.2-1.2.4-.6.4-.9.9-1 1.2.1.2-.1.4-.4.4ZM588.2 279.95h-.1c-.2-.1-.4-.3-.3-.6.1-.6.6-1.2 1.2-1.6.5-.3 1.1-.5 1.6-.5.3 0 .5.2.5.5s-.2.5-.5.5-.7.2-1.1.4c-.4.3-.8.7-.9 1 0 .2-.2.3-.4.3Z" fill="#0C022F"></path><path d="M581.7 279.05s1.9 1.1 3.1 2c.3.3.7.5 1.1.7l6.1 3s.8.3 1.7.2c1.1-.1 2-1 2.1-1.2v.7s-1.1 1.1-2 1.1c-1 .1-1.9-.2-3.7-1.1-1.5-.8-5-2.5-5-2.5v.5l-3.2-1.8-.2-1.6Z" fill="#fff"></path><path d="M583.1 267.55c.2-1.1 1.3-2 2.8-2 1.9 0 4 1 4.3 2.5.1.4.1.8 0 1.1l-.1.3-.4 1.3c-.1 1.1-1.3 2-2.8 2-1.9 0-3.8-1.2-4.2-2.7-.1-.3-.1-.5 0-.8l.4-1.7Z" fill="#1B0971"></path><path d="M590.9 227.65s-6 1.1-10.4-3.6c-2.3-2.5-1.7-7-1.1-9.3.2-.8 1-1.2 1.7-1 .6.2 1 .8.9 1.5-.2 1.6-.5 4.7.5 6.2 1.1 1.7 6.6 3.8 9.3 3.1 2.8-.6-.9 3.1-.9 3.1Z" fill="#fff"></path><path d="M556.3 218.65v3.6l-1.9 1-.1-4 2-.6Z" fill="#11055B"></path><path d="M602.9 212.25s-.2-2.6-.8-3.3c-.3-.3-1.6-1.4-1.6-1.4l-1.9-.8s0 1.2 1.4 1.6l.5 1.4s-2 1.6-.8 3.6l3.2-1.1Z" fill="#B7835F"></path><path d="m598.2 207.25-3 .5s.3.8 1.6.8h1.2l1.7.6-2.5-.2-2.3.6s.6.9 2.3.3l2.2.2h-2.2l-2 .3s.9 1.1 2.5.5l2.2.3h-1.7l-1.4 1.1c.8.3 1.7-.3 1.7-.3l1.2.2c-3 3.4.5 3.3.5 3.3s3.9-1.2 2.8-5c-.2-.6-1.9-1.9-1.9-1.9l-.9-.3-2-1ZM573.3 222.05s4.5 2.2 8.3 1.2c1.2-.3.6-1.1.6-1.1s.6 0 .9-.6c.3-.5-.1-1-.1-1s.8-.1.8-.8c0-.5-.4-.6-.4-.6s1 .3.8-.6c-.1-.6-1.5-.4-1.9-.4H579c-.6 0-.6-.1-.6-.4.1-.3.8-.6.9-1.5.1-.9-.3-1.2-.4-1-.3.1-1 1.7-1.8 1.8-.9.1-3.8 2.2-3.8 2.2s-1.1 2.3 0 2.8Z" fill="#B7835F"></path><path d="M554.9 208.25c.8 2.4 5.3 11.3 7.2 12.3 1.7.9 11.9-2 11.9-2l1.4 3.5s-12.1 8.3-17.2 4c-5.1-4.2-9.9-15.1-9.9-15.1l6.6-2.7Z" fill="#B7835F"></path><path d="M546.5 195.75c1.8-1.2 5.7.5 6.5 2.5 1 2.7 4.9 12.7 4.9 12.7-.9 4.1-5.4 5.4-7.4 5.1-.7-.1-1.5-.4-1.8-1-1.1-2.1-3.3-8.1-4.4-12.1-1.7-6 2.2-7.2 2.2-7.2Z" fill="#5333ED"></path><path d="M590.6 221.55c-18.4 8.7-20.5 25.1-20.5 25.1s-7.9 42.9-23.9 58.3l.5.5c6.3 1.5 12.9 2.3 19.7 2.3 35 0 64.9-21.4 77.5-51.8-6.7-16.8-19-32.4-19-32.4s-15.8-10.7-34.3-2Z" fill="url(#q)"></path><path opacity=".5" d="M598.1 252.65s6.5 18.7 9.1 36.5c0 0 12.3-6.6 19.7-16.3 0 0 0-16.8-4.3-34.7-.1 0-10.7 10.1-24.5 14.5Z" stroke="url(#r)" stroke-miterlimit="10"></path><path opacity=".2" d="M508.8 234.15c0-44.2 35.8-80 80-80 7.5 0 14.7 1 21.5 2.9-12.6-8.3-27.7-13.1-43.9-13.1-44.2 0-80 35.8-80 80 0 36.7 24.7 67.7 58.5 77.1-21.7-14.4-36.1-39-36.1-66.9Z" fill="#fff"></path><path d="M577.7 245.05c11.6 3.7 25.8-2.2 35.9-8.7 3.3-2.1 9.3-7.7 10.9-13.1-2.9-1.7-17.3-9.5-33.8-1.7-11.9 5.6-17 14.5-19.1 20 1.1 1.3 3 2.5 6.1 3.5Z" fill="url(#s)"></path><path clip-rule="evenodd" d="M606.6 176.95v8.5l7.2-4.1v-8.5l-7.2 4.1ZM616.4 171.45v8.4l7.2-4.1v-8.5l-7.2 4.2ZM626.2 165.95v8.5l7.2-4.1v-8.5l-7.2 4.1Z" stroke="#DFE9F8" stroke-miterlimit="10" stroke-linecap="round" stroke-linejoin="round"></path><path fill-rule="evenodd" clip-rule="evenodd" d="M520.8 309.05v19.2l-22.9-13.2v-19.2l22.9 13.2Z" fill="#DFE9F8"></path><path opacity=".7" fill-rule="evenodd" clip-rule="evenodd" d="M445.2 182.45v12.5l-14.8-8.5v-12.5l14.8 8.5Z" fill="#DFE9F8"></path><path opacity=".4" fill-rule="evenodd" clip-rule="evenodd" d="M425.7 229.75v28.1l-33.4-19.2v-28.2l33.4 19.3Z" fill="#DFE9F8"></path><path clip-rule="evenodd" d="M536.2 234.55v8.5l-7.2-4.1v-8.5l7.2 4.1ZM526.4 229.05v8.5l-7.2-4.1v-8.5l7.2 4.1ZM516.6 223.65v8.5l-7.2-4.2v-8.4l7.2 4.1Z" stroke="#DFE9F8" stroke-miterlimit="10" stroke-linecap="round" stroke-linejoin="round"></path><path d="M600.9 183.15c3.1-1.8 5.7-.3 5.7 3.3 0 3.6-2.6 8.1-5.7 9.9-3.1 1.8-5.7.3-5.7-3.3 0-3.7 2.6-8.1 5.7-9.9Z" stroke="#DFE9F8" stroke-miterlimit="10"></path><defs><linearGradient id="b" x1="355.634" y1="336.868" x2="383.128" y2="424.958" gradientUnits="userSpaceOnUse"><stop stop-color="#DFE9F8"></stop><stop offset="1" stop-color="#C2D3EB"></stop></linearGradient><linearGradient id="c" x1="193.294" y1="222.844" x2="339.265" y2="475.674" gradientUnits="userSpaceOnUse"><stop stop-color="#F3F3F6" stop-opacity="0"></stop><stop offset="1" stop-color="#DFE9F8"></stop></linearGradient><linearGradient id="d" x1="390.065" y1="456.285" x2="411.302" y2="493.069" gradientUnits="userSpaceOnUse"><stop stop-color="#5333ED" stop-opacity=".934"></stop><stop offset=".573" stop-color="#5333ED" stop-opacity="0"></stop></linearGradient><linearGradient id="e" x1="380.959" y1="435.505" x2="454.216" y2="483.801" gradientUnits="userSpaceOnUse"><stop stop-color="#fff"></stop><stop offset=".516" stop-color="#DFE9F8"></stop><stop offset="1" stop-color="#CFDDF1"></stop></linearGradient><linearGradient id="f" x1="406.585" y1="443.733" x2="436.487" y2="443.733" gradientUnits="userSpaceOnUse"><stop offset=".135" stop-color="#D3E0F3"></stop><stop offset="1" stop-color="#C2D3EB"></stop></linearGradient><linearGradient id="g" x1="388.83" y1="399.677" x2="436.221" y2="433.502" gradientUnits="userSpaceOnUse"><stop stop-color="#fff"></stop><stop offset=".516" stop-color="#DFE9F8"></stop><stop offset="1" stop-color="#CFDDF1"></stop></linearGradient><linearGradient id="i" x1="274.029" y1="144.496" x2="296.21" y2="215.563" gradientUnits="userSpaceOnUse"><stop stop-color="#DFE9F8"></stop><stop offset="1" stop-color="#C2D3EB"></stop></linearGradient><linearGradient id="j" x1="301.807" y1="240.836" x2="318.94" y2="270.511" gradientUnits="userSpaceOnUse"><stop stop-color="#5333ED" stop-opacity=".934"></stop><stop offset=".573" stop-color="#5333ED" stop-opacity="0"></stop></linearGradient><linearGradient id="k" x1="294.461" y1="224.072" x2="353.561" y2="263.034" gradientUnits="userSpaceOnUse"><stop stop-color="#fff"></stop><stop offset=".516" stop-color="#DFE9F8"></stop><stop offset="1" stop-color="#CFDDF1"></stop></linearGradient><linearGradient id="l" x1="315.011" y1="230.691" x2="339.355" y2="230.691" gradientUnits="userSpaceOnUse"><stop offset=".135" stop-color="#D3E0F3"></stop><stop offset="1" stop-color="#C2D3EB"></stop></linearGradient><linearGradient id="m" x1="300.811" y1="195.167" x2="339.044" y2="222.456" gradientUnits="userSpaceOnUse"><stop stop-color="#fff"></stop><stop offset=".516" stop-color="#DFE9F8"></stop><stop offset="1" stop-color="#CFDDF1"></stop></linearGradient><linearGradient id="o" x1="546.498" y1="156.669" x2="573.993" y2="244.759" gradientUnits="userSpaceOnUse"><stop stop-color="#DFE9F8"></stop><stop offset="1" stop-color="#C2D3EB"></stop></linearGradient><linearGradient id="p" x1="580.93" y1="276.086" x2="602.167" y2="312.87" gradientUnits="userSpaceOnUse"><stop stop-color="#5333ED" stop-opacity=".934"></stop><stop offset=".573" stop-color="#5333ED" stop-opacity="0"></stop></linearGradient><linearGradient id="q" x1="571.824" y1="255.306" x2="645.081" y2="303.602" gradientUnits="userSpaceOnUse"><stop stop-color="#fff"></stop><stop offset=".516" stop-color="#DFE9F8"></stop><stop offset="1" stop-color="#CFDDF1"></stop></linearGradient><linearGradient id="r" x1="597.45" y1="263.534" x2="627.352" y2="263.534" gradientUnits="userSpaceOnUse"><stop offset=".135" stop-color="#D3E0F3"></stop><stop offset="1" stop-color="#C2D3EB"></stop></linearGradient><linearGradient id="s" x1="579.695" y1="219.478" x2="627.086" y2="253.303" gradientUnits="userSpaceOnUse"><stop stop-color="#fff"></stop><stop offset=".516" stop-color="#DFE9F8"></stop><stop offset="1" stop-color="#CFDDF1"></stop></linearGradient><radialGradient id="a" cx="0" cy="0" r="1" gradientUnits="userSpaceOnUse" gradientTransform="translate(350.435 386.59) scale(117.827)"><stop offset=".327" stop-color="#ECF2FB"></stop><stop offset=".538" stop-color="#E6EDF9"></stop><stop offset=".829" stop-color="#D4E0F2"></stop><stop offset="1" stop-color="#C6D6ED"></stop></radialGradient><radialGradient id="h" cx="0" cy="0" r="1" gradientUnits="userSpaceOnUse" gradientTransform="translate(269.835 184.609) scale(95.0577)"><stop offset=".327" stop-color="#ECF2FB"></stop><stop offset=".538" stop-color="#E6EDF9"></stop><stop offset=".829" stop-color="#D4E0F2"></stop><stop offset="1" stop-color="#C6D6ED"></stop></radialGradient><radialGradient id="n" cx="0" cy="0" r="1" gradientUnits="userSpaceOnUse" gradientTransform="translate(541.3 206.391) scale(117.827)"><stop offset=".327" stop-color="#ECF2FB"></stop><stop offset=".538" stop-color="#E6EDF9"></stop><stop offset=".829" stop-color="#D4E0F2"></stop><stop offset="1" stop-color="#C6D6ED"></stop></radialGradient></defs></svg> 