<?xml version="1.0" encoding="UTF-8"?> <svg xmlns="http://www.w3.org/2000/svg" viewBox="0 0 280 245"><defs></defs><style>.st0{fill:#c2d3eb}.st2{opacity:.8}.st3,.st4,.st5{fill-rule:evenodd;clip-rule:evenodd;fill:#dfe9f8}.st4,.st5{fill:#fff}.st5{fill:#f3f3f6}.st10{fill:#5333ed}.st11{fill:#120667}.st12{fill:#724c3b}.st13{fill:#4e2d23}.st15{fill:#351812}.st16,.st17,.st18{fill-rule:evenodd;clip-rule:evenodd;fill:#c2d3eb}.st17,.st18{fill:#43414e}.st18{opacity:.2;fill:#fff}</style><g id="scr-2"><path class="st0" d="M196.9 94.7V180l-90.6-52.4V42.2z"></path><path fill="#dfe9f8" d="M213.4 104.2v85.4l-16.5-9.6V94.7z"></path></g><g id="rectanlges"><g class="st2"><path class="st3" d="M130.7 71l13.2 7.6v9.7l-13.2-7.6z"></path><path class="st4" d="M115.2 62.1l13.3 7.6v9.7l-13.3-7.7z"></path><path class="st3" d="M100 53.3l12.9 7.5v9.7L100 63z"></path></g><g class="st2"><path class="st3" d="M130.7 88.5l13.2 7.6v9.7l-13.2-7.6zM115.2 79.6l13.3 7.6v9.7l-13.3-7.6z"></path><path class="st5" d="M100 70.8l12.9 7.5V88L100 80.5z"></path></g></g><g id="diagram"><path class="st3" d="M162.4 88.3c4.8.1 9.3 2.7 12.8 5.8 7 6.2 11.7 15.3 11.9 24.6.1 4.6-1.2 9.4-4.8 12.4-2.6 2.2-6.3 3-9.8 2.5-11.1-1.8-19.3-13.7-21.8-24.1-.5-2.1-.8-4.3-.8-6.5v-.2c0-5 1.8-10.2 6.2-12.9 1.8-1.1 3.9-1.6 6-1.7.2.1.2.1.3.1z" opacity=".7"></path><path class="st5" d="M168.6 111l-18.6-8v-.2c0-5 1.8-10.2 6.2-12.9 1.8-1.1 3.9-1.6 6-1.7h.2"></path><path class="st4" d="M162.4 88.3c4.8.1 9.3 2.7 12.8 5.8l-6.7 17-6.1-22.8z"></path></g><g id="scr-1"><path opacity=".8" fill="#dfe9f8" d="M180.3 157.5v35.9L86 139v-35.9z"></path><path opacity=".7" fill="#c2d3eb" d="M121.3 156.8l11.8-1.4 8.5 9.6 20.6.8 18.1 14.1v13.5L86 139v-16.9l16.2 9z"></path></g><g id="legs"><linearGradient id="SVGID_1_" gradientUnits="userSpaceOnUse" x1="444.176" y1="222.173" x2="416.189" y2="198.114" gradientTransform="translate(-318.575)"><stop offset=".103" stop-color="#c2d3eb" stop-opacity="0"></stop><stop offset="1" stop-color="#c2d3eb"></stop></linearGradient><path opacity=".3" fill="url(#SVGID_1_)" d="M132.3 213.7l-36.6-23.3-14.1 8.2 36.6 23.3z"></path><path class="st0" d="M105.5 197.4c.3.1.5-.2.8.2.1.2.4.6.4 1.2 0 .8-.2 1.2-.7 1.9-.6.8-4.1 3.4-6.2 3.9 0 0-.7.2-1.1.5-.3.3-.9.7-1.5.9l-.4-1.1 7.2-4.6 1.6-1.7-.1-1.2z"></path><path class="st0" d="M94.1 206c.4.7 1.8.7 3 0s1.9-1.9 1.5-2.6-1.8-.7-3 0-1.9 1.9-1.5 2.6"></path><path class="st10" d="M106 197.8c-.8-1.2-3.4.7-4.2.8-3 .4-4.4.7-6.1 1.3-1.1.3-1.8 1.3-1.9 2.4 0 0-.1.4-.1.7 0 .4.3 1.3.2 1.9 0 .1 0 .2.1.4.3.4 1 .5 1.7.3 1.7-.6 5.9-2.7 6.9-3.3 1.1-.7 2.4-1.7 2.8-2.3.5-.6 1.1-1.5.6-2.2"></path><path class="st11" d="M104.7 198.9s-.1 0-.1-.1c-.6-.6-1.6-.6-1.6-.6-.1 0-.2-.1-.2-.2s.1-.2.2-.2 1.1 0 1.8.7c.1.1.1.2 0 .2l-.1.2zM103.8 199.3s-.1 0-.1-.1c-.6-.6-1.6-.6-1.6-.6-.1 0-.2-.1-.2-.2s.1-.2.2-.2 1.1 0 1.8.7c.1.1.1.2 0 .2 0 .2 0 .2-.1.2zM102.5 199.5s-.1 0-.1-.1c-.6-.6-1.6-.6-1.6-.6-.1 0-.2-.1-.2-.2s.1-.2.2-.2c0 0 1.1 0 1.8.7.1.1.1.2 0 .2 0 .2 0 .2-.1.2zM101.2 199.7s-.1 0-.1-.1c-.7-.7-1.6-.6-1.6-.6-.1 0-.2-.1-.2-.2s.1-.2.2-.2 1.1 0 1.8.7c.1.1.1.2 0 .2 0 .2 0 .2-.1.2zM99.9 200s-.1 0-.1-.1c-.6-.6-1.6-.6-1.6-.6-.1 0-.2-.1-.2-.2s.1-.2.2-.2 1.1 0 1.8.7c.1.1.1.2 0 .2l-.1.2z"></path><path class="st0" d="M92.4 189.7c.3.1.5-.2.8.2.1.2.4.6.4 1.2 0 .8-.2 1.2-.7 1.9-.6.8-4.1 3.4-6.2 3.9 0 0-.7.2-1.1.5-.3.3-.9.7-1.5.9l-.4-1.1 7.2-4.6 1.6-1.7-.1-1.2z"></path><path class="st0" d="M81 198.3c.4.7 1.8.7 3 0s1.9-1.9 1.5-2.6c-.4-.7-1.8-.7-3 0s-1.9 1.9-1.5 2.6"></path><path class="st10" d="M92.9 190.1c-.8-1.2-3.4.7-4.2.8-3 .4-4.4.7-6.1 1.3-1.1.3-1.8 1.3-1.9 2.4 0 0-.1.4-.1.7 0 .4.3 1.3.2 1.9 0 .1 0 .2.1.4.3.4 1 .5 1.7.3 1.7-.6 5.9-2.7 6.9-3.3 1.1-.7 2.4-1.7 2.8-2.3.5-.6 1.1-1.4.6-2.2"></path><path class="st11" d="M91.5 191.2s-.1 0-.1-.1c-.6-.6-1.6-.6-1.6-.6-.1 0-.2-.1-.2-.2s.1-.2.2-.2 1.1 0 1.8.7c.1.1.1.2 0 .2 0 .2 0 .2-.1.2zM90.7 191.6s-.1 0-.1-.1c-.7-.5-1.6-.5-1.6-.5-.1 0-.2-.1-.2-.2s.1-.2.2-.2 1.1 0 1.8.7c.1.1.1.2 0 .2 0 .1-.1.1-.1.1zM89.4 191.9s-.1 0-.1-.1c-.6-.6-1.6-.6-1.6-.6-.1 0-.2-.1-.2-.2s.1-.2.2-.2c0 0 1.1 0 1.8.7.1.1.1.2 0 .2 0 .2 0 .2-.1.2zM88.1 192.1s-.1 0-.1-.1c-.6-.6-1.6-.6-1.6-.6-.1 0-.2-.1-.2-.2s.1-.2.2-.2 1.1 0 1.8.7c.1.1.1.2 0 .2 0 .2-.1.2-.1.2zM86.7 192.3s-.1 0-.1-.1c-.6-.6-1.6-.6-1.6-.6-.1 0-.2-.1-.2-.2s.1-.2.2-.2 1.1 0 1.8.7c.1.1.1.2 0 .2 0 .2 0 .2-.1.2z"></path><path class="st12" d="M85.6 185.4l-4.2-.6-.4 8.8v.2c0 .1 0 .2.1.3.3.6 1.4.6 2.4 0 .8-.5 1.3-1.2 1.3-1.8l.8-6.9zM98.8 193.1l-4.2-.6-.4 8.8v.2c0 .1 0 .2.1.3.3.6 1.4.6 2.4 0 .8-.5 1.3-1.2 1.3-1.8l.8-6.9z"></path><path class="st13" d="M85.6 186.1c-.3-.2-.6-.5-.9-.7-.1-.1-.2-.1-.3-.1l-2.9-.4-.2 4.4c.4.4.8.8 1.4 1.1.8.5 1.6.7 2.4.7l.5-5zM98.7 193.8c-.2-.3-.5-.6-.8-.8l-3.3-.5-.2 4.4c.2.2.4.3.7.5 1.1.7 2.3.9 3.1.6l.5-4.2z"></path><path class="st11" d="M104 140.1c0-1.7-.1-4.3-.1-5.9 0-1.6.1-2.5-.1-3.9h.1v-5.6l-1.4-1-6.3-4.8s-9.2-1.8-9.4 1.9c-1.4 2-4.1 6.2-4.7 10-1.3 7.6 1.3 26.4 1.4 28.5.1 2.2-2 21.7-2.3 24.4-.2.1-.3.2-.4.4-.2.3-.2.6-.1 1v1.2c0 .9.8 2.1 2.2 2.8 1.7 1 3.5 1 4 0 .1-.1.1-.3.1-.4v-.1-1.5c0-.3-.1-.6-.2-.9 1.3-8.9 3.8-18.5 4.6-22.8.6-3.1.1-18.9.1-18.9 0 .5 4.5 17.4 4.7 21.9.1 2.1-2.1 20.4-2.6 24.4l-.3.3c-.1.2-.2.5-.2.8v1.3c0 .9.8 2.1 2.2 2.9 1.7 1 3.5 1 4 0 .1-.2.1-.4.1-.6V194c0-.2 0-.3-.1-.5 2.4-8.8 5-20.5 5.4-23.2.6-5.9-.5-23.9-.7-30.2z"></path><path d="M91.3 144.3s-2.3-5.9-3.1-10.1c0 0 .5 7.3 3.1 12.1v-2z" fill="#090442"></path></g><g id="arm"><path class="st15" d="M142.7 118.1s1.6-.7 2.2-1.4c1.4-1.5 2.3-1.7 2.2-1.1-.1 1-1 1.9-2.1 2.9-1 .9-1.6 4-3.5 5.5-2.7 2.2-3.1-1-2.2-2 1.1-1.2 3.4-3.9 3.4-3.9z"></path><path class="st16" d="M153.8 102.7zM148.4 112.3z"></path><path class="st17" d="M147.5 111.7l-5.8 10.1c-.1.1 0 .2 0 .3l.1.1c.2.2.5.3.7.3.1 0 .1-.1.2-.1l4.4-7.5 1.5-2.6-1.1-.6z"></path><path class="st17" d="M153.8 102.8c-.2-.1-.3-.2-.5-.2.7.6 1 1.7 1 2.6 0 .5-.1 1-.2 1.5-.6 2.3-2.4 5-4.9 5.4-.5.1-.9 0-1.4-.1h.1c.6.5 1.4.7 2.2.6 2.5-.4 4.3-3.1 4.9-5.4.1-.5.2-1 .2-1.5 0-1.1-.4-2.3-1.4-2.9z"></path><path class="st17" d="M147.9 112c-.8-.7-1.1-1.8-1.1-2.8 0-2.1 1.1-4.1 2.7-5.5.8-.7 1.8-1.3 2.9-1.3h.1c.4 0 .9.1 1.3.3l-.9-.5c-.4-.2-.8-.3-1.3-.3h-.1c-1.1 0-2.1.6-2.9 1.3-1.6 1.4-2.6 3.4-2.7 5.5 0 1 .3 2.1 1.1 2.8l.2.2c.1.1.2.1.3.2l.6.3c0-.1-.1-.1-.2-.2z"></path><path class="st18" d="M153.2 109l-.1.1s0 .1-.1.1c-.1.1-.1.2-.2.3l-.1.1c-.1.1-.1.2-.2.2l-.1.1c-.1.1-.1.2-.2.2l-.1.1c-.1.1-.1.2-.2.2l-.1.1c-.1.1-.2.1-.2.2l-3.3-7.4.2-.2.2-.2c.4-.4 1-.8 1.5-1l3 7.1zM147.6 104.3l3.1 7.2c-.3.2-.6.3-.9.4l-2.9-6.6c.2-.3.5-.7.7-1z"></path><path class="st12" d="M142.6 120.7l-.4 1.2c-.4 1.4-1.7 3-2.1 3.1l-6.6 10.3c-1.4 2.1-4.4 2.5-6.2.7l-2.4-2.3 12.7-11.7.7-.8 5.4-6.6 3.1-1 1.5 2.1c.1.1 0 .3-.1.3-1.2.3-1.9-1.1-1.9-1.1l-1.9.8 1.6-.8c.1 0 .2 0 .3.2l.9 1.6c.3.6.2.9-.3.7-.8-.3-1.1-1.4-1.1-1.4-.6.5-1.2.8-1.2.8l1.9.5c.1 0 .2.2.1.3l-.7 1.9c0 .1-.2.1-.3 0-.1-.3-.2-.7-.1-1.3v-.2l-1.3-.3 1.4.7-.8 2.6c0 .1-.1.1-.2.1-.3-.3-.5-1-.1-2h-1.2l-.7 1.6z"></path></g><g id="head"><path class="st12" d="M122.2 96.6c-.1 0-2.1 2.6-4.1 5.1l-3.9-2.1-3.5 4.9c-.6.7-.6 2.2 0 3.6.8 1.7 2.2 2.8 3.2 2.3.2-.1.3-.2.4-.4l2.2-3 1.7.6c1.1.4 2.3.1 3.2-.7l5.5-7s0-6.8-4.7-3.3z"></path><path class="st15" d="M125.9 95c-2.8-4-8.8-5.4-11.5 1.1-.5 1.1-.6 3.4-1.2 5-.1.3.6 2 .8 2.1 3.2 2.6 5.5 1.2 6.6 0-.1-.2-.1-.4.1-.6.3-.4 0-1.3.3-2.1.1-.3.5-.6 1.1-.7.7-.1 1.2.2 1.3.5v.1l-.5 1.7c.9-.5 1.5-1.9 1.9-2.6.8-1.4 2.2-.5 2.2.4 1.2.2 1.1-1.7-1.1-4.9z"></path></g><g id="u-body"><path class="st10" d="M114.9 105.6v-.1zM100.1 100.5c2-1.4 5.1-2.9 8.5.1 0 0 10.7 9.6 12.3 13.2 0 0 1.6 3-1.1 5.3 0 0-11.7 8.4-12.4 8.8-3.3 1.7-9.7 2.8-16-2.6 0 0-5.9-5.2-3.9-8.8 1.8-3.5 5.1-9.8 12.6-16z"></path><path class="st10" d="M120.9 113.9l10.3 14.1 1.4.8 1.1 1.5s.5 4.1-5.8 6.4c0 0-1.7 0-1.9-1.2-.1-.6-.5-.3-1.3-1.5-.8-1.1-1.2.3-1.9-1.6s-9.1-10.3-9.1-10.3l7.2-8.2z"></path></g></svg> 