<?xml version="1.0" encoding="UTF-8"?> <svg xmlns="http://www.w3.org/2000/svg" viewBox="0 0 280 245"><defs></defs><style>.st1{fill:#dfe9f8}.st5{fill:#fff}.st8{fill:#5333ed}.st9{fill:#b6825e}.st10{fill:#120667}.st11{fill:#e2e3f1}.st12{fill:#9d684d}.st15{display:inline;opacity:.5;fill:none;stroke:#c2d3eb;stroke-linecap:round;stroke-linejoin:round;stroke-miterlimit:10}</style><path class="st1" d="M148.3 123.8L59 175.3c-.7.4-.7 1.4 0 1.8l76.3 44.1c.7.4 1.6.4 2.4 0l89.2-51.6c.7-.4.7-1.4 0-1.8l-76.2-44c-.7-.5-1.6-.5-2.4 0z" opacity=".3" id="sdw-2"></path><path class="st1" d="M148.3 109.2L59 160.7c-.7.4-.7 1.4 0 1.8l76.3 44.1c.7.4 1.6.4 2.4 0l89.2-51.6c.7-.4.7-1.4 0-1.8l-76.2-44c-.7-.5-1.6-.5-2.4 0z" opacity=".5" id="sdw-1"></path><g id="Layer_1"><linearGradient id="SVGID_1_" gradientUnits="userSpaceOnUse" x1="60.524" y1="212.437" x2="103.19" y2="151.103"><stop offset="0" stop-color="#c2d3eb" stop-opacity="0"></stop><stop offset="1" stop-color="#c2d3eb"></stop></linearGradient><path d="M81.3 136.4l-77 43.4 79.5 47.4 77-45.6-78.2-45.2c-.4-.2-.9-.2-1.3 0z" opacity=".4" fill="url(#SVGID_1_)"></path><path d="M148.3 97.6L59 149.2c-.7.4-.7 1.4 0 1.8l76.3 44.1c.7.4 1.6.4 2.4 0l89.2-51.6c.7-.4.7-1.4 0-1.8l-76.2-44c-.7-.5-1.6-.5-2.4-.1z" fill="#c2d3eb"></path><path class="st1" d="M207.2 136l-16.4-9.4h-7.3L167 118v-5.2l-11-6.3-12.1-.1-14.3 8.3h-4.2L93 133.5v2.4l-13.6 7.8V155l10 5.8h8.7l16.6 9.6v4.8l13.7 7.8h15.9l10.2-5.9.2-.1h6.9l5.2-2.9 27.3-15.8v-4.2l13.1-7.6z"></path></g><g id="lines-2"><path class="st5" d="M128.9 135.7c-.7 0-1.4-.2-1.9-.4-.6-.4-1-.9-1-1.4 0-1.1 1.3-2 3-2s3 .8 3.1 1.9c0 .6-.3 1.1-.9 1.5-.5.3-1.3.5-2 .5l-.3-.1zm.1-2.9s-.1 0 0 0c-1.2 0-2.1.6-2.1 1 0 .2.2.4.5.6.4.2.9.3 1.5.3s1.1-.2 1.5-.4c.3-.2.5-.4.5-.6 0-.5-.8-.9-1.9-.9zM135.7 139.6c-1.6 0-2.9-.8-2.9-1.9 0-1.1 1.3-2 3-2 .8 0 1.5.1 2 .4.6.4 1 .9 1 1.4 0 1.1-1.3 2-3 2 0 .1-.1.1-.1.1zm.1-2.9c-1.2 0-2.1.5-2.1 1s.9.9 2 .9 2-.5 2-1c0-.2-.2-.4-.5-.6-.3-.2-.8-.3-1.4-.3z"></path><ellipse transform="rotate(-1.392 142.612 141.593)" cx="142.6" cy="141.6" rx="2.5" ry="1.4" fill="none" stroke="#fff" stroke-linecap="round" stroke-linejoin="round" stroke-miterlimit="10"></ellipse><path class="st5" d="M127.3 134.4c-.1-.2-.4-.3-.7-.2l-41 24.3 1 .6 40.5-24c.3-.1.3-.4.2-.7zM134.2 138.3c-.1-.2-.5-.3-.7-.2l-35.9 22.4 1 .6L134 139c.3-.1.4-.5.2-.7zM141.3 142.4c-.1-.2-.5-.3-.7-.2l-36 22.3 1 .6 35.5-22c.2-.2.3-.5.2-.7z"></path><g><path class="st5" d="M188.2 136.7c-1.6 0-2.9-.8-2.9-1.9 0-.6.3-1.1.9-1.5.5-.3 1.3-.5 2-.5s1.5.1 2 .4c.6.4 1 .9 1 1.4 0 1.1-1.3 2-3 2 .1.1.1.1 0 .1zm.2-2.9s-.1 0 0 0c-.7 0-1.2.2-1.6.4-.3.2-.5.4-.5.6 0 .4.9.9 2 .9s2-.5 2-1c0-.2-.2-.4-.5-.6-.4-.1-.9-.3-1.4-.3z"></path><path class="st5" d="M186.9 135.6c-.1-.2-.4-.3-.7-.2l-28.6 16.1c-.2.1-.3.3-.3.4v7l-34.8 20.8 1 .6 34.6-20.6c.2-.1.2-.3.2-.4v-7l28.4-16c.2-.2.3-.5.2-.7z"></path></g><g><path class="st5" d="M158.4 166.4c-1.6 0-2.9-.8-2.9-1.9 0-1.1 1.3-2 3-2s3 .8 3.1 1.9c0 .6-.3 1.1-.9 1.5-.5.3-1.3.5-2 .5h-.3zm.2-2.9c-.1 0-.1 0 0 0-1.2 0-2.1.5-2.1 1 0 .4.9.9 2 .9.6 0 1.1-.2 1.5-.4.3-.2.5-.4.5-.6 0-.4-.8-.9-1.9-.9z"></path></g><g><path class="st5" d="M149.9 114.5c-1.6 0-2.9-.8-2.9-1.9 0-.6.3-1.1.9-1.5.5-.3 1.3-.5 2-.5 1 0 2 .3 2.5.8.3.3.5.7.5 1.1 0 .6-.3 1.1-.9 1.5-.5.3-1.3.5-2 .5h-.1zm.1-2.9c-.7 0-1.2.2-1.6.4-.3.2-.5.4-.5.6 0 .4.9.9 2 .9.6 0 1.1-.2 1.5-.4.3-.2.5-.4.5-.6 0-.1-.1-.2-.2-.4-.3-.3-.9-.5-1.7-.5z"></path><path class="st5" d="M79.4 147.1l32.2-18.8c.1 0 .1-.1.2-.1l12.7-1 23.3-13.7c.2-.1.5-.1.7.2.1.2.1.5-.2.7l-23.4 13.8c-.1 0-.1.1-.2.1l-12.7 1-32.6 19v-1.2z"></path></g><path class="st5" d="M157.1 164.3c-.1-.2-.4-.3-.7-.2l-29 17.4 1 .6 28.5-17.1c.2-.2.3-.5.2-.7z"></path></g><g id="legs"><path opacity=".2" fill="#c2d3eb" d="M189.7 151.2l-27.8-15.8-3.8.6-17.5 10.5-2.8 2.9 27.8 15.8z"></path><g id="Layer_13"><path class="st8" d="M137.6 147.5l-.1-2.1c0-.9.5-1.8 1.3-2.2l.6-.3c1-.5 2.2-.3 3.1.4 1.4 1.2 3.1 2.9 4.9 5 .8.9 1.4 1.6 1.8 2.1.7.7 1.5 1.9.7 2.4 0 0-1.7 1-3 .3l-8.8-4.6c-.2-.2-.5-.6-.5-1"></path><path class="st9" d="M139.8 137.6l4.9.1-1.7 5.8-.3.2c.2.7-.3.8-1.3 1.4-1.1.7-2.3.7-2.8.1-.1-.1-.1-.3-.1-.4l1.3-7.2z"></path><path class="st8" d="M140 145.9c.3.5 1.3.5 2.2-.1.9-.6 1.4-1.5 1-2-.3-.5-1.3-.5-2.2.1-.9.6-1.3 1.5-1 2"></path><path class="st10" d="M142.5 147.6h-.1c-.2-.1-.4-.3-.3-.5.2-.5.6-1.1 1.3-1.5.5-.3 1.1-.5 1.6-.5.2 0 .4.2.4.4s-.2.4-.4.4c-.3 0-.7.1-1.1.4-.5.3-.8.7-.9 1-.1.1-.3.3-.5.3z"></path><path class="st10" d="M141.6 146.8c-.3 0-.4-.2-.4-.5.1-.6.6-1.3 1.3-1.7.5-.3 1.1-.5 1.6-.5.2 0 .4.2.4.4s-.2.4-.4.4c-.3 0-.7.1-1.1.4-.6.4-.9.8-.9 1.1-.1.2-.3.4-.5.4zM143.6 148.5h-.1c-.2-.1-.4-.3-.3-.5.1-.5.6-1 1.2-1.4.5-.3 1-.5 1.5-.5.2 0 .4.2.4.4s-.2.4-.4.4c-.3 0-.7.1-1 .3-.4.3-.7.6-.8.9-.1.3-.3.4-.5.4z"></path><path class="st5" d="M137.6 147.5s1.7 1 2.8 1.9c.3.3.7.5 1 .7l5.5 2.9s.7.3 1.5.2c1.1-.1 1.8-.9 1.9-1v.7s-1 1-1.9 1c-.9.1-1.8-.2-3.4-1.1-1.4-.7-4.5-2.4-4.5-2.4v.5l-2.9-1.8v-1.6z"></path><g><path class="st11" d="M139.1 137c.2-1 1.2-1.8 2.7-1.8 1.8 0 3.6 1 4 2.4.1.3.1.8 0 1.1l-.1.3-.4 1.1c-.2 1-1.2 1.8-2.6 1.8-1.8 0-3.5-1.1-3.8-2.5-.1-.3-.1-.5 0-.7l.2-1.7z"></path></g><g><path class="st8" d="M158.1 134.9l-.1-2.1c0-.9.5-1.8 1.3-2.2l.6-.3c1-.5 2.2-.3 3.1.4 1.4 1.2 3.1 2.9 4.9 5 .8.9 1.4 1.6 1.8 2.1.7.7 1.5 1.9.7 2.4 0 0-1.7 1-3 .3l-8.8-4.6c-.3-.3-.5-.7-.5-1"></path><path class="st9" d="M160.2 125l4.9.1-1.7 5.8-.3.2c.2.7-.3.8-1.3 1.4-1.1.7-2.3.7-2.8.1-.1-.1-.1-.3-.1-.4l1.3-7.2z"></path><path class="st8" d="M160.5 133.3c.3.5 1.3.5 2.2-.1.9-.6 1.4-1.5 1-2-.3-.5-1.3-.5-2.2.1-.9.6-1.4 1.4-1 2"></path><path class="st10" d="M163 134.9h-.1c-.2-.1-.4-.3-.3-.5.2-.5.6-1.1 1.3-1.5.5-.3 1.1-.5 1.6-.5.2 0 .4.2.4.4s-.2.4-.4.4c-.3 0-.7.1-1.1.4-.5.3-.8.7-.9 1-.2.2-.4.3-.5.3z"></path><path class="st10" d="M162.1 134.1s-.1 0 0 0c-.3 0-.4-.2-.4-.5.1-.6.6-1.3 1.3-1.7.5-.3 1.1-.5 1.6-.5.2 0 .4.2.4.4s-.2.4-.4.4c-.3 0-.7.1-1.1.4-.6.4-.9.8-.9 1.1-.1.3-.3.4-.5.4zM164 135.8h-.1c-.2-.1-.4-.3-.3-.5.1-.5.6-1 1.2-1.4.5-.3 1-.5 1.5-.5.2 0 .4.2.4.4s-.2.4-.4.4c-.3 0-.7.1-1 .3-.4.3-.7.6-.8.9-.1.3-.3.4-.5.4z"></path><path class="st5" d="M158.1 134.9s1.7 1 2.8 1.9c.3.3.7.5 1 .7l5.5 2.9s.7.3 1.5.2c1.1-.1 1.8-.9 1.9-1v.7s-1 1-1.9 1c-.9.1-1.8-.2-3.4-1.1-1.4-.7-4.5-2.4-4.5-2.4v.5l-2.9-1.8v-1.6z"></path><g><path class="st11" d="M159.5 124.3c.2-1 1.2-1.8 2.7-1.8 1.8 0 3.6 1 4 2.4.1.3.1.8 0 1.1l-.1.3-.4 1.1c-.2 1-1.2 1.8-2.6 1.8-1.8 0-3.5-1.1-3.8-2.5-.1-.3-.1-.5 0-.7l.2-1.7z"></path></g><path class="st8" d="M146 91.6l-11.4 1.8s-.1.3-.2.8l-5.5-.3s-.8.3-1.2 2.2c-.9 3.6-2.2 8.6 1.7 12.2 5 5.2 16.2 14.1 16.2 14.1s-4.6 10.9-5.7 14.8c0 0 .3 1.7 2.2 2.3 1.4.4 2.3 0 2.9-1.5 0 0 9.6-14.5 9.7-15.8.5-3.4-8.8-10-12.9-17.2 7.6.9 23.8.9 23.8.9-.1 1.1-5.3 15.2-5.2 18.6 0 0 .3 1.7 2.2 2.3 1.4.4 2.3 0 2.9-1.5l2.4-4.4c1.7-3.5 6.7-15.6 6.9-16.8 1.2-8.7-32.7-6.8-28.8-12.5z"></path></g><path class="st10" d="M128.6 94.2s-.4 2 4.1 3c3.8.8 12.4-1.7 13.6-6 0 0-2.3 1.3-4.9 2-1.9.5-9 3.7-12.5-.5l-.3 1.5z"></path></g></g><g id="u-body"><path class="st8" d="M144 68.5c6.4-2 8.6-1.1 12.5-.7 1.5.1 3.7 1.3 3.4 1.2 3.6 1.6 3.4 6.5-.1 10 0 0-5.4 4.5-8.4 6.3-3.5 2.1-3.1 4.4-4.1 5.3-4.4 6-21.4 8.8-19.5-1 .2-1.1 1.3-8.8 1.3-8.8s-.2-5 3-7.6c0 0 5.6-2.7 11.9-4.7z"></path><path class="st9" d="M101.4 89l8.6 1c8.6 1.3 16.5-5.2 17.9-6.1l-4.2-4.5c-1.1.9-7.2 5.6-12.2 6l-11.2.9"></path><path class="st12" d="M100.4 86.2l-6.8-1.1-4.2-.1s.3 1 3.8 1l3.2.8-4.3-.4-3.1 1.3s.5.8 3.1-.4l2.4.4-2.1.5-2.1 1.7s.3.6 1.3 0c0 0 .4.4 1-.1l.6-.4 2.8-.2s3 1.1 5.3-.2"></path><path class="st9" d="M100.5 86.2l-5-.2-3.5 1.2s.9.9 3.1.1c0 0 .3-.2.8.1.5.3 1.7 2.2 5.6 1.7l-1-2.9z"></path><path class="st8" d="M135.3 74c1.4 1.3 1 6-.5 7.1-2.1 1.4-9.7 7.1-9.7 7.1-5.1-.9-5.8-3.4-6-5.2-.1-.6 0-1.4.4-1.8 1.6-1.4 6.2-4.6 9.3-6.5 6.1-3.7 6.5-.7 6.5-.7z"></path><g><path class="st12" d="M186.4 74.8c1.1-.7 2.5-1.7 3.6-2.3 1.1-.6 1.7-1.1 2.6-1.6s1.9-.8 2.8-1.3c-.2 1-1.5 1.4-2.3 1.8-.5.5-1.1 1-1.7 1.4.8-.3 1.3-.9 2.2-1.2.9-.3 2.1-.5 3.1-.7-.3.9-1.9 1.2-2.7 1.4-.7.5-1.3.9-2 1.4.6-.2 1.2-.5 1.8-.7.8.1 1.7.2 2.5.3-.4.7-1.6.4-2.2.3-.6.4-1.1.7-1.7 1 .5-.1 1-.3 1.5-.4l1.8.3c-.2.5-1.3.4-1.7.4-.9.4-1 .4-2.1 1-1 .6-3 1.7-4.4 1.4-.3-1-.7-1.8-1.1-2.5z"></path><path class="st9" d="M187.5 77.1c-3.5 1.6-8.5 5-11.9 5.4-5.1.6-8.5-1.1-12.6-3.1.7-1.8 1.2-3.5 1.9-5.2 3.5 1.7 6.6 3.8 10.8 3.7 3.4-.1 7.5-2.3 10.9-3.1.3.7.7 1.5.9 2.3z"></path><path class="st8" d="M158.6 78.7c.6-3.1 1.1-6.2 1.8-9.3 1.5 1.3 5.7 3.7 6.8 4.7 2.1 1.8.6 3.2.1 4.8-.4 1.4-2.4 2.7-3.7 2.2-1.9-.7-3.3-1.6-5-2.4z"></path><path class="st10" d="M159.7 79.2c.9-.6 1.7-1.6 2.7-2 .9-.4.3 1.1-.1 1.3-.4.3-1.2.8-1.6 1.1-.4-.1-.7-.2-1-.4z"></path><path class="st9" d="M186.4 74.8c1.2-.8 2.4-1.6 3.6-2.3 1.1-.2 2.1-.5 3.2-.8-.3 1.1-1.5 1.4-2.5 1.6-.6 1.6-1.7 2.8-3.1 3.8-.4-.8-.8-1.6-1.2-2.3z"></path></g><path class="st10" d="M128.4 85.8l4.1-2.8c.1-.1.2-.1.3-.1.4.1.5.6.2.9l-4.8 3.6.2-1.6z"></path></g><g id="head"><path class="st5" d="M143.2 74.9c-.6-.9-.8-1.9-.5-2.7.2-.7.8-1.2 1.5-1.4 1.6-.5 3.7.3 4.7 2 .6.9.8 1.9.5 2.7-.2.7-.8 1.2-1.5 1.4-.2.1-.4.1-.7.1-1.4.2-3-.7-4-2.1zm1.3-3.1c-.4.1-.7.4-.9.8-.2.5 0 1.2.4 1.8.8 1.2 2.5 2 3.7 1.6.4-.1.7-.4.9-.8.2-.5 0-1.2-.4-1.8-.7-1.1-2.1-1.8-3.2-1.7-.2 0-.4 0-.5.1z"></path><path d="M151.3 62.5c0 .1-.7 3.4-1.3 6.3l-4-1.3-2.6 4.8c-.8 2.1 3.4 5.1 4.7 3.7l2.3-3.5 2.2-.4c1-.2 1.8-.8 2.1-1.7l1.4-6.7s-4.7-1.3-4.8-1.2z" fill="#b7835f"></path><path class="st10" d="M157.4 60.8c-.2-1.6-2.2-1.5-2.5-1.5v-.1c-.7-.8-1.6-1.5-2.7-1.9-2.9-1-6.1.4-7.4 3.1-1.3 1.1-1 3.4-.6 5.1l.1.2c.4 1 .7 1.9 1.2 2.8.1.2.7 1.2 2 1.2 1.7 0 3.2-.6 4.1-1.2 0-.5.1-1 .3-1.7.1-.3.5-.6 1-.7.6-.1 1.2.1 1.3.5v.2c.5-.3 1-.8 1.3-1.4.2.1 2.2-2.1 1.9-4.6z"></path></g><path class="st10" d="M149.2 57.1s-2.8-4.1-6.2-1.9-3.9 4.1-6.9 4c-3-.1-4.1 1.6-6.6 5.4s-8.6 1.6-10.2 4.6c0 0 1.5-.4 4.3.1 0 0-2.3-.7-3.7.7 0 0 2.8-.2 5.3 1.2s5.6.5 8.5-2.3c0 0-.8.6-.8 1.6 0 0 .6-1.5 3.1-2.9s3.9-1.4 6.6-4 2.9-3.7 4.6-3.6c1.8 0 2-2.9 2-2.9z" id="hair"></path></svg> 