<?xml version="1.0" encoding="UTF-8"?> <svg xmlns="http://www.w3.org/2000/svg" version="1.1" x="0" y="0" viewBox="0 0 650 800" xml:space="preserve"><defs></defs><style>.st1{opacity:.5}.st3{opacity:.4}.st6{fill:#c2d3eb}.st8{fill:#eba87c}.st9{fill:#ffc398}.st11{fill:#120667}.st12{fill:#5333ed}.st14{fill:#0c022f}.st15{opacity:.3}.st18{fill:#9e684d}.st19{fill:#724c3b}.st20{fill:#0f0446}.st23{fill:#f0f6ff}.st25{fill:#4e2d23}.st27{fill:#b7835f}.st41{fill:#a7a3f3}.st45{fill:#e08c5c}.st46{fill:#b8b3ff}.st47{fill:#150773}.st48{fill:#dfe9f8}.st51{fill:#6e7075}</style><linearGradient id="SVGID_1_" gradientUnits="userSpaceOnUse" x1="327.597" y1="800" x2="327.597" y2="534.705"><stop offset="0" stop-color="#fff" stop-opacity="0"></stop><stop offset="1" stop-color="#fff"></stop></linearGradient><path fill="url(#SVGID_1_)" d="M204.9 534.7h245.3V800H204.9z"></path><g class="st1"><linearGradient id="SVGID_2_" gradientUnits="userSpaceOnUse" x1="389.49" y1="800" x2="389.49" y2="566.739"><stop offset=".218" stop-color="#5333ed" stop-opacity="0"></stop><stop offset="1" stop-color="#5333ed"></stop></linearGradient><path fill="url(#SVGID_2_)" d="M389 566.7h.9V800h-.9z"></path></g><g class="st3"><linearGradient id="SVGID_3_" gradientUnits="userSpaceOnUse" x1="336.58" y1="800" x2="336.58" y2="564.658"><stop offset="0" stop-color="#2f8dd3" stop-opacity=".1"></stop><stop offset="1" stop-color="#5333ed"></stop></linearGradient><path fill="url(#SVGID_3_)" d="M337 800l-.8-1.1V564.7l.8 1.1z"></path></g><g class="st1"><linearGradient id="SVGID_4_" gradientUnits="userSpaceOnUse" x1="279.542" y1="525.749" x2="279.542" y2="800"><stop offset="0" stop-color="#5333ed"></stop><stop offset=".739" stop-color="#5333ed" stop-opacity="0"></stop></linearGradient><path fill="url(#SVGID_4_)" d="M279 525.7h1V800h-1z"></path></g><path class="st6" d="M247.9 338.2h1V800h-1z"></path><linearGradient id="SVGID_5_" gradientUnits="userSpaceOnUse" x1="109.745" y1="306.672" x2="542.634" y2="602.672"><stop offset="0" stop-color="#c3d4ef"></stop><stop offset="1" stop-color="#c3d4ef"></stop></linearGradient><path d="M635.4 407.2l-226-130.5-308.7 47.8-82.8 178.3 226 130.5 308.7-47.8 82.8-178.3zm-395.8 98.1c-48.1-27.8-48.1-72.8 0-100.5 48.1-27.8 126-27.8 174.1 0 48.1 27.8 48.1 72.8 0 100.5-48 27.7-126 27.7-174.1 0z" fill="url(#SVGID_5_)"></path><path class="st8" d="M95.6 376.9l-.4 2.6s.7 0 1.1-1.1l.3-1 1-1.2-.8 2s.3 2.5 1 2.1l1.4-.7s.3-.2.3-.5-.1-.9-.1-.9l.7-1.4c1.2.2 2.6-4.3 2.6-4.3l-2.7-1.3-2.7 3.6-.5.7-1.2 1.4z"></path><path class="st9" d="M99.6 371.1s-1.8 1.8-1.9 2.6c-.1.5 0 2 0 2l.6 1.9s.9-.8.3-2l.8-1.2s2.6.4 3.4-1.9l-3.2-1.4z"></path><path class="st9" d="M109.6 336.1c3 9.4 4.1 23.3-7 36.4l-3.1-1.4s10.5-14.9 3.8-31.7c-.6-1.6-.4-6.1 1.1-7.3.1.1 3-2.9 5.2 4z"></path><linearGradient id="SVGID_6_" gradientUnits="userSpaceOnUse" x1="122.17" y1="427.481" x2="165.726" y2="473.999"><stop offset="0" stop-color="#120667" stop-opacity=".7"></stop><stop offset="1" stop-color="#120667" stop-opacity="0"></stop></linearGradient><path fill="url(#SVGID_6_)" d="M196.7 478.4l-12.8 7.3-74.6-43.2 12.8-7.4z"></path><path class="st8" d="M109.9 408.3l8.3 25.2s-1.5 5.5-8.8 8.9c0 0 3.9-.1 5.1-.6 1.7-.6 6.2-4.1 6.2-4.1l-.3 3.4.9-.1 1.2-4.4s.3-2.7-1.3-3.8c0 0-3-22.6-3.2-25.5 0-.1-8.1 1-8.1 1zM121.3 405l6.6 31.7s.5 8.7 8.4 9.2c0 0-4-5.4-4.7-8.9-.5-2.4-2.3-29.4-2.1-31.8 0-.2-8.2-.2-8.2-.2z"></path><path class="st11" d="M112.7 439.7s4.2-.4 5.6-2c2.3-2.7.8-2.5 2.8-4.8 0 0 1.9.7 1.3 3.8-.2 1.1-1.2 4.4-1.2 4.4-.2.1-11.8 1.8-11.9 1.4-.5-1.5 3.4-2.8 3.4-2.8zM135.3 445.4c-.4.2-3.5-1.2-5.6-4-1.7-2.2-1.1-2.7-2.1-5.7 0 0-.9-.3-1.7 2.7-.3 1.1.6 4.9.6 4.9.1.2 10.7 6.2 11 5.9.6-.7-1.3-4.3-2.5-5.1.1 0 .6 1.1.3 1.3z"></path><path class="st12" d="M141.1 421.5c-.3-3.1.3-9.3-.5-12.3-.6-2.3-3.4-6-4.4-8.2-2.4-5.4-5.5-23.1-5.5-23.1-1.1-7.1-3.4-12.6-3.4-12.6s-3.8 4.4-13.1.2c-7-3.2-8-9.5-8-9.5-1.8 3.2-2.4 19-2.4 19s.8 15.6-1.2 27.7c-.6 3.4 1 4.6.8 7.2-.6 2.6 1.9 6.2 6.1 8.7 4.7 2.7 9.7 2.8 11.1.3.4-.7.5-1.5.3-2.4l-.4-7.4 2.2 11.5.3.6c.6 2.4 3 5.2 6.5 7.2 5 2.9 10.3 3 11.9.3.6-1.2.1-3.7-.3-7.2z"></path><path d="M120.6 409.2l-4.8-29.3-1.4-1.1 3.7 28.7c.2 1.5.3 3 .2 4.5l-.2 8.5s2.2-.5 2.8-2.5c.2-.5-.3-8.8-.3-8.8z" opacity=".2" fill="#120667"></path><path class="st11" d="M127.5 360.9l-.5-.2c-1-2.6-3.4-5.2-6.8-7.2-2.7-1.6-5.6-2.4-8.1-2.4-2.6 0-4.6.9-5.5 2.5 0 0 0 .1-.1.2l-.5-.2v2.1c-.1 1.2.3 2.6 1.1 4 1.3 2.2 3.5 4.3 6.2 5.9 2.7 1.6 5.6 2.4 8.1 2.4 2.6 0 4.6-.9 5.5-2.5.4-.6.5-1.3.5-2.1v-2.5z"></path><path class="st11" d="M134.1 344.9c-.7-1.6-1.5-2.1-1.5-2.1l-19.2-11.1c-1.2-.7-3.6-1.6-5.5-1.6-2.1 0-3.4.8-4 2.5-.6 1.8-.8 3.7-.7 5.6l1 13.6c.3 1.9 1.2 3.5 2.6 4.7 1 2.4 3.3 4.9 6.5 6.7 3.6 2.1 7.2 2.3 10 2.1 1.9-.1 4.8-.9 5.9-2 0 0 1.6-1.1 1.4-5.1-.1-2.7 2-3.7 3.3-8 .6-1.7.6-4.2.2-5.3z"></path><path class="st9" d="M158.7 343.4l-1 1.9.6-2.4s.9-1.1.4-2.2l-1 1.7-.7 2 .4-2s1-.8.8-1.9l-1.5 1.6-.7 1.9.6-2.7s.7-.9.3-1.6l-1 1.5s-.8 3.1-.8 3.3c0 .1-.2 1.1-.4 2.2l-.8-.8s-.1-1.5-.8-1.8l.1 2.3s0 2.5 1 2.8c0 0-11.6 25.3-19.7-1.6 0 0-.8-3.5-2.7-3.7-1.6-.2-2.8.5-3.2 1.1-1.2 2.2 0 4 0 4s13.5 36.6 28.2 1.6c.2-.4 1.5-2.7 1.7-5.1l.6-1.6s.6-.3.8-1.2l-1.2.7z"></path><path class="st8" d="M121 335.6c-.1-2.3 0-6.7 0-6.7h-4.9v5.2c-.5-.1-1-.1-1.4 0-.9.1-1.6.5-2 1.1-.9 1.6.6 4.2 3.3 5.8 2.8 1.6 5.8 1.6 6.7 0 .6-1.1.1-2.6-1.1-4-.1-.2-.6-1-.6-1.4z"></path><path class="st9" d="M119 333.2c2.1.4 4 .1 4.7-3.5l.8-4c.5-2.6-1-5.1-3.4-5.5-2.4-.4-4.7 1.3-5.2 3.9l-.6 3.1c-.6 2.8 1.1 5.5 3.7 6z"></path><circle class="st9" cx="114.9" cy="327.1" r="1.5"></circle><path class="st14" d="M117.2 319.4c-.5-.4-1.1-.6-1.7-.7.6-.4 1.2-.8 1.9-1-.1.4-.3.8-.3 1.3.1.2.1.3.1.4z"></path><path class="st11" d="M115.5 318.8c.6.1 1.2.3 1.7.7 0-.1-.1-.2-.1-.4 0-.4.2-.8.3-1.3.7-.2 1.3-.4 2.1-.4 3.9 0 6.5 3.2 7 7 .1.7-.1 1.7-1.6 2-2.1.3-4.8-2-6.1-3.5-.4 1.8-3 1.4-3 3.9 0 .6-1.9.3-2.3-1.5-.6-3.6-.1-5 2-6.5z"></path><path class="st11" d="M114.7 320s-1.4-.3-.7-2.5c.6-2.2 1.5-4.4 1.5-4.4s.6-1.3 2.2-1 1.1 2.1 1.1 2.1l-1.4 4.2c-.1-.1-.5 2.2-2.7 1.6z"></path><path class="st12" d="M115 314.3l3.5.5-.4 1.2-2.9-.5 2.6 1.3-.4 1.3-3.1-1.6z"></path><g class="st15"><path class="st12" d="M167.1 296.8v15.4l-15.4-8.8.1-15.5z"></path></g><g class="st15"><path class="st12" d="M143.5 282.9v15.5l-15.4-8.9v-15.4z"></path></g><g class="st15"><path class="st12" d="M120.3 269.6v15.5l-15.3-8.9v-15.5z"></path></g><g opacity=".7"><path opacity=".3" fill="#5333ed" d="M194.9 299.8v-7.1l-44.3 25.5V370.1l44.3-25.6z"></path><path class="st11" d="M140.5 324v51.9l10.1-5.8v-51.9z"></path></g><path class="st18" d="M519.1 336.4s.2-5.3.3-5.5c.1-.2.9-3.4.9-3.4l2.3-1c.3.9-1.6 1.7-1.6 1.7l-.4 2.3 1.1-2.6 2.1-2.1c.6.8-1.4 2.6-1.4 2.6l-.7 3c0 .1.3-.8.8-2.3 0-.1 2.5-1.8 2.5-1.7.4.8-1.8 2.2-1.8 2.2-.1.5-.8 2.4-.8 2.7 0 .1.8-1.1.9-1.1l2.3-.9c.2.5-1.9 1.6-1.9 1.6-.1.1-.4 2.6-.4 2.7-.3 2.6-1.4 3.3-1.4 3.3l-10.5 12s-5.4-1.6-4.5-5.3l12.2-8.2z"></path><path class="st19" d="M519.4 334.1s-.1-3 0-3.3c.1-.2.9-3.4.9-3.4l2.3-1c.3.9-1.6 1.7-1.6 1.7l-.4 2.3 1.1-2.6 2.1-2.1c.6.8-1.4 2.6-1.4 2.6l-.7 3c0 .1.3-.8.8-2.3 0-.1 2.5-1.8 2.5-1.7.4.8-1.8 2.2-1.8 2.2-.1.5-.8 2.4-.8 2.7 0 .1.8-1.1.9-1.1l2.3-.9c.2.5-1.9 1.6-1.9 1.6-.1.1-.3 2-.4 2.9 0 0-.1 2.3-1.5 3.3-1.2.8-2.1-3.1-2.4-3.9z"></path><path class="st12" d="M543.8 313.3c.5-.4 1.3-.3 2.2.2 1.7 1 3 3.3 3 5.3 0 1-.4 1.7-1 2l-1.1.6-4.2-7.5 1.1-.6z"></path><ellipse transform="rotate(-29.611 544.794 317.57)" class="st20" cx="544.8" cy="317.6" rx="2.5" ry="4.3"></ellipse><path class="st6" d="M542.6 314.7c.5-.3 1.1-.3 1.8.2 1.4.8 2.5 2.8 2.5 4.4 0 .9-.3 1.4-.8 1.7l-11.4 6.5-3.6-6.3 11.5-6.5z"></path><path class="st12" d="M531 321c.5-.3 1.2-.3 2 .2 1.5.9 2.7 3 2.7 4.8 0 .9-.3 1.6-.9 1.8l-1 .6-3.9-6.8 1.1-.6z"></path><ellipse transform="rotate(-29.611 531.964 324.949)" class="st20" cx="532" cy="325" rx="2.2" ry="3.9"></ellipse><path class="st6" d="M530.3 322.6c.4-.2.9-.2 1.4.1 1.1.6 2 2.2 2 3.5 0 .7-.2 1.1-.6 1.3l-7.5 4.3-2.8-4.9 7.5-4.3z"></path><path class="st12" d="M522.9 326.7c.4-.3.9-.2 1.5.1 1.2.7 2.1 2.3 2.1 3.7 0 .7-.3 1.2-.7 1.4l-1 .6-2.9-5.2 1-.6z"></path><ellipse transform="rotate(-29.611 523.28 329.873)" class="st20" cx="523.3" cy="329.9" rx="1.7" ry="3"></ellipse><g><path class="st6" d="M522.1 328.3c.3-.2.6-.2 1 .1.8.5 1.4 1.6 1.4 2.5 0 .5-.2.8-.5 1l-5.5 3.1-2-3.6 5.6-3.1z"></path><path class="st12" d="M516.7 331.3c.3-.2.7-.2 1.1.1.8.5 1.5 1.7 1.5 2.7 0 .5-.2.9-.5 1l-.8.4-2.1-3.8.8-.4z"></path><ellipse transform="rotate(-29.611 516.966 333.549)" class="st14" cx="517" cy="333.6" rx="1.2" ry="2.2"></ellipse><ellipse transform="rotate(-29.816 516.995 333.582)" cx="517" cy="333.6" rx="1" ry="1.9" fill="#0a54c9"></ellipse></g><g><linearGradient id="SVGID_7_" gradientUnits="userSpaceOnUse" x1="509.083" y1="445.244" x2="566.86" y2="494.577"><stop offset="0" stop-color="#120667" stop-opacity=".8"></stop><stop offset=".876" stop-color="#120667" stop-opacity="0"></stop></linearGradient><path fill="url(#SVGID_7_)" d="M589.2 493.6l-13.2 7.7-77.1-44.7 13.2-7.7z"></path><path class="st23" d="M524.9 455.1c.4.1.6-.2.8.2.1.2.4.6.4 1.3 0 .9-.2 1.3-.8 2-.7.8-4.4 3.7-6.7 4.2 0 0-.8.2-1.1.5-.3.3-1 .7-1.6 1l-.5-1.2 7.7-4.9 1.8-1.8v-1.3z"></path><path class="st23" d="M512.6 464.4c.4.8 1.9.8 3.2 0 1.3-.8 2.1-2 1.6-2.8-.4-.8-1.9-.8-3.2 0-1.3.8-2 2-1.6 2.8"></path><path class="st11" d="M525.4 455.5c-.8-1.3-3.7.7-4.6.8-3.3.5-4.7.8-6.6 1.4-1.1.4-1.9 1.4-2 2.6 0 0-.1.4-.1.7 0 .4.3 1.4.2 2.1 0 .1 0 .3.1.4.3.5 1 .6 1.9.3 1.8-.7 6.4-2.9 7.4-3.5 1.2-.8 2.5-1.9 3.1-2.5.6-.5 1.2-1.5.6-2.3"></path><path class="st19" d="M512.8 459.9c.4.6 1.5.6 2.6 0s1.7-1.6 1.3-2.2c-.4-.6-1.5-.6-2.6 0s-1.7 1.6-1.3 2.2"></path><path class="st6" d="M524 456.7s-.1 0-.1-.1c-.7-.7-1.7-.7-1.7-.7-.1 0-.2-.1-.2-.2s.1-.2.2-.2 1.2 0 2 .8c.1.1.1.2 0 .3-.1.1-.1.1-.2.1zM523.1 457.2s-.1 0-.1-.1c-.7-.7-1.7-.7-1.7-.7-.1 0-.2-.1-.2-.2s.1-.2.2-.2 1.2 0 2 .8c.1.1.1.2 0 .3-.1.1-.2.1-.2.1zM521.7 457.4s-.1 0-.1-.1c-.7-.7-1.7-.7-1.7-.7-.1 0-.2-.1-.2-.2s.1-.2.2-.2 1.2 0 2 .8c.1.1.1.2 0 .3-.1.1-.1.1-.2.1zM520.3 457.7s-.1 0-.1-.1c-.7-.7-1.7-.7-1.7-.7-.1 0-.2-.1-.2-.2s.1-.2.2-.2 1.2 0 2 .8c.1.1.1.2 0 .3-.1 0-.2.1-.2.1z"></path><path d="M517 457s1.1 0 1.8.8" fill="none" stroke="#120667" stroke-width=".39" stroke-linecap="round" stroke-miterlimit="10"></path><path class="st23" d="M510.7 446.9c.4.1.6-.2.8.2.1.2.4.6.4 1.3 0 .9-.2 1.3-.8 2-.7.8-4.4 3.7-6.7 4.2 0 0-.8.2-1.1.5-.3.3-1 .7-1.6 1l-.5-1.2 7.7-4.9 1.8-1.8v-1.3z"></path><path class="st23" d="M498.5 456.1c.4.8 1.9.8 3.2 0 1.3-.8 2.1-2 1.6-2.8-.4-.8-1.9-.8-3.2 0-1.3.8-2.1 2.1-1.6 2.8"></path><path class="st11" d="M511.3 447.3c-.8-1.3-3.7.7-4.6.8-3.3.5-4.7.8-6.6 1.4-1.1.4-1.9 1.4-2 2.6 0 0-.1.4-.1.7 0 .4.3 1.4.2 2.1 0 .1 0 .3.1.4.3.5 1 .6 1.9.3 1.8-.7 6.4-2.9 7.4-3.5 1.2-.8 2.5-1.9 3.1-2.5.5-.6 1.1-1.5.6-2.3"></path><path class="st19" d="M498.6 451.7c.4.6 1.5.6 2.6 0s1.7-1.6 1.3-2.2c-.4-.6-1.5-.6-2.6 0-1.1.5-1.6 1.5-1.3 2.2"></path><path class="st6" d="M509.9 448.5s-.1 0-.1-.1c-.7-.7-1.7-.7-1.7-.7-.1 0-.2-.1-.2-.2s.1-.2.2-.2 1.2 0 2 .8c.1.1.1.2 0 .3l-.2.1zM508.9 448.9s-.1 0-.1-.1c-.7-.7-1.7-.7-1.7-.7-.1 0-.2-.1-.2-.2s.1-.2.2-.2 1.2 0 2 .8c.1.1.1.2 0 .3-.1.1-.1.1-.2.1zM507.6 449.2s-.1 0-.1-.1c-.7-.7-1.7-.7-1.7-.7-.1 0-.2-.1-.2-.2s.1-.2.2-.2 1.2 0 2 .8c.1.1.1.2 0 .3-.1.1-.2.1-.2.1zM506.1 449.4s-.1 0-.1-.1c-.7-.7-1.7-.7-1.7-.7-.1 0-.2-.1-.2-.2s.1-.2.2-.2 1.2 0 2 .8c.1.1.1.2 0 .3-.1.1-.1.1-.2.1zM504.7 449.7s-.1 0-.1-.1c-.7-.7-1.7-.7-1.7-.7-.1 0-.2-.1-.2-.2s.1-.2.2-.2 1.2 0 2 .8c.1.1.1.2 0 .3-.1.1-.2.1-.2.1z"></path><path class="st19" d="M499 441.6l-.5 9.7 4.1-1.6.9-7.5zM513.1 449.8l-.4 9.8 4.1-1.6.8-7.5z"></path><path class="st25" d="M503.4 442.9c-.3-.3-.6-.5-1-.7-.1-.1-.2-.1-.3-.2l-3.1-.5-.2 4.8c.4.4.9.9 1.5 1.2.9.5 1.8.8 2.5.8l.6-5.4zM517.5 451.2c-.2-.3-.5-.6-.8-.9l-3.6-.5-.2 4.7c.2.2.5.4.7.5 1.2.7 2.5.9 3.4.7l.5-4.5z"></path><path class="st11" d="M504.7 445.1v-1.3c0-1-.9-2.3-2.3-3.1-1.8-1-3.7-1-4.3 0-.2.3-.2.7-.1 1v1.3c0 1 .9 2.2 2.3 3.1 1.8 1 3.7 1 4.3 0 .1-.1.1-.3.2-.5v-.1c-.1-.2-.1-.3-.1-.4M518.1 451.3c0-1-.9-2.3-2.3-3.1-1.8-1-3.7-1-4.3 0-.1.3-.2.5-.2.9v1.4c-.1 1 .8 2.3 2.3 3.1 1.8 1 3.7 1 4.3 0 .1-.2.1-.4.2-.6v-1.7z"></path><path class="st11" d="M522.9 379.6l-1.2-6.6-19.4-5.1s-2.2 3.7-3.8 12.7c-3.1 16.6 0 60 0 60-.5.9.3 2.4 1.9 3.3s3.3.9 3.9 0c.1-.2.1-.4.1-.6-.4-24 4.6-50.5 4.6-50.5 0 1.1 2.7 55.8 2.7 55.8-.1.9.8 2.1 2.1 2.9 1.7 1 3.4 1 4 0 .1-.2.1-.4.1-.6.7-21.1 3.9-48.7 5.3-60.2.2-1.8.3-3.6.3-5.4 0-1.9-.3-3.8-.6-5.7"></path><linearGradient id="SVGID_8_" gradientUnits="userSpaceOnUse" x1="507.615" y1="394.312" x2="507.615" y2="384.432"><stop offset="0" stop-color="#120667"></stop><stop offset="1" stop-color="#120667" stop-opacity="0"></stop></linearGradient><path d="M509 392.9s-1.9-3.9-2.8-8.4c0 0-.4 4.8 2.5 9.9l.3-1.5z" fill="url(#SVGID_8_)"></path><path class="st12" d="M523.4 349.3c-.1 0-17-9.8-17-9.8-.6-.4-1.4-.5-2.3-.4-.8.1-1.6.4-2.4.9-.9.5-1.5 1.1-2 1.7-.5.7-.8 1.6-.7 2.5l1 22.8c-.3 3.3 2.7 7.5 7.5 10.3 5.8 3.3 12 3.3 14 0 .4-.7.6-1.4.6-2.2l4.1-21.7c.2-1.3-.9-3-2.8-4.1"></path><path class="st27" d="M513.6 342.7l3.6-2.1c1-.6 1.7-1.7 1.7-2.9l-1.3-8.2s-6 .5-6 .7 2 12.5 2 12.5"></path><path class="st27" d="M508.9 337.9l6.4-.9v9.4c0 .2-.1.4-.1.6-.6 1-2.4 1-4 0-1.4-.8-2.2-2-2.2-2.9v-6.2z"></path><path class="st12" d="M514.3 326.4v-1h1z"></path><path class="st20" d="M518.1 324.8c-.2-.6-.7-1.1-1.4-1.1s-1.3.5-1.4 1.3h-.2c-.3 0-.5 0-.8.1-1.1-.6-2.5-1-3.9-.9-3.8.1-6.8 3.1-7.1 6.7 0 1.2.3 2.5.7 3.6v.2c0 .7.4 1.4.9 1.7v.4c0 1.1.8 2 1.9 2.1.3.7 1.1 1.2 1.9 1.2h.2c.2.2.8 1.3 1 1.2 1.4-.8 2.6-1.9 3.6-3 1.1 0 2-1 2-2.1 0-.2 0-.4-.1-.5v-.4c1.3-.7 2.2-1.9 2.3-3.4v-.1c.8-.7 1.3-1.8 1.3-2.9 0-.3 0-.7-.1-1 .3-.3.4-.8.4-1.2-.1-.9-.5-1.6-1.2-1.9z"></path><path class="st27" d="M514.2 335.1c0-.4.3-.9.9-1.2.7-.4 1.4-.4 1.6 0v.2l.4 1.9-1.6 2.8c.1-.1-1.3-1.1-1.3-3.7z"></path></g><path class="st27" d="M533.1 335.1c-.1-.3-.1-.7-.1-1l.5-5.3-.2-2.8-1.2-1.6c-.3.5.5 1.8.5 1.8l-.2 2.2-.1-2.7-1.8-1.6c-.3.4.2 1 .6 1.4l-2.2-.6-.6-.9c-.3 1 .7 2.5.7 2.5l.2 2.5-.3 2.3-.6-1.1-.7.4.4 1.2c0 .1.1.2.1.3l1.2 2.4 5.7 18.2 5.6-2.3-7.5-15.3zm-1.8-6.5l-.2-2.9c.3.2.5.4.5.4l-.3 2.5zm-1.2.4l-.4-2.8-.3-.4c.4.2.8.3.8.3l-.1 2.9z"></path><path class="st27" d="M537 356.2l-8.8.7-.8-7.3 9.9-.8c1.8-.1 3.3 1.1 3.5 2.9.3 2.3-1.5 4.3-3.8 4.5z"></path><path class="st12" d="M525.1 358.2s8.2-.4 9.4-.8c1.2-.4 2.9-2.2 2.4-5.3-.7-3.8-3.3-4.7-3.9-4.8-.2 0-1.4.1-2.9.3-2.4.3-5.3.4-6.4.3-1.5-.1-4-.8-4-.8s-1 10.6 5.4 11.1z"></path><linearGradient id="SVGID_9_" gradientUnits="userSpaceOnUse" x1="525.32" y1="358.196" x2="521.224" y2="369.451"><stop offset="0" stop-color="#120667"></stop><stop offset="1" stop-color="#120667" stop-opacity="0"></stop></linearGradient><path d="M525.2 358.2l-2.2 11.9s-1.2-.9-.8-4.1c.4-3.2 1.1-7.8 1.1-7.8h1.9z" opacity=".2" fill-rule="evenodd" clip-rule="evenodd" fill="url(#SVGID_9_)"></path><path class="st18" d="M521.5 338.2s.7-1.5 0-3.2c-.4-1-.1-1.6.3-2.3.1-.3.3-.8.2-1.1 0-.3-.2-.8-.7-.3-.2.2-.5.7-.8 1.6-.2.9-1.3 1.3-1.5 2-.2.7-.4 2.3.3 3 .7.8 2.2.3 2.2.3z"></path><linearGradient id="SVGID_10_" gradientUnits="userSpaceOnUse" x1="326.681" y1=".014" x2="326.681" y2="527.098"><stop offset=".149" stop-color="#fff" stop-opacity="0"></stop><stop offset="1" stop-color="#fff" stop-opacity=".8"></stop></linearGradient><path d="M449.8 0H203.5v456c0 18.2 12 36.4 36.1 50.3 48.1 27.8 126 27.8 174.1 0 24-13.9 36.1-32.1 36.1-50.3V0z" fill="url(#SVGID_10_)"></path><linearGradient id="SVGID_11_" gradientUnits="userSpaceOnUse" x1="513.359" y1="565.51" x2="532.209" y2="598.159"><stop offset="0" stop-color="#120667"></stop><stop offset="1" stop-color="#120667" stop-opacity="0"></stop></linearGradient><path opacity=".3" fill="url(#SVGID_11_)" d="M552.1 586.7l-34.6 5-21.8-10.8 15.2-14z"></path><g class="st15"><linearGradient id="SVGID_12_" gradientUnits="userSpaceOnUse" x1="981.42" y1="149.666" x2="542.173" y2="-142.581" gradientTransform="rotate(56.365 305.969 -264.837)"><stop offset="0" stop-color="#5333ed"></stop><stop offset="1" stop-color="#37a7df"></stop></linearGradient><path fill="url(#SVGID_12_)" d="M335.8-.2l1.1 527.3h-2.6L333.2-.5z"></path></g><g><path class="st6" d="M368 522.8l-.1-91.4S295.1 305.1 296.1 305l1.3-305h.9L297 305l71.7 126.1c0 .1.1.2.1.2l.1 91.3-.9.2z"></path></g><g opacity=".6"><linearGradient id="SVGID_13_" gradientUnits="userSpaceOnUse" x1="844.841" y1="251.717" x2="611.101" y2="-153.132" gradientTransform="rotate(56.365 305.969 -264.837)"><stop offset="0" stop-color="#5333ed"></stop><stop offset="1" stop-color="#5333ed" stop-opacity="0"></stop></linearGradient><path fill="url(#SVGID_13_)" d="M278.7-.1v521.7l-1.2-.7V-.1z"></path></g><g class="st1"><linearGradient id="SVGID_14_" gradientUnits="userSpaceOnUse" x1="573.237" y1="-46.452" x2="1004.668" y2="-46.452" gradientTransform="rotate(56.365 305.969 -264.837)"><stop offset="0" stop-color="#5333ed" stop-opacity="0"></stop><stop offset="1" stop-color="#5333ed"></stop></linearGradient><path fill="url(#SVGID_14_)" d="M392 516.9L390.4 0h1.3l1.6 516.2z"></path></g><g><path class="st6" d="M415.5 505.4l-1 .4V0h1z"></path></g><g class="st15"><path fill="#2f8dd3" d="M254.3 68.6V84l-15.2-8.8V59.8z"></path></g><g class="st15"><path class="st12" d="M316.2 234v30.6l-30.3-17.5.1-30.5z"></path></g><g opacity=".1"><path class="st12" d="M128.5 136.6v30.5l-30.2-17.4v-30.6z"></path></g><g class="st15"><path fill="#abb5c1" d="M398 688.1v30.1L368.2 701l.1-30z"></path></g><circle class="st41" cx="296.3" cy="65.9" r="5.7"></circle><linearGradient id="SVGID_15_" gradientUnits="userSpaceOnUse" x1="368.5" y1="798.875" x2="368.5" y2="613.904"><stop offset="0" stop-color="#c2d3eb" stop-opacity="0"></stop><stop offset="1" stop-color="#c2d3eb"></stop></linearGradient><path fill="url(#SVGID_15_)" d="M369 798.9h-1V614l1-.1z"></path><g><path class="st6" d="M247.7 510.1l-1-.5V.6h1z"></path></g><circle class="st41" cx="391.8" cy="251" r="5.7"></circle><circle class="st41" cx="335" cy="450.3" r="7.4"></circle><g class="st1"><path class="st12" d="M395.6 343.8v20.8L375 352.7v-20.8z"></path></g><g><linearGradient id="SVGID_16_" gradientUnits="userSpaceOnUse" x1="176.255" y1="514.841" x2="205.664" y2="565.779"><stop offset="0" stop-color="#120667" stop-opacity=".7"></stop><stop offset="1" stop-color="#120667" stop-opacity="0"></stop></linearGradient><path fill="url(#SVGID_16_)" d="M240.3 544.3l-42 25.8-55.9-32.4 40.5-26.7z"></path><g id="Illustrations_x2F_small_x2F_character_x5F_support_2_"><g id="home-care_2_" transform="translate(40 90)"><g id="Group_2_" transform="translate(5)"><path id="Path_131_" class="st14" d="M147.6 429.7c.3-1.4 1-2.8 2-3.9 1.1-1.2 2.5-.3 3.1.3.5.5 1.1.8 1.8.9.8.1 1.6-.1 2.2-.5 1.3-.7 3.9 1.1 2.7 1.8-1.2.7-8 4.2-8 4.2s-.7.2-1 0l-2.8-2.8z"></path><path id="Path_130_" class="st9" d="M133.9 388.2s-6 2.6-6.7 4.7c-5.9 18.2-21.6 30.1-21.6 30.1s1.6 2.4 1.7 2.5c22.2-10.4 26.6-37.3 26.6-37.3z"></path><g id="Path_129_"><path class="st8" d="M88.6 370l-1.2 1.7c.9.1 1.6-1 1.6-1l1.9-1.4c2-.9 3.9-2.3 5.4-3.9.4-.5.6-1 .5-1.6 0-.3-.1-.7-.4-.9-.3-.2-.6-.3-.9-.3-.1 0-.2 0-.3.1l-6.5 3.1c-.2.1-3.1 1.6-3.1 1.6l-1.8 1.5c.8 0 1.5-.2 2.1-.8l2.5-1.1-2.1 1.5-1.6 2.1c.9-.2 1.7-.7 2.2-1.5l2.2-1.1-2 1.4-1.9 1.6c.9.1 1.7-.3 2.3-.9l2.9-1.7-1.8 1.6z" transform="translate(11 60)"></path><path class="st9" d="M98.1 362.9l-1.4-2c-.2.1-1.9 1.9-2 2 0 0-2.6.2-3.4.7-.7.7-1.2 1.4-1.8 2.2l-.5 1.5c.8-.2 1.4-.8 1.7-1.5l.6-.5c.7.7 1.5 1.1 2.5 1.2.6.1 1.2 0 1.8-.3l1.2-1.1 1.3-2.2z" transform="translate(11 60)"></path></g><path id="Path_128_" class="st12" d="M129 385c-.2.3-.2.6-.3 1-.5 2.6-1.8 8.8-3.6 12.1l5.4 3.9c1.7-2.4 3.2-5 4.5-7.6l-6-9.4z"></path><path id="Path_127_" class="st12" d="M124.8 398.8c.2 0 .5 0 .7.1 1.6.6 3.1 1.6 4.2 3 .1.2.4.7.4.7l-.2.4c.2-.1.5-.2.6-.4.3-.4.6-.8.8-1.3.1-.1.1-.3 0-.4-.5-1-1.3-1.9-2.3-2.5-1-.7-2.2-1.2-3.4-1.4-.2 0-.3.1-.4.2l-.7 1.5c-.1.2 0 .3.1.5l.2-.4z"></path><path id="Path_126_" class="st14" d="M129.8 404.1s.4 5.5-3.4 9.6 6.3 3.4 6.3 3.4l6.7 6.2 8.6 5.8c1.6-3.6 2.1-7.6 1.3-11.5-.3-1.4-.6-2.8-.8-4.2l-.7-4.8-18-4.5z"></path><ellipse id="Oval_70_" transform="rotate(-60 138.963 406.648)" class="st14" cx="139" cy="406.6" rx="5.8" ry="10"></ellipse><ellipse id="Oval_69_" transform="rotate(-53.18 134.28 428.363)" class="st14" cx="134.3" cy="428.4" rx="1.7" ry="2.9"></ellipse><path id="Path_125_" class="st14" d="M136.2 430.4l-3.8-4.1-22.7 8.9c-.1-.1-.2-.2-.3-.2-2.4-1.8-5.1-2.1-6.2-.7-1 1.4.1 3.9 2.4 5.7 1.9 1.4 4.1 1.9 5.4 1.3l25.2-10.9z"></path><path id="Path_124_" class="st14" d="M133 416.2c-3.6-2.7-5-4.6-6.6-2.5l-22.7 20.1 6.8 4.5 25.1-12.4h.2c.4-.2.8-.5 1-.9 1.5-2.2-.1-6.1-3.8-8.8z"></path><path class="st12" d="M123.6 433.2s-12 5.5-14.2 4.5l15.8-6.4-1.6 1.9z"></path><ellipse id="Oval_68_" transform="rotate(-60 149.931 430.612)" class="st9" cx="149.9" cy="430.6" rx="1.2" ry="2.1"></ellipse><path id="Path_123_" class="st9" d="M147.8 434l3.7-2.1-3.2-2.5-3.7 2z"></path><path class="st14" d="M146.7 431.8c-.9-.5-1.8-.7-2.5-.5l-.4-.3-21.2 11.3c-.1-.1-.2-.2-.4-.2-2.6-1.5-5.4-1.5-6.2 0s.5 3.9 3.1 5.4c1.9 1.1 3.9 1.4 5.2.9l23.7-13.7c.1 0 .1-.1.2-.1.9-.5-.1-2.1-1.5-2.8z"></path><path id="Path_122_" class="st14" d="M116.3 441.8l17.6-20.9 13.3 9.1-23.6 15.5z"></path><ellipse id="Oval_67_" transform="rotate(-60 140.977 424.989)" class="st14" cx="141" cy="425" rx="4.7" ry="8.2"></ellipse><path id="Path_121_" class="st12" d="M145.7 389.6l-11.7-6.8c-.5-.3-1-.4-1.6-.2-1.2.2-2.3.8-3.1 1.8-.4.5-.5 1.1-.5 1.8l.8 15.6c-.2 2.2 1.8 5.2 5.2 7.1 4 2.3 8.3 2.3 9.6 0 .3-.5.4-1 .4-1.5l2.8-14.9c.2-1-.6-2.2-1.9-2.9z"></path><g transform="translate(52)"><g transform="translate(4 13)"><ellipse id="Oval_66_" transform="rotate(-30 82.328 374.981)" class="st8" cx="82.3" cy="375" rx="3.2" ry="1.9"></ellipse><ellipse id="Oval_65_" transform="rotate(-30 82.328 370.415)" class="st8" cx="82.3" cy="370.4" rx="3.2" ry="1.9"></ellipse><path class="st14" d="M86.9 358.2s1 .7 1.7 2c.9 1.6.6 2 .9 2.7.5 1.1.9.6 1.4 2.2.4 1.3-.3 1.6-.3 2.7 0 .8 1 .9 1.1 2.2.1 1.6-.9 1.6-.4 2.8.6 1.6-.5 2.5-.5 2.5s-2-1.5-3.9-1.5c-2.4.1-1.9-2-1.9-2s-1.9.2-3.5-.1-4.1-.1-5.1.9c0 0-1.1-.5-.9-1.9.2-1.3.6-1 .5-2.4 0 0 0 .8-.4 1.4-.4.8-.4 1.2-.3 1.7 0 0-.5-.9-.3-1.8.1-.6.5-.8.7-1.7.6-2.4-.9-3.2-.4-5.6"></path><path id="Path_119_" class="st8" d="M79.4 376v-4.5l5.9-2.1v4.5z"></path><ellipse id="Oval_64_" transform="rotate(-30 82.328 374.981)" class="st8" cx="82.3" cy="375" rx="3.2" ry="1.9"></ellipse><path id="Path_118_" class="st45" d="M85.3 365.8l-5.9 2.1v4.5c0 .2 0 .4.1.6.5.9 2.2.9 3.7 0 1.3-.7 2.1-1.9 2-2.7l.1-4.5z"></path></g><path id="Path_117_" class="st9" d="M81.3 384.5c.9 1.5 3.8 1.5 6.5 0 1.6-.9 2.7-2.4 3.1-4.1.1-.3-.3-.2-.3-.4.1-.4.2-.7.4-1-.9-1.5-3.8-1.5-6.5 0-2.6 1.5-4.1 4-3.2 5.5z"></path><path id="Path_116_" class="st9" d="M91.2 372.8H80.3s-1 7.3.9 11.6l9.4-4.5.6-7.1z"></path><path id="Path_115_" class="st14" d="M91.2 380.6l.3-3.5c.3-.2.5-.4.7-.6.9-1.5.5-4.2-2.2-5.8-2.7-1.5-6.6-1.3-7.5.2-.7 0-1.3.2-1.9.5-1.2.7-1.9 1.8-1.5 2.6-.3.6-.2 1.2.1 1.8.4.7 1.1.6 2.4-.1.7-.4 1.2-.9 1.5-1.6.7 1 1.6 1.8 2.7 2.4 1.1.7 2.4 1.1 3.7 1.1 0 .6 1.4 2.6 1.4 2.6l.3.4z"></path><path id="Path_114_" class="st9" d="M92.1 378.6c.1.9-.3 1.8-1 2.4-.7.5-1.3.3-1.4-.6-.1-.9.3-1.8 1-2.4.6-.5 1.3-.2 1.4.6z"></path></g><path id="Path_113_" class="st9" d="M147 391s-4.8 4.7-4.5 6.8c2.5 20.9-21.2 23.9-21.2 23.9s.7 3.2.8 3.3c37.1-1.3 24.9-34 24.9-34z"></path><path id="Path_112_" class="st12" d="M140.8 409.3s1.5-8.9 1.1-12.7l4.9-6.2s6.2 5.8 1.1 20.5l-7.1-1.6z"></path><path id="Path_110_" class="st12" d="M140.4 407.7c.1-.2.4-.3.6-.2v.5c2.3 1 4.8 1.6 7.3 1.8l.1-.4c.2.1.2.2.3.4l-1.1 2.9s-5.4-.3-7.9-2.6l.7-2.4z"></path><circle id="Oval_63_" class="st12" cx="110.4" cy="417.3" r=".9"></circle><g transform="translate(0 43)"><circle id="Oval_62_" class="st46" cx="107.3" cy="380.1" r="2.2"></circle><path id="Path_109_" class="st12" d="M106.5 378s-.4.7.1.9c.5.2 1.9.4 2.2.5.3.1.6.3.8.5 0-.4-.2-.8-.4-1.2-.3-.4-.8-.7-1.3-.9-.5 0-1 .1-1.4.2z"></path><circle id="Oval_61_" class="st46" cx="97" cy="376" r="3"></circle><path id="Path_108_" class="st12" d="M98.9 373.6c-.6.5-1.4.7-2.2.7-.3.5-.8.9-1.4 1-1 .1-1.2-.2-1.2-.2.3-.8.9-1.5 1.8-1.9 1-.4 2.2-.2 3 .4z"></path><path id="Rectangle_11_" class="st11" d="M96.3 371.2h.9v2.2h-.9z"></path><circle id="Oval_60_" class="st11" cx="97" cy="373.4" r=".9"></circle><path id="Rectangle_10_" class="st11" d="M106.6 376.2h.9v2.2h-.9z"></path><circle id="Oval_59_" class="st11" cx="107.3" cy="378.4" r=".9"></circle><ellipse id="Oval_58_" class="st14" cx="102.9" cy="389" rx="7.8" ry="4.5"></ellipse><ellipse id="Oval_57_" class="st11" cx="102.9" cy="402.1" rx="6.8" ry="3.9"></ellipse><ellipse id="Oval_56_" class="st46" cx="102.9" cy="392.6" rx="6.8" ry="3.9"></ellipse><path id="Path_107_" class="st11" d="M110.7 388.9c0 2.5-3.5 4.5-7.8 4.5s-7.8-2-7.8-4.5H95l1.1 13.3h13.6l1-13.3z"></path><circle id="Oval_55_" class="st11" cx="102.9" cy="391" r=".9"></circle><path id="Rectangle_9_" class="st11" d="M102 363h1.8v28H102z"></path><circle id="Oval_54_" class="st11" cx="102.9" cy="363" r=".9"></circle><path id="Rectangle_8_" class="st11" d="M98.4 366.9h.9v5.5h-.9z"></path><circle id="Oval_53_" class="st11" cx="99" cy="372.5" r=".9"></circle><circle id="Oval_52_" class="st11" cx="99" cy="366.9" r=".9"></circle><path id="Path_106_" class="st11" d="M98.8 372.6l3.5 2v-.6l-3.5-2.1z"></path><path id="Path_105_" class="st11" d="M95.7 370.7l3.5 2.1v-.7l-2.9-1.6z"></path><circle id="Oval_51_" class="st11" cx="96" cy="370.6" r=".9"></circle><path id="Path_104_" class="st11" d="M110.7 374.5l-7.2 4.1v-.6l6.6-3.8z"></path><path id="Path_103_" class="st11" d="M98.9 384l-8.6-4.9-.6.2 8.8 5.2 3.5 2v-.6z"></path><circle id="Oval_50_" class="st12" cx="90" cy="379.2" r=".9"></circle><g transform="translate(1 4)"><ellipse id="Oval_49_" transform="rotate(-30 86.516 366.302)" class="st11" cx="86.5" cy="366.3" rx="1.5" ry=".9"></ellipse><path id="Path_102_" class="st46" d="M85.4 366.4c.5-.8 1.5-1 2.3-.6l1.6.9 2 1.4c.6.3 1.4.3 2-.2.9-.5 1.3-1.3 1.1-1.8.3.4 1.2.4 2.1-.1s1-1.3.7-1.6c-.8-.7-1.7-1.3-2.6-1.8-1.7-1.2-3.9-1.2-5.8-.2l-1.8 1.1c-1 .6-1.7 1.7-1.8 2.9v.4l.2-.4z"></path><path id="Path_101_" class="st11" d="M94.5 366.3s-4.4-3.6-6.7-3.3c0 0 0-.2.4-.2 0 0 1.3-.6 6.6 3.3 0 0 .3.2.3.3 0 .1-.1.1-.3 0l-.3-.1z"></path></g><g transform="translate(0 16)"><circle id="Oval_48_" class="st11" cx="86.4" cy="363.4" r=".9"></circle><path id="Path_100_" class="st46" d="M85.6 363.3c.1-.2.3-.3.5-.4s.5 0 .7.1l.8.5 1.2.6c.3.2.7.1 1-.1.4-.3.7-.7.6-.9.2.2.7.2 1.1 0s.6-.7.4-.9c-.2-.2-.6-.3-1.4-.9-.9-.6-2.1-.7-3-.1l-1 .6c-.5.3-.9.9-.9 1.5l-.1.2.1-.2z"></path><path id="Path_99_" class="st11" d="M90.5 363.2s-2.4-1.8-3.6-1.6c0 0 0-.1.2-.1 0 0 .8-.4 3.5 1.7.1-.1.1.1-.1 0z"></path></g><path id="Path_98_" class="st11" d="M99 384.4l-2.5 1.5v-.6l2-1.2z"></path><g transform="translate(8 23)"><path class="st46" d="M91.1 362.5c-.6-.3-1.2-.5-1.7-.4-.1-.5-.5-1.1-1.2-1.4-.8-.5-1.7-.5-2.1-.2-1.7 1.6-2.5 4-2 6.3l.3 1.2c0 .2.2.4.4.5.2.1.4.1.6 0 .8-.3 1.3-1.1 2.1-1.4 1.7-.3 3.2-1.1 4.5-2.3.1-.1.2-.1.3-.3.2-.5-.3-1.4-1.2-2z"></path><path id="Path_97_" class="st11" d="M89.4 362.1c-2 .9-3.6 2.7-4.3 4.8 0 0-.1.1-.1-.1.7-2.2 2.3-3.9 4.3-4.8.1-.1.2-.1.3 0 .1 0 .1.1.1.2-.1-.1-.2-.1-.3-.1z"></path></g><path id="Path_96_" class="st12" d="M88.8 380.1c.3-.7.8-1.3 1.4-1.7.3-.1.7 0 1 .1.2.1.4.2.6.4-.1.1-.2.2-.3.2l-2.3 1.1c0 .1-.3.1-.4-.1z"></path><g transform="translate(4 18)"><path class="st46" d="M89.1 362c-.4-.2-.8-.2-1.1-.1 0-.4-.2-.7-.6-1-.6-.3-1.2-.2-1.4.2-.9 1-1.3 2.3-1.1 3.6l.2.7c0 .1.1.2.2.3.1.1.2 0 .4 0 .5-.2.8-.6 1.3-.8.9-.2 1.8-.6 2.5-1.2.1 0 .2-.1.2-.2 0 0 .1 0 .1-.1.1-.5-.1-1.1-.7-1.4z"></path><path id="Path_95_" class="st11" d="M88 361.9c-1.2.6-2.1 1.6-2.5 2.8 0 0-.1.1-.1-.1.4-1.3 1.3-2.3 2.5-2.8h.2l.1.1H88z"></path></g><g transform="translate(23 11)"><path class="st46" d="M89 361.7c-.4-.3-1.3-.3-2 .2-.7.4-1.1.9-1.2 1.4-.4-.1-1 0-1.6.4-.9.5-1.4 1.4-1.1 1.9l.3.3c1.2 1.1 2.7 1.9 4.3 2.2.8.3 1.3 1.1 2.1 1.3.2.1.4.1.6 0 .2-.1.3-.2.4-.4l.3-1.1c.2-2.4-.5-4.7-2.1-6.2z"></path><path id="Path_94_" class="st11" d="M85.8 363.2c2 .9 3.5 2.6 4.2 4.6 0 0 .1.1.1-.1-.7-2.1-2.2-3.8-4.2-4.7h-.3c-.1 0-.1.1-.1.2h.3z"></path></g><path id="Path_93_" class="st12" d="M103.8 371.6v.9c-.5-.2-1-.5-1.4-.9-.2-.3-.3-.7-.2-1.1l1.6.3v.8z"></path><g transform="translate(19 6)"><path class="st46" d="M86.9 362.4c-.3-.3-.9-.4-1.4-.1-.4.2-.6.6-.6 1-.3-.1-.7-.1-1.1.1-.6.3-.8.9-.6 1.3l.1.1c.1.1.1.1.2.1h.1c.7.6 1.6 1.1 2.5 1.3.5.2.8.7 1.3.8.1.1.2.1.4 0 .1-.1.2-.2.2-.3l.2-.7c.1-1.2-.3-2.6-1.3-3.6z"></path><path id="Path_92_" class="st11" d="M84.9 363.3c1.2.6 2.1 1.6 2.5 2.8 0 0 .1.1.1-.1-.4-1.3-1.3-2.3-2.5-2.8h-.2l-.1.1h.2z"></path></g><path id="Path_91_" class="st12" d="M103.8 377.8v.6l.4-.2c.1-.1.1-.2.1-.4 0-.1-.1-.2-.2-.2l-.3.2z"></path><path id="Path_90_" class="st12" d="M102 373.7v.7l-.4-.3v-.3c.1-.1.1-.2.2-.2l.2.1z"></path><path id="Path_89_" class="st12" d="M102 385.8v.6l-.4-.3v-.3c.1-.1.1-.2.2-.2l.2.2z"></path></g><path id="Path_88_" class="st9" d="M112 422s4-.4 4.3-.4l6.5-.1.4 3.3c-2 .9-4.2 1.3-6.4 1.2l-2.1.5c-.4.5-1 .8-1.7.8l1.1-1.3 2.6-.9-3.2.3c-.9.5-1.9.6-2.8.1l2.3-1 2.6-.5-2.6.1c-.7.7-1.7.9-2.6.7l2.3-1.6 2.7-.5-3.5.2c-.6.4-1.4.4-2 0l2.1-.9z"></path></g></g></g></g><g><path class="st14" d="M528.8 641.8c-.3-1.8-1.2-3.9-2.3-5.2l-4.5-4.8c-.8-.9-1.8-1.3-2.4-.9-.7.4-.8 1.8-.1 3.1 0 .1.1.2.1.3l5.1 8.6c.1.1.1.2.2.3 1 1.4 2.4 2 3.3 1.5.8-.6 1-1.7.6-2.9z"></path><path class="st47" d="M529.2 641.2c-.3-1.7-2.1-5.1-2.3-5.1l-4.4-4.8c-.8-.9-1.7-1.3-2.4-.9s-.7 1.8-.1 3c0 .1.1.2.1.3l5.1 8.5c.1.1.1.2.2.3 1 1.3 2.4 2 3.2 1.5.7-.6.9-1.6.6-2.8z"></path><ellipse transform="rotate(-30.93 522.95 632.46)" class="st12" cx="523" cy="632.5" rx="1.7" ry="2.9"></ellipse><path class="st47" d="M520.1 630.3s1.2-.8 2-1c.2-.1.8-.1.8-.1l-.6.7s-1.5.8-1 3l-.4.4-.8-1.7v-1.3z"></path><path class="st12" d="M521.2 632.1v-7.8l3.7.9v8.4z"></path><path class="st47" d="M522.7 635.3s-.1-1.3 0-2.4c0-.3.3-.6.7-.6l1.3-.1c.7 0 1.4.4 1.5 1.1.3 1.1 1.2 3.6 1.6 4.5l-5.1-2.5z"></path><path class="st12" d="M527.4 623.9l.6-2.9 3.6.8-.5 1.7-.4 3.3z"></path><path class="st14" d="M539 630.4c-1.1-1.4-2.9-2.9-4.6-3.4l-6.3-2.1c-1.1-.4-2.2-.3-2.6.3-.4.7.2 1.9 1.4 2.7l.2.2 8.7 5c.1.1.2.1.3.1 1.5.7 3.1.6 3.6-.3.6-.5.2-1.6-.7-2.5z"></path><path class="st47" d="M539 629.8c-1.1-1.4-4.3-3.4-4.5-3.4l-6.2-2c-1.1-.4-2.1-.3-2.5.3-.4.7.2 1.9 1.4 2.7l.2.2 8.5 4.9c.1.1.2.1.3.1 1.5.7 3 .6 3.5-.3.5-.7.1-1.7-.7-2.5z"></path><ellipse transform="rotate(-60 529.382 625.188)" class="st12" cx="529.4" cy="625.2" rx="1.7" ry="2.9"></ellipse><path class="st47" d="M530.5 627.8s-.7-1.1-1.2-2.1c-.1-.3 0-.7.3-.9l1.1-.7c.6-.4 1.4-.3 1.9.2.8.8 2.8 2.5 3.6 3.1l-5.7.4zM525.8 624.7s.7-1.3 1.2-1.9c.1-.1.7-.5.7-.5l-.2.9s-.9 1.4.6 3.2l-.2.5-1.6-1.1-.5-1.1z"></path><path class="st12" d="M520 523.3s.4 30 11.7 33c0 0 .3 1.6-.7 2.8-1.5 1.6-2.9 1.3-2.9 1.3s-12.8-3.5-13.9-26.1l5.8-11z"></path><path class="st11" d="M511.1 547.1l-17.8 8.4c-1.5 3.4-2.3 9-2.3 12.7 0 15.6 11.2 15.8 27.6 21 1 .3 4.4 1.1 4.4 1.1-2.3 8.4-2 37.6-2 37.6h4.1s8.1-41.1 6.1-42.2l-24.2-16 28.4 14.1s-2.7 2.3-7.9 36.6l5 .6 10.8-40.5c1.5-4.1-27.8-14.7-28.7-19.6l-3.5-13.8z"></path><ellipse transform="rotate(-30 501.902 551.407)" class="st12" cx="501.9" cy="551.4" rx="10.2" ry="5.9"></ellipse><path class="st8" d="M532.1 556.7s.1-2.6-.4-3.2c-.3-.4-1.4-1.5-1.4-1.5l-1.7-.9s-.1 1.2 1.2 1.7l.3 1.4s-2 1.3-1 3.4l3-.9z"></path><path transform="rotate(5.674 529.809 621)" class="st48" d="M526.9 620.3h5.8v1.4h-5.8z"></path><path class="st48" d="M520.4 626.4h5.1v1.7h-5.1z"></path><path class="st12" d="M512 515.8c.3-.1-2.1.3-3.7.8-4.3 1.6-10.6 5-14.5 6.8-2.9 1.4-5.7 3.5-7.3 5.4 0 0-.1.1-.2.3 0 .1-.1.1-.1.2-4.7 4.3-33.6 40.2 9.6 36.6l-.2-4.2s-15.1.1-15.7-6.1c-.6-6 5.3-11.1 8.1-12.6l2.7 5.1c.6 1.2.4 1.7.5 3 .1.9-.9 3.4 1.2 3.4h.3l18.7-10.7c1.6 0 1.1-1.8 1.3-2.5.7-4 7.2-14.3 7.2-14.3 1.8-5.5-2.2-11.2-7.9-11.2z"></path><path class="st9" d="M506.7 563.1l2.5 1.8s-.6.6-1.8 0l-1-.6-1.9-.2 2.3 1s1.8 2.3.9 2.6l-1.7.5s-.4.1-.7-.2c-.2-.2-.7-.8-.7-.8l-1.7-.6c-.8 1.1-5.7-1.4-5.7-1.4l.4-3.4 5.9.9 1 .1 2.2.3z"></path><path fill="#43414e" d="M499.7 571.9l10.2 2.3 17.1-9.7-9.8-2.5z"></path><path fill="#888a8e" d="M506.3 568.7l3.9.8h.1l.3-3.3z"></path><path class="st51" d="M508.6 573.2l1.1.3 1.2-.7-1.1-.2zM507.3 572.9l1.1.2 1.1-.6-1-.3zM506.1 572.5l1 .3 1.1-.7-1-.2zM508.7 572.1l1.1.2 1.1-.6-1-.3zM507.5 571.7l1 .3 1.2-.7-1.1-.2zM508.9 571l1 .2 1.1-.6-1-.3z"></path><path class="st51" d="M509.9 574.2l1.4-15.5 17.2-9.6-1.5 15.4z"></path><path d="M520 562.3c-.4.2-.7-.1-.6-.6 0-.5.4-1.1.8-1.4-.2-.2-.4-.2-.8 0-.6.4-1.2 1.3-1.3 2.2-.1.8.4 1.2 1 .9.4-.3.6-.7.9-1.1z" fill="#fff"></path><path class="st11" d="M494.7 561.5l.1 5.3h-.7v-5.3z"></path><path class="st12" d="M497.7 561.2l.1 5-3.2.9.1-5.8z"></path><path class="st11" d="M488.2 543.3s3.9-4.1 5.1-6.8l.2 1.9s-2.1 3.7-4.5 6.5l-.8-1.6z"></path><path class="st9" d="M528 552.1l-2.6.1s.2.7 1.3.8h1l1.4.7-2.1-.4s-2.4.8-1.8 1.5l1 1.2s.3.3.6.2c.3 0 .8-.3.8-.3l1.5.4c-2.9 2.7.2 2.9.2 2.9s3.3-.8 2.6-4.3c-.1-.6-1.4-1.8-1.4-1.8l-.8-.4-1.7-.6z"></path><path class="st11" d="M497.5 555.5l-1.7.8v2.6h1.7zM510.6 549.1l-1.4.4v4.9h1.4zM507.6 549.5l-3.4 1.9v5.8h3.4z"></path><ellipse transform="rotate(-30 501.854 548.188)" class="st12" cx="501.9" cy="548.2" rx="11.8" ry="6.9"></ellipse><path class="st8" d="M505.1 520.6v-7.1H498v7.1c0 1.7-1.4 5-3 5l6.5 7.2 6.6-7.2c-1.6 0-3-3.3-3-5z"></path><path class="st45" d="M505.1 517.7v-3.2l-7 .2v1.7c1.1 1.1 2.5 1.8 5.6 1.7.4.1 1.1-.1 1.4-.4z"></path><path class="st9" d="M502.9 501.9c-3.1-.2-5.7 2-6 5l-.1 2h-.1c-1 .1-1.6 1-1.5 1.9.1.9.9 1.5 1.8 1.5.6 2.4 2.7 4.4 5.4 4.6 2.8.2 5.1-.4 5.4-4.5l.3-4.6c.1-3.1-2.2-5.7-5.2-5.9z"></path><path class="st11" d="M502.9 501.9c-3.1-.2-5.7 2-6 5l-.1 1.2-.1.7.5 1.4 1.3-.4-.4-1.6c1.7-.2 1.1-1.8 1.1-1.8-.5-1 .4-2.1.4-2.1 2.2-1.8 3.6.4 3.6.4.2.6.8 1 1.5 1.2 1 .2 2.1-.5 2.3-1.5 0-.1.1-.2.1-.2-.9-1.3-2.5-2.2-4.2-2.3z"></path><path class="st12" d="M505.1 516.4c.1 1.4-.2 3.2-1.2 4.6 0 0-5.1-.1-5.7-1.2-.1-.2-.1-.4-.1-.7h-.1l-1.6 2.5-2.2 3.8 7.4 7.6 9.1-9.6-5.6-7z"></path><path class="st11" d="M503.6 524l.6-1.9 1.9.4s1.3 1.7-.2 2.6c-1.5.9-2.3-1.1-2.3-1.1z"></path><path class="st11" d="M504.3 524.3s0 7.7-1.9 11.5-.6 6.9 2 7.1l.6-2s-1.2 0-1.4-1.2c-.3-1.6 1.2-4.1 1.4-5 .4-1.3 1.1-3.8 1.4-10.4h-2.1z"></path></g><g class="st3"><path fill="#a2afef" d="M539.9 465.5v44.8l44.3-25.6v-44.8z"></path></g><path class="st12" d="M191.5 521.6s-20.6 14.6-22.9 13.8l21.7-14.2 1.2.4"></path></svg> 