<svg xmlns="http://www.w3.org/2000/svg" viewBox="0 0 94 122"><path fill="#fff" d="M8.1 89.9 47.6 110l38-20.1V11.3H8.1z"/><path fill="#f2f3f2" d="M86.4 11.6 7.3 91.3l41 20.3 38.1-19.5z"/><path d="M5.5 37.5v54.1l1.4.7 39.5 20.1 1.2.6 1.2-.6 38.1-20.1 1.4-.7V8.7H5.5v28.8zm2.6 52.6V11.3h77.6v78.8l-38.1 20.1L8.1 90.1z" fill="#dcdedc"/><path d="M46.9 12.6c.4 0 .8 0 1.2.1L46.9 15c-1.8-.1-3.4 1.3-3.5 3.1-.1 1.8 1.3 3.4 3.1 3.5h.4c.8 0 1.6-.3 2.2-.8l1.3 2.2c-1 .7-2.2 1.1-3.5 1.1-3.2.1-5.9-2.3-6-5.5-.1-3.2 2.3-5.9 5.5-6h.5zm4.1 4.9 1.5 2.5-1.5 2.4-1.4-2.4h-2.9l1.5-2.5H51zm-2.4-.9c0-.4.1-.8.3-1.1.2-.3.6-.6.9-.8l.2-.1c.4-.2.5-.3.5-.5s-.3-.4-.5-.4c-.4 0-.7.2-.9.6l-.5-.5c.1-.2.3-.4.5-.6.3-.2.6-.2.9-.2.3 0 .7.1.9.3.2.2.4.5.4.8 0 .5-.3.9-.9 1.1l-.3.2c-.3.2-.5.3-.6.6h1.8v.7l-2.7-.1zm-1.7 12.5 9.5-5.4v-15H37.3v14.9l9.6 5.5z" fill="#ff492c"/><path d="M90.2 64.5H3.6l-3.2 7 3.2 7h86.6l3.1-7z" fill="#23cca2"/><path fill="#252530" d="M18.69 60q-.12 0-.17-.11l-1.5-3.32q-.02-.05-.07-.05h-1.12q-.06 0-.06.06v3.28q0 .06-.04.1-.04.04-.1.04h-1.4q-.06 0-.11-.04-.04-.04-.04-.1v-8.12q0-.06.04-.1.05-.04.11-.04h3.43q.77 0 1.35.31.58.31.9.89.32.58.32 1.33 0 .82-.41 1.4t-1.14.82q-.06.03-.04.09l1.63 3.39q.03.05.03.07 0 .1-.13.1h-1.48zm-2.86-6.95q-.06 0-.06.06v2.05q0 .06.06.06h1.58q.5 0 .82-.3.32-.3.32-.78 0-.48-.32-.78-.32-.31-.82-.31h-1.58zm10.89 3.23q.07.46.05 1.02-.02.14-.16.14H22.9q-.07 0-.05.06.04.24.14.48.31.68 1.27.68.77-.02 1.21-.63.05-.07.11-.07.03 0 .08.05l.87.85q.06.06.06.11 0 .02-.05.09-.4.5-1.02.77-.63.27-1.37.27-1.03 0-1.75-.47-.71-.47-1.02-1.31-.25-.6-.25-1.57 0-.66.18-1.17.27-.85.96-1.35.69-.51 1.64-.51 1.2 0 1.93.7.72.7.88 1.86zm-2.8-1.09q-.75 0-.99.71-.05.15-.09.38 0 .06.06.06h2.08q.07 0 .05-.06-.06-.35-.06-.34-.11-.36-.38-.55-.27-.2-.67-.2zM27.95 60q-.06 0-.1-.04-.04-.04-.04-.1v-8.12q0-.06.04-.1.04-.04.1-.04h1.41q.06 0 .1.04.04.04.04.1v8.12q0 .06-.04.1-.04.04-.1.04h-1.41zm5.25-6.26q.78 0 1.39.27.61.27.95.73.35.47.35 1.05v4.07q0 .06-.05.1-.04.04-.1.04h-1.4q-.06 0-.1-.04-.05-.04-.05-.1v-.4q0-.04-.02-.05-.02-.01-.05.03-.5.66-1.62.66-.93 0-1.51-.46t-.58-1.34q0-.93.65-1.44.65-.51 1.85-.51h1.22q.06 0 .06-.06v-.26q0-.4-.24-.62-.24-.22-.72-.22-.37 0-.61.13-.25.13-.32.37-.04.13-.16.12l-1.45-.19q-.14-.02-.13-.11.05-.5.4-.91.35-.41.94-.64.58-.22 1.3-.22zm-.24 5.1q.51 0 .87-.28t.36-.71v-.43q0-.06-.06-.06h-.86q-.54 0-.85.2-.3.21-.3.58 0 .32.23.51.22.19.61.19zm7.52-3.8q0 .06-.04.11-.04.04-.1.04h-1.15q-.06 0-.06.06v2.54q0 .4.16.59.16.19.52.19h.4q.06 0 .1.04.04.05.04.11v1.14q0 .13-.14.15-.51.03-.72.03-1 0-1.49-.33t-.51-1.25v-3.21q0-.06-.06-.06h-.68q-.06 0-.1-.04-.04-.05-.04-.11v-1.06q0-.06.04-.11.04-.04.1-.04h.68q.06 0 .06-.06v-1.43q0-.06.05-.1.04-.04.1-.04h1.34q.06 0 .1.04.05.04.05.1v1.43q0 .06.06.06h1.15q.06 0 .1.04.04.05.04.11v1.06zm1.93-1.9q-.4 0-.67-.27t-.27-.68q0-.42.26-.69.26-.26.68-.26.42 0 .69.26.26.27.26.69 0 .41-.27.68-.27.27-.68.27zM41.69 60q-.06 0-.1-.04-.04-.04-.04-.1v-5.9q0-.06.04-.1.04-.04.1-.04h1.41q.06 0 .1.04.04.04.04.1v5.9q0 .06-.04.1-.04.04-.1.04h-1.41zm5.6.1q-1.01 0-1.73-.53t-.99-1.44q-.16-.57-.16-1.23 0-.7.16-1.27.28-.89 1-1.39.72-.5 1.73-.5.98 0 1.68.49.69.5.98 1.39.19.6.19 1.26 0 .65-.16 1.21-.27.94-.98 1.47-.72.54-1.72.54zm0-1.46q.39 0 .67-.24.27-.24.39-.66.1-.38.1-.84 0-.5-.1-.85-.13-.41-.4-.63-.28-.23-.68-.23t-.67.23q-.27.22-.39.63-.1.29-.1.85 0 .54.08.84.12.42.41.66.28.24.69.24zm7.17-4.9q.96 0 1.55.58.59.59.59 1.6v3.94q0 .06-.04.1-.05.04-.11.04h-1.4q-.06 0-.1-.04-.04-.04-.04-.1v-3.59q0-.48-.27-.78-.27-.3-.72-.3-.44 0-.71.3-.27.3-.27.78v3.59q0 .06-.04.1-.05.04-.11.04h-1.4q-.06 0-.1-.04-.04-.04-.04-.1v-5.88q0-.06.04-.11.04-.04.1-.04h1.4q.06 0 .11.04.04.05.04.11v.42q0 .03.02.04.03.02.04-.01.49-.69 1.46-.69zm5.81 6.34q-.8 0-1.4-.22-.6-.23-.93-.64-.33-.41-.33-.92v-.12q0-.06.04-.11.04-.04.1-.04h1.33q.06 0 .1.04.05.05.05.11v.01q0 .26.29.45.29.18.74.18.41 0 .66-.16.25-.16.25-.4 0-.22-.22-.32-.21-.11-.7-.23-.57-.15-.89-.28-.77-.26-1.23-.65-.45-.38-.45-1.1 0-.89.69-1.41.69-.52 1.83-.52.77 0 1.34.24.58.25.9.69.31.45.31 1.01 0 .06-.04.1-.04.05-.1.05h-1.28q-.06 0-.11-.05-.04-.04-.04-.1 0-.26-.27-.44t-.71-.18q-.4 0-.65.14-.25.15-.25.4 0 .24.24.36.25.12.83.25.13.04.3.08.16.04.36.1.85.25 1.34.65.49.39.49 1.15 0 .89-.7 1.39-.7.49-1.89.49zm6.78-6.34q.96 0 1.55.58.59.59.59 1.6v3.94q0 .06-.05.1-.04.04-.1.04h-1.4q-.06 0-.1-.04-.05-.04-.05-.1v-3.59q0-.48-.27-.78-.27-.3-.71-.3-.44 0-.71.3-.27.3-.27.78v3.59q0 .06-.05.1-.04.04-.1.04h-1.4q-.06 0-.1-.04-.05-.04-.05-.1v-8.12q0-.06.05-.1.04-.04.1-.04h1.4q.06 0 .1.04.05.04.05.1v2.66q0 .03.02.04.02.02.04-.01.49-.69 1.46-.69zm4.26-.6q-.41 0-.68-.27-.27-.27-.27-.68 0-.42.27-.69.26-.26.68-.26.42 0 .68.26.27.27.27.69 0 .41-.27.68-.27.27-.68.27zM70.59 60q-.06 0-.1-.04-.04-.04-.04-.1v-5.9q0-.06.04-.1.04-.04.1-.04h1.4q.06 0 .11.04.04.04.04.1v5.9q0 .06-.04.1-.05.04-.11.04h-1.4zm8.38-4.51q.21.61.21 1.44t-.23 1.5q-.27.77-.87 1.22-.59.45-1.47.45-.86 0-1.34-.6-.02-.04-.05-.03-.02.01-.02.05v2.57q0 .06-.04.1-.05.04-.11.04h-1.4q-.06 0-.1-.04-.04-.04-.04-.1v-8.11q0-.06.04-.11.04-.04.1-.04h1.4q.06 0 .11.04.04.05.04.11v.39q0 .04.02.04.03.01.05-.01.5-.66 1.39-.66.83 0 1.44.46.6.46.87 1.29zm-1.84 2.69q.3-.47.3-1.28 0-.75-.25-1.2-.28-.51-.89-.51-.55 0-.83.51-.25.44-.25 1.22 0 .8.26 1.24.28.48.82.48.54 0 .84-.46zM39.94 43.62q-.07.04 0 .07 1.14.59 1.14 1.96 0 1.16-.79 1.76-.79.59-2.08.59h-3.1q-.06 0-.11-.04-.04-.04-.04-.1v-8.12q0-.06.04-.1.05-.04.11-.04h3.01q2.84 0 2.84 2.3 0 1.2-1.02 1.72zm-3.23-2.57q-.06 0-.06.06v1.87q0 .06.06.06h1.41q.56 0 .87-.26.32-.26.32-.72 0-.47-.32-.74-.31-.27-.87-.27h-1.41zm1.5 5.49q.56 0 .87-.29.31-.28.31-.77t-.31-.77q-.31-.29-.88-.29h-1.49q-.06 0-.06.06v2q0 .06.06.06h1.5zm9.54-2.26q.08.46.05 1.02-.01.14-.15.14h-3.71q-.07 0-.05.06.04.24.13.48.31.68 1.27.68.77-.02 1.22-.63.04-.07.1-.07.04 0 .09.05l.86.85q.06.06.06.11 0 .02-.05.09-.39.5-1.02.77-.62.27-1.36.27-1.04 0-1.75-.47t-1.03-1.31q-.25-.6-.25-1.57 0-.66.18-1.17.28-.85.97-1.35.69-.51 1.64-.51 1.2 0 1.92.7.73.7.88 1.86zm-2.79-1.09q-.76 0-1 .71-.05.15-.08.38 0 .06.06.06h2.07q.08 0 .05-.06-.06-.35-.06-.34-.11-.36-.38-.55-.27-.2-.66-.2zm6.26 4.89q-.8 0-1.4-.22-.6-.23-.93-.64-.33-.41-.33-.92v-.12q0-.06.04-.11.04-.04.1-.04h1.33q.06 0 .11.04.04.05.04.11v.01q0 .26.29.45.3.18.74.18.41 0 .66-.16.25-.16.25-.4 0-.22-.21-.32-.22-.11-.71-.23-.57-.15-.89-.28-.77-.26-1.22-.65-.46-.38-.46-1.1 0-.89.69-1.41.69-.52 1.83-.52.77 0 1.34.24.58.25.9.69.32.45.32 1.01 0 .06-.05.1-.04.05-.1.05h-1.28q-.06 0-.1-.05-.05-.04-.05-.1 0-.26-.27-.44t-.71-.18q-.4 0-.65.14-.25.15-.25.4 0 .24.25.36.24.12.82.25.13.04.3.08.17.04.36.1.85.25 1.34.65.49.39.49 1.15 0 .89-.7 1.39-.7.49-1.89.49zm7.09-5.04q0 .06-.04.11-.04.04-.1.04h-1.15q-.06 0-.06.06v2.54q0 .4.16.59.16.19.52.19h.4q.06 0 .1.04.04.05.04.11v1.14q0 .13-.14.15-.51.03-.72.03-1 0-1.49-.33t-.5-1.25v-3.21q0-.06-.06-.06h-.69q-.06 0-.1-.04-.04-.05-.04-.11v-1.06q0-.06.04-.11.04-.04.1-.04h.69q.06 0 .06-.06v-1.43q0-.06.04-.1.04-.04.1-.04h1.34q.06 0 .11.04.04.04.04.1v1.43q0 .06.06.06h1.15q.06 0 .1.04.04.05.04.11v1.06z"/><path fill="#242530" d="M40.46 69.28q0 .05-.04.08-.03.04-.08.04h-3.4q-.05 0-.05.05v1.87q0 .05.05.05h2.29q.05 0 .09.03.03.04.03.09v.76q0 .05-.03.09-.04.03-.09.03h-2.29q-.05 0-.05.05v2.86q0 .05-.04.08-.03.04-.08.04h-.92q-.05 0-.08-.04-.04-.03-.04-.08v-6.76q0-.05.04-.08.03-.04.08-.04h4.49q.05 0 .08.04.04.03.04.08v.76zm4.56 6.12q-.1 0-.13-.1l-.33-1.07q-.02-.04-.05-.04h-2.64q-.03 0-.05.04l-.33 1.07q-.03.1-.13.1h-1q-.06 0-.09-.04-.03-.03-.01-.1l2.17-6.76q.03-.1.13-.1h1.25q.1 0 .13.1l2.18 6.76q.01.02.01.05 0 .09-.11.09h-1zm-2.89-2.18q-.01.06.04.06h2.03q.06 0 .04-.06l-1.03-3.35q-.01-.04-.03-.04-.02 0-.03.04l-1.02 3.35zm5.15 2.18q-.05 0-.08-.04-.04-.03-.04-.08v-6.76q0-.05.04-.08.03-.04.08-.04h.92q.05 0 .09.04.03.03.03.08v5.83q0 .05.05.05h3.35q.05 0 .08.04.04.03.04.08v.76q0 .05-.04.08-.03.04-.08.04h-4.44zm5.71 0q-.05 0-.08-.04-.04-.03-.04-.08v-6.76q0-.05.04-.08.03-.04.08-.04h.92q.05 0 .09.04.03.03.03.08v5.83q0 .05.05.05h3.35q.05 0 .09.04.03.03.03.08v.76q0 .05-.03.08-.04.04-.09.04h-4.44z"/><path fill="#252530" d="M35.42 93.46q-.03.03-.02.06.02.03.06.03h3.93q.07 0 .12.05.06.05.06.12v1.41q0 .07-.06.12-.05.05-.12.05h-6.52q-.08 0-.13-.05t-.05-.12v-1.34q0-.13.09-.22.71-.69 1.45-1.51.74-.82.93-1.02.4-.48.82-.92 1.32-1.46 1.32-2.17 0-.51-.36-.84-.36-.32-.94-.32t-.94.32q-.37.33-.37.87v.36q0 .07-.05.12-.05.05-.12.05h-1.71q-.07 0-.12-.05-.06-.05-.06-.12v-.68q.05-.78.5-1.39.45-.6 1.19-.92.75-.32 1.68-.32 1.03 0 1.79.39.76.38 1.17 1.03.42.66.42 1.45 0 .61-.31 1.25-.3.64-.91 1.38-.45.56-.97 1.12-.52.55-1.55 1.59l-.22.22zm8.86 2q-1.6 0-2.52-.89-.93-.89-.93-2.43v-3.83q0-1.51.93-2.39.92-.89 2.52-.89 1.59 0 2.53.89.93.88.93 2.39v3.83q0 1.54-.93 2.43-.94.89-2.53.89zm0-1.75q.65 0 1.03-.4.39-.4.39-1.07v-3.99q0-.66-.39-1.06-.38-.4-1.03-.4-.64 0-1.02.4-.39.4-.39 1.06v3.99q0 .67.39 1.07.38.4 1.02.4zm7.52-.25q-.03.03-.01.06.01.03.06.03h3.93q.07 0 .12.05.05.05.05.12v1.41q0 .07-.05.12-.05.05-.12.05h-6.53q-.07 0-.12-.05-.05-.05-.05-.12v-1.34q0-.13.08-.22.72-.69 1.45-1.51.74-.82.93-1.02.41-.48.83-.92 1.32-1.46 1.32-2.17 0-.51-.36-.84-.37-.32-.95-.32t-.94.32q-.36.33-.36.87v.36q0 .07-.05.12-.05.05-.13.05h-1.71q-.07 0-.12-.05-.05-.05-.05-.12v-.68q.04-.78.49-1.39.45-.6 1.2-.92.75-.32 1.67-.32 1.03 0 1.79.39.77.38 1.18 1.03.41.66.41 1.45 0 .61-.3 1.25-.31.64-.92 1.38-.45.56-.97 1.12-.52.55-1.55 1.59l-.22.22zm6.83-8.27q.08-.04.22-.04h1.76q.07 0 .12.05.05.05.05.12v9.81q0 .07-.05.12-.05.05-.12.05h-1.7q-.07 0-.12-.05-.06-.05-.06-.12v-7.95q0-.03-.02-.06-.03-.03-.06-.01l-1.44.39-.06.01q-.13 0-.13-.16l-.04-1.24q0-.15.13-.21l1.52-.71z"/></svg>