<svg xmlns="http://www.w3.org/2000/svg" viewBox="0 0 94 122"><path fill="#fff" d="M8.1 89.9 47.6 110l38-20.1V11.3H8.1z"/><path fill="#f2f3f2" d="M86.4 11.6 7.3 91.3l41 20.3 38.1-19.5z"/><path d="M5.5 37.5v54.1l1.4.7 39.5 20.1 1.2.6 1.2-.6 38.1-20.1 1.4-.7V8.7H5.5v28.8zm2.6 52.6V11.3h77.6v78.8l-38.1 20.1L8.1 90.1z" fill="#dcdedc"/><path d="M46.9 12.6c.4 0 .8 0 1.2.1L46.9 15c-1.8-.1-3.4 1.3-3.5 3.1-.1 1.8 1.3 3.4 3.1 3.5h.4c.8 0 1.6-.3 2.2-.8l1.3 2.2c-1 .7-2.2 1.1-3.5 1.1-3.2.1-5.9-2.3-6-5.5-.1-3.2 2.3-5.9 5.5-6h.5zm4.1 4.9 1.5 2.5-1.5 2.4-1.4-2.4h-2.9l1.5-2.5H51zm-2.4-.9c0-.4.1-.8.3-1.1.2-.3.6-.6.9-.8l.2-.1c.4-.2.5-.3.5-.5s-.3-.4-.5-.4c-.4 0-.7.2-.9.6l-.5-.5c.1-.2.3-.4.5-.6.3-.2.6-.2.9-.2.3 0 .7.1.9.3.2.2.4.5.4.8 0 .5-.3.9-.9 1.1l-.3.2c-.3.2-.5.3-.6.6h1.8v.7l-2.7-.1zm-1.7 12.5 9.5-5.4v-15H37.3v14.9l9.6 5.5z" fill="#ff492c"/><path d="M90.2 64.5H3.6l-3.2 7 3.2 7h86.6l3.1-7z" fill="#ffd200"/><path fill="#252530" d="M22.04 60.12q-1.15 0-2.03-.45-.88-.45-1.36-1.27-.49-.82-.49-1.88v-6.84q0-.07.05-.13.05-.05.13-.05h1.75q.08 0 .13.05.06.06.06.13v6.86q0 .79.48 1.28.49.49 1.28.49.8 0 1.29-.49t.49-1.28v-6.86q0-.07.05-.13.05-.05.12-.05h1.76q.07 0 .13.05.05.06.05.13v6.84q0 1.06-.49 1.88-.49.82-1.36 1.27-.88.45-2.04.45zm8.57-.02q-1 0-1.75-.28t-1.17-.79q-.41-.51-.41-1.16v-.15q0-.07.05-.13.06-.05.13-.05h1.66q.08 0 .13.05.05.06.05.13v.01q0 .34.37.57.37.23.93.23.51 0 .82-.2.31-.21.31-.5 0-.27-.27-.41-.26-.13-.88-.28-.71-.18-1.11-.35-.96-.33-1.53-.81-.57-.48-.57-1.38 0-1.11.86-1.76.87-.65 2.29-.65.96 0 1.68.3.72.31 1.12.87.39.55.39 1.26 0 .07-.05.12-.05.05-.13.05h-1.6q-.07 0-.13-.05-.05-.05-.05-.12 0-.33-.34-.56-.33-.23-.89-.23-.49 0-.81.19-.32.18-.32.49 0 .3.31.45.31.15 1.03.32.16.04.38.09.21.05.44.13 1.07.32 1.68.81.62.5.62 1.44 0 1.11-.88 1.73-.87.62-2.36.62zm7.53-7.93q.98 0 1.74.34t1.19.92q.43.59.43 1.31v5.08q0 .08-.05.13-.06.05-.13.05h-1.76q-.07 0-.12-.05-.06-.05-.06-.13v-.49q0-.05-.02-.06-.04-.02-.06.03-.64.82-2.03.82-1.17 0-1.89-.57t-.72-1.68q0-1.15.81-1.79.81-.64 2.31-.64h1.53q.07 0 .07-.07v-.33q0-.5-.29-.78-.31-.27-.91-.27-.46 0-.77.16-.3.17-.39.47-.05.16-.2.15L35 54.53q-.18-.03-.16-.14.06-.63.5-1.14.44-.51 1.17-.79.73-.29 1.63-.29zm-.3 6.38q.64 0 1.09-.35.45-.35.45-.89v-.54q0-.07-.07-.07h-1.08q-.68 0-1.06.26-.38.25-.38.72 0 .4.28.63.29.24.77.24zm11.97-4.3q.28.79.28 1.87 0 1.03-.25 1.81-.35 1.02-1.1 1.61-.76.58-1.79.58-1.1 0-1.73-.82-.03-.03-.06-.03-.03.01-.03.06v.49q0 .08-.05.13-.06.05-.13.05h-1.76q-.07 0-.12-.05-.06-.05-.06-.13V49.68q0-.07.06-.13.05-.05.12-.05h1.76q.07 0 .13.05.05.06.05.13v3.21q0 .05.03.06.03.01.06-.03.58-.75 1.66-.75 1.1 0 1.84.56t1.09 1.52zm-2.22 3.41q.31-.57.31-1.5 0-1.04-.36-1.59-.36-.58-1.06-.58-.66 0-1.01.58-.33.57-.33 1.58 0 1 .3 1.51.36.65 1.05.65.74 0 1.1-.65zm5.03-6.24q-.52 0-.85-.34-.34-.33-.34-.84 0-.53.33-.86.33-.33.86-.33.52 0 .85.33.33.33.33.86 0 .51-.34.84-.34.34-.84.34zm-.9 8.58q-.08 0-.13-.05t-.05-.13v-7.36q0-.08.05-.13t.13-.05h1.75q.08 0 .13.05t.05.13v7.36q0 .08-.05.13t-.13.05h-1.75zm3.76 0q-.07 0-.13-.05-.05-.05-.05-.13V49.68q0-.07.05-.13.06-.05.13-.05h1.76q.07 0 .12.05.06.06.06.13v10.14q0 .08-.06.13-.05.05-.12.05h-1.76zm4.62-8.58q-.51 0-.85-.34-.34-.33-.34-.84 0-.53.33-.86.34-.33.86-.33t.85.33q.33.33.33.86 0 .51-.33.84-.34.34-.85.34zM59.2 60q-.08 0-.13-.05t-.05-.13v-7.36q0-.08.05-.13t.13-.05h1.75q.08 0 .13.05t.05.13v7.36q0 .08-.05.13t-.13.05H59.2zm8.01-6.19q0 .07-.05.12-.05.06-.13.06h-1.44q-.07 0-.07.07v3.18q0 .49.2.74.2.24.65.24h.5q.07 0 .12.05.06.05.06.13v1.42q0 .17-.18.19-.64.03-.9.03-1.25 0-1.86-.41-.62-.41-.63-1.55v-4.02q0-.07-.08-.07h-.85q-.08 0-.13-.06-.05-.05-.05-.12v-1.34q0-.07.05-.13.05-.05.13-.05h.85q.08 0 .08-.08v-1.78q0-.07.05-.13.05-.05.13-.05h1.68q.07 0 .12.05.06.06.06.13v1.78q0 .08.07.08h1.44q.08 0 .13.05.05.06.05.13v1.34zm1.23 9.17q-.04 0-.07-.05-.03-.05-.03-.13v-1.37q0-.08.05-.13.05-.06.13-.06.63-.01.99-.1.37-.09.59-.35.22-.25.34-.75.01-.03 0-.08l-2.46-7.47q-.02-.03-.02-.08 0-.13.17-.13H70q.17 0 .21.15l1.26 4.86q.02.04.05.04.03 0 .04-.04l1.26-4.86q.05-.15.21-.15h1.83q.09 0 .13.05.04.05.01.16l-2.6 7.79q-.37 1.1-.76 1.65-.39.55-1.1.8-.7.25-1.99.25h-.11zM38.17 39.53q-.09.04 0 .09 1.42.73 1.42 2.44 0 1.46-.99 2.2-.99.74-2.59.74h-3.89q-.07 0-.12-.05-.06-.05-.06-.13V34.68q0-.07.06-.13.05-.05.12-.05h3.77q3.55 0 3.55 2.88 0 1.5-1.27 2.15zm-4.04-3.22q-.07 0-.07.08v2.34q0 .08.07.08h1.76q.7 0 1.1-.33.38-.33.38-.9 0-.59-.38-.93-.4-.34-1.1-.34h-1.76zm1.88 6.86q.69 0 1.08-.35.39-.35.39-.97 0-.61-.39-.97-.39-.35-1.1-.35h-1.86q-.07 0-.07.08v2.48q0 .08.07.08h1.88zm11.92-2.82q.09.57.06 1.27-.01.19-.19.19h-4.64q-.09 0-.06.07.05.3.17.6.39.84 1.59.84.96-.01 1.51-.78.06-.09.14-.09.04 0 .1.06l1.08 1.06q.08.08.08.14 0 .03-.06.12-.5.62-1.28.95-.77.34-1.71.34-1.29 0-2.18-.58-.89-.59-1.28-1.64-.32-.75-.32-1.96 0-.83.23-1.46.34-1.06 1.21-1.69.86-.63 2.04-.63 1.5 0 2.41.87.91.87 1.1 2.32zm-3.49-1.36q-.95 0-1.25.88-.06.2-.1.48 0 .07.07.07h2.6q.09 0 .06-.07-.08-.43-.08-.42-.13-.45-.47-.7-.34-.24-.83-.24zm7.83 6.11q-1.01 0-1.76-.28t-1.16-.79q-.41-.51-.41-1.16v-.15q0-.07.05-.13.05-.05.13-.05h1.66q.08 0 .13.05.05.06.05.13v.01q0 .34.37.57.37.23.92.23.51 0 .83-.2.31-.21.31-.5 0-.27-.27-.41-.27-.13-.88-.28-.71-.18-1.11-.35-.96-.33-1.53-.81-.57-.48-.57-1.38 0-1.11.86-1.76.86-.65 2.29-.65.96 0 1.68.3.72.31 1.12.87.39.55.39 1.26 0 .07-.05.12-.05.05-.13.05h-1.6q-.08 0-.13-.05t-.05-.12q0-.33-.34-.56-.34-.23-.89-.23-.5 0-.81.19-.32.18-.32.49 0 .3.31.45.31.15 1.03.32.16.04.37.09.21.05.45.13 1.07.32 1.68.81.62.5.62 1.44 0 1.11-.88 1.73-.88.62-2.36.62zm8.86-6.29q0 .07-.05.12-.05.06-.13.06h-1.44q-.07 0-.07.07v3.18q0 .49.2.74.2.24.66.24h.49q.07 0 .13.05.05.05.05.13v1.42q0 .17-.18.19-.63.03-.9.03-1.25 0-1.86-.41-.62-.41-.63-1.55v-4.02q0-.07-.08-.07h-.85q-.08 0-.13-.06-.05-.05-.05-.12v-1.34q0-.07.05-.13.05-.05.13-.05h.85q.08 0 .08-.08v-1.78q0-.07.05-.13.05-.05.13-.05h1.68q.07 0 .13.05.05.06.05.13v1.78q0 .08.07.08h1.44q.08 0 .13.05.05.06.05.13v1.34z"/><path fill="#242530" d="M40.46 69.28q0 .05-.04.08-.03.04-.08.04h-3.4q-.05 0-.05.05v1.87q0 .05.05.05h2.29q.05 0 .09.03.03.04.03.09v.76q0 .05-.03.09-.04.03-.09.03h-2.29q-.05 0-.05.05v2.86q0 .05-.04.08-.03.04-.08.04h-.92q-.05 0-.08-.04-.04-.03-.04-.08v-6.76q0-.05.04-.08.03-.04.08-.04h4.49q.05 0 .08.04.04.03.04.08v.76zm4.56 6.12q-.1 0-.13-.1l-.33-1.07q-.02-.04-.05-.04h-2.64q-.03 0-.05.04l-.33 1.07q-.03.1-.13.1h-1q-.06 0-.09-.04-.03-.03-.01-.1l2.17-6.76q.03-.1.13-.1h1.25q.1 0 .13.1l2.18 6.76q.01.02.01.05 0 .09-.11.09h-1zm-2.89-2.18q-.01.06.04.06h2.03q.06 0 .04-.06l-1.03-3.35q-.01-.04-.03-.04-.02 0-.03.04l-1.02 3.35zm5.15 2.18q-.05 0-.08-.04-.04-.03-.04-.08v-6.76q0-.05.04-.08.03-.04.08-.04h.92q.05 0 .09.04.03.03.03.08v5.83q0 .05.05.05h3.35q.05 0 .08.04.04.03.04.08v.76q0 .05-.04.08-.03.04-.08.04h-4.44zm5.71 0q-.05 0-.08-.04-.04-.03-.04-.08v-6.76q0-.05.04-.08.03-.04.08-.04h.92q.05 0 .09.04.03.03.03.08v5.83q0 .05.05.05h3.35q.05 0 .09.04.03.03.03.08v.76q0 .05-.03.08-.04.04-.09.04h-4.44z"/><path fill="#252530" d="M35.42 93.46q-.03.03-.02.06.02.03.06.03h3.93q.07 0 .12.05.06.05.06.12v1.41q0 .07-.06.12-.05.05-.12.05h-6.52q-.08 0-.13-.05t-.05-.12v-1.34q0-.13.09-.22.71-.69 1.45-1.51.74-.82.93-1.02.4-.48.82-.92 1.32-1.46 1.32-2.17 0-.51-.36-.84-.36-.32-.94-.32t-.94.32q-.37.33-.37.87v.36q0 .07-.05.12-.05.05-.12.05h-1.71q-.07 0-.12-.05-.06-.05-.06-.12v-.68q.05-.78.5-1.39.45-.6 1.19-.92.75-.32 1.68-.32 1.03 0 1.79.39.76.38 1.17 1.03.42.66.42 1.45 0 .61-.31 1.25-.3.64-.91 1.38-.45.56-.97 1.12-.52.55-1.55 1.59l-.22.22zm8.86 2q-1.6 0-2.52-.89-.93-.89-.93-2.43v-3.83q0-1.51.93-2.39.92-.89 2.52-.89 1.59 0 2.53.89.93.88.93 2.39v3.83q0 1.54-.93 2.43-.94.89-2.53.89zm0-1.75q.65 0 1.03-.4.39-.4.39-1.07v-3.99q0-.66-.39-1.06-.38-.4-1.03-.4-.64 0-1.02.4-.39.4-.39 1.06v3.99q0 .67.39 1.07.38.4 1.02.4zm7.52-.25q-.03.03-.01.06.01.03.06.03h3.93q.07 0 .12.05.05.05.05.12v1.41q0 .07-.05.12-.05.05-.12.05h-6.53q-.07 0-.12-.05-.05-.05-.05-.12v-1.34q0-.13.08-.22.72-.69 1.45-1.51.74-.82.93-1.02.41-.48.83-.92 1.32-1.46 1.32-2.17 0-.51-.36-.84-.37-.32-.95-.32t-.94.32q-.36.33-.36.87v.36q0 .07-.05.12-.05.05-.13.05h-1.71q-.07 0-.12-.05-.05-.05-.05-.12v-.68q.04-.78.49-1.39.45-.6 1.2-.92.75-.32 1.67-.32 1.03 0 1.79.39.77.38 1.18 1.03.41.66.41 1.45 0 .61-.3 1.25-.31.64-.92 1.38-.45.56-.97 1.12-.52.55-1.55 1.59l-.22.22zm6.83-8.27q.08-.04.22-.04h1.76q.07 0 .12.05.05.05.05.12v9.81q0 .07-.05.12-.05.05-.12.05h-1.7q-.07 0-.12-.05-.06-.05-.06-.12v-7.95q0-.03-.02-.06-.03-.03-.06-.01l-1.44.39-.06.01q-.13 0-.13-.16l-.04-1.24q0-.15.13-.21l1.52-.71z"/></svg>