<svg width="196" height="74" xmlns="http://www.w3.org/2000/svg"><g fill-rule="nonzero" fill="#DA1E48"><path d="M76.553 37.003c0 7.013 5.13 12.182 13.696 12.182a23.83 23.83 0 0 0 10.539-2.242L104 51.37a29.776 29.776 0 0 1-15.273 3.611C75.05 54.982 65 48.312 65 37.002 65 25.6 75.05 19.025 88.727 19.025a33.254 33.254 0 0 1 15.029 2.965l-3.363 5.112a19.741 19.741 0 0 0-10.163-2.262c-8.567 0-13.677 5.189-13.677 12.164M127.49 19C114.513 19 105 25.679 105 37s9.419 18 22.49 18C140.563 55 150 48.321 150 37s-9.438-18-22.51-18m0 30.444c-7.193 0-11.124-5.537-11.124-12.406 0-6.869 3.968-12.406 11.125-12.406s11.125 5.537 11.125 12.406c0 6.869-3.968 12.406-11.125 12.406M184.93 39.59V54H196V20h-11.07v12.972h-16.898V20H157v34h11.032V39.59zM47 20h12v34H47zM13.587 35.5v3.274A85.91 85.91 0 0 1 28.335 54H41a82.042 82.042 0 0 0-16.13-14.883c5.843-.248 12.35-2.684 12.35-9.611C37.22 20.636 28.004 19 18.787 19c-7.596 0-14.583.362-18.786.723v34.258h10.563V24.919a64.183 64.183 0 0 1 8.278-.457c5.438 0 8.185 1.903 8.185 5.082 0 2.76-1.143 6.071-13.329 5.957"/></g></svg>