<svg width="226" height="48" xmlns="http://www.w3.org/2000/svg"><g fill-rule="nonzero" fill="none"><path d="M224.728 32.253a1.274 1.274 0 0 0 0 2.551 1.275 1.275 0 0 0 0-2.551zm0 2.348a1.073 1.073 0 1 1 1.073-1.073c0 .59-.481 1.073-1.073 1.073zm.414-1.291c0-.232-.164-.37-.406-.37h-.406v1.163h.199v-.421h.218l.21.42h.215l-.232-.463a.342.342 0 0 0 .202-.33zm-.414.191h-.196v-.385h.196c.134 0 .215.067.215.191 0 .127-.083.194-.215.194zM71.462 19.344V16.26h-4.717v18.353h4.717V23.607c0-1.992 1.275-2.971 3.262-2.971h2.582v-4.377H75.1c-1.727 0-3.227.904-3.639 3.085zM81.724 9c-1.613 0-2.85 1.278-2.85 2.896 0 1.58 1.237 2.859 2.85 2.859 1.614 0 2.85-1.279 2.85-2.859 0-1.618-1.236-2.896-2.85-2.896zm-2.353 25.612h4.706V16.26h-4.706v18.353zm27.123-9.176c0 5.24-4.235 9.486-9.46 9.486a9.086 9.086 0 0 1-5.553-1.863V40h-4.707V16.26h4.707v1.552a9.086 9.086 0 0 1 5.553-1.863c5.225 0 9.46 4.247 9.46 9.487zm-4.735 0c0-2.845-2.302-5.154-5.14-5.154-2.836 0-5.138 2.309-5.138 5.154 0 2.845 2.302 5.153 5.139 5.153a5.146 5.146 0 0 0 5.139-5.153zm86.53-1.61-2.745-.755c-1.808-.472-2.51-1.028-2.51-1.985 0-.933.99-1.586 2.405-1.586 1.347 0 2.404.885 2.404 2.017v.106h4.338v-.106c0-3.33-2.708-5.568-6.742-5.568-3.994 0-6.895 2.235-6.895 5.318 0 2.397 1.584 4.204 4.348 4.953l2.63.72c1.998.556 2.74 1.17 2.74 2.274 0 1.162-1.073 1.944-2.67 1.944-1.665 0-2.786-1.057-2.786-2.627v-.105h-4.604v.105c0 3.765 3.023 6.397 7.352 6.397 4.171 0 7.2-2.57 7.2-6.108 0-1.737-.775-4.007-4.465-4.994zm-65.1-7.567h4.706v18.353h-4.706V33.06a9.086 9.086 0 0 1-5.553 1.863c-5.225 0-9.46-4.247-9.46-9.486 0-5.24 4.235-9.487 9.46-9.487 2.108 0 4.02.693 5.553 1.863V16.26zm0 9.177a5.146 5.146 0 0 0-5.14-5.154c-2.836 0-5.138 2.309-5.138 5.154 0 2.845 2.302 5.153 5.139 5.153 2.84 0 5.14-2.306 5.14-5.153zm21.7-15.708h4.705v24.887h-4.706v-1.553a9.086 9.086 0 0 1-5.553 1.863c-5.225 0-9.46-4.247-9.46-9.487s4.235-9.486 9.46-9.486c2.108 0 4.02.693 5.553 1.863V9.728zm0 15.708c0-2.845-2.303-5.154-5.14-5.154-2.837 0-5.139 2.309-5.139 5.154 0 2.845 2.3 5.153 5.14 5.153a5.146 5.146 0 0 0 5.138-5.153zm26.555 9.176h4.706V16.26h-4.706v18.353zM173.797 9c-1.613 0-2.85 1.278-2.85 2.896 0 1.58 1.237 2.859 2.85 2.859 1.614 0 2.85-1.279 2.85-2.859 0-1.618-1.236-2.896-2.85-2.896zm39.297 16.436c0 5.24-4.235 9.486-9.46 9.486-5.225 0-9.46-4.247-9.46-9.486 0-5.24 4.235-9.487 9.46-9.487 5.225 0 9.46 4.247 9.46 9.487zm-4.321 0c0-2.845-2.302-5.154-5.14-5.154-2.836 0-5.138 2.309-5.138 5.154 0 2.845 2.299 5.153 5.139 5.153a5.146 5.146 0 0 0 5.139-5.153zM69.053 9.728H51v4.21h6.683v20.674h4.69V13.937h6.682V9.728h-.002zm91.295 19.858-4.187-13.327h-4.942l6.279 18.353h5.663l6.317-18.353h-4.943l-4.187 13.327zm59.642-10.242V16.26h-4.717v18.353h4.717V23.607c0-1.992 1.274-2.971 3.262-2.971h2.581v-4.377h-2.205c-1.726 0-3.224.904-3.638 3.085z" fill="#000"/><path d="M24 0c13.255 0 24 10.745 24 24S37.255 48 24 48 0 37.255 0 24 10.745 0 24 0zm.497 13a19.333 19.333 0 0 0-11.137 3.513H7L9.86 19.7a9.026 9.026 0 0 0-2.852 6.615c0 4.942 3.915 8.949 8.743 8.949a8.609 8.609 0 0 0 5.944-2.386L24.497 36l2.803-3.12a8.6 8.6 0 0 0 5.94 2.383c4.83 0 8.75-4.007 8.75-8.95a9.004 9.004 0 0 0-2.85-6.614L42 16.513h-6.344A19.38 19.38 0 0 0 24.497 13zm-8.743 7.257c3.268 0 5.917 2.711 5.917 6.057 0 3.345-2.649 6.056-5.917 6.056-3.269 0-5.917-2.71-5.917-6.056s2.649-6.057 5.917-6.057zm17.49 0c3.268 0 5.917 2.711 5.917 6.057 0 3.345-2.65 6.056-5.918 6.056-3.268 0-5.917-2.71-5.917-6.056s2.649-6.057 5.917-6.057zm-17.49 2.882c-1.714 0-3.102 1.42-3.102 3.175 0 1.754 1.388 3.174 3.102 3.174s3.102-1.42 3.102-3.174-1.388-3.178-3.102-3.175zm17.49-.003c-1.714 0-3.102 1.42-3.102 3.175 0 1.754 1.388 3.175 3.101 3.175 1.714 0 3.102-1.421 3.102-3.175 0-1.751-1.388-3.175-3.102-3.175zm-8.747-7.21c2.329 0 4.548.479 6.57 1.344-3.647 1.429-6.432 4.72-6.562 8.584l-.005.276-.005-.276c-.13-3.864-2.915-7.158-6.564-8.584a16.642 16.642 0 0 1 6.566-1.345z" fill="#34E0A1"/></g></svg>